<svg width="58" height="58" viewBox="0 0 58 58" fill="none" xmlns="http://www.w3.org/2000/svg">
<path d="M29 58C45.0163 58 58 45.0163 58 29C58 12.9837 45.0163 0 29 0C12.9837 0 0 12.9837 0 29C0 45.0163 12.9837 58 29 58Z" fill="#CAE4C1"/>
<path d="M39.3827 43.7655C42.1446 43.7655 44.3835 41.5264 44.3835 38.7646C44.3835 36.0027 42.1446 33.7637 39.3827 33.7637C36.6208 33.7637 34.3818 36.0027 34.3818 38.7646C34.3818 41.5264 36.6208 43.7655 39.3827 43.7655Z" fill="#1E1E1E"/>
<path d="M24.8126 13.9146C23.4257 13.7857 22.0492 14.2548 21.0129 15.1828C18.4403 17.477 13.9498 22.313 14.6407 27.5613C15.6615 35.3204 15.0273 36.3567 17.2339 40.0068C18.5589 42.1979 21.8481 43.5023 24.0341 43.9147C27.6636 44.6004 36.6085 40.3368 37.985 39.3882C40.4391 37.7023 48.2394 16.0799 24.8074 13.9094L24.8126 13.9146Z" fill="white"/>
<path d="M24.9993 42.0434C25.1179 43.5024 24.989 47.0082 21.6327 49.6325C21.1428 50.0139 21.4418 50.7461 22.0864 50.7461H34.3102C34.6969 50.7461 35.0062 50.4624 35.0062 50.1067V41.9918C35.0062 41.6414 34.6969 41.3525 34.3102 41.3525H25.6953C25.288 41.3525 24.9735 41.667 24.9993 42.0382V42.0434Z" fill="white"/>
<path d="M18.5867 10.3732C15.4315 11.9663 9.12631 19.7563 14.519 26.5823C14.519 26.5823 16.0657 18.9366 22.2162 16.7764C25.6962 15.5545 27.6553 13.1521 25.7839 10.8372C24.3042 9.00699 20.6953 9.30601 18.5919 10.3681L18.5867 10.3732Z" fill="#1E1E1E"/>
<path d="M36.1115 38.042H28.9814V43.2542H36.1115V38.042Z" fill="white"/>
<path d="M26.4277 41.8728C26.5411 43.3628 26.4174 46.9356 23.1745 49.6113C22.7002 50.0031 22.9889 50.7507 23.6127 50.7507H35.4396C35.8108 50.7507 36.115 50.462 36.115 50.1011V41.8264C36.115 41.4655 35.8159 41.1768 35.4396 41.1768H27.103C26.7112 41.1768 26.4019 41.4965 26.4328 41.8728H26.4277Z" fill="white"/>
<path d="M17.6737 29.7684C18.0552 29.7684 18.3645 29.4591 18.3645 29.0776C18.3645 28.6961 18.0552 28.3867 17.6737 28.3867C17.2922 28.3867 16.9829 28.6961 16.9829 29.0776C16.9829 29.4591 17.2922 29.7684 17.6737 29.7684Z" fill="black"/>
<path d="M24.2718 29.7684C24.6535 29.7684 24.9628 29.4591 24.9628 29.0776C24.9628 28.6961 24.6535 28.3867 24.2718 28.3867C23.8903 28.3867 23.5811 28.6961 23.5811 29.0776C23.5811 29.4591 23.8903 29.7684 24.2718 29.7684Z" fill="black"/>
<path d="M26.6769 35.0316C28.0038 35.0316 29.0794 33.956 29.0794 32.6291C29.0794 31.3023 28.0038 30.2266 26.6769 30.2266C25.35 30.2266 24.2744 31.3023 24.2744 32.6291C24.2744 33.956 25.35 35.0316 26.6769 35.0316Z" fill="#CAE4C1"/>
<path d="M20.537 32.9744C20.2638 32.9744 19.9802 32.8713 19.7637 32.6754C19.4286 32.3764 19.3203 31.9278 19.475 31.4484C19.6039 31.0411 19.8513 30.8452 20.0369 30.7575C20.4855 30.541 20.9752 30.7111 21.032 30.7266C21.2124 30.7936 21.3052 30.9947 21.2382 31.1751C21.1712 31.3556 20.9701 31.4432 20.7896 31.3813C20.7175 31.3556 20.4958 31.304 20.3411 31.3813C20.2483 31.4277 20.1863 31.5154 20.1399 31.6546C20.073 31.866 20.104 32.0309 20.2277 32.1444C20.3463 32.2526 20.537 32.2939 20.6711 32.232C20.8464 32.1495 21.0526 32.232 21.1299 32.4124C21.2072 32.5877 21.1299 32.794 20.9495 32.8713C20.8154 32.928 20.6711 32.9589 20.5267 32.9589L20.537 32.9744Z" fill="black"/>
<path d="M24.1507 43.9402L28.6618 42.543C28.6618 42.543 26.5378 44.698 23.3774 47.8532C23.3774 47.8532 24.9653 45.6312 24.1507 43.9402Z" fill="#515F06"/>
<path d="M36.1113 40.4241C36.1113 40.4241 37.9209 38.5269 40.2822 33.9539C41.2153 32.1495 41.138 29.6284 40.6637 26.8289L36.8176 8.50098C36.8176 8.50098 45.1954 12.1717 46.5565 22.3436C47.4071 28.6953 45.0923 36.5575 36.1165 40.4241H36.1113Z" fill="#1E1E1E"/>
<path d="M43.49 31.1292C44.0347 29.1941 43.2563 27.2821 41.7516 26.8586C40.247 26.4351 38.5857 27.6604 38.0409 29.5955C37.4963 31.5306 38.2746 33.4424 39.7793 33.8661C41.2841 34.2896 42.9454 33.0642 43.49 31.1292Z" fill="white"/>
<path d="M37.5372 8.90327C35.1244 7.37207 29.144 6.17083 24.968 7.635C20.0702 9.3518 19.4773 14.4662 19.9671 17.2656C20.8641 22.349 27.6643 28.943 36.604 29.077C36.604 29.077 37.4547 29.6699 36.867 31.8146L40.6615 26.824L44.26 25.1072C44.26 25.1072 46.745 18.3277 42.9093 13.7031C40.9863 11.3831 40.0428 10.486 37.5424 8.89811L37.5372 8.90327Z" fill="#1E1E1E"/>
<path d="M39.792 39.7079C40.3436 40.2544 42.1017 41.2443 44.4629 40.3782C47.9584 39.0944 47.1747 35.2742 47.1747 35.2742C47.1747 35.2742 46.3395 37.2075 44.2155 38.0685C44.2155 38.0685 48.0667 35.7588 46.3344 30.2578C46.3344 30.2578 46.2107 32.8201 43.4937 34.2688L39.792 39.7028V39.7079Z" fill="#1E1E1E"/>
<path d="M15.6979 30.2266C15.4401 30.2266 15.2081 30.273 14.9761 30.3504C15.0329 31.4124 15.2185 33.6809 15.4505 35.0058C15.5484 35.0161 15.6 35.0316 15.6979 35.0316C17.0229 35.0316 18.1004 33.9541 18.1004 32.6291C18.1004 31.3041 17.0229 30.2266 15.6979 30.2266Z" fill="#CAE4C1"/>
</svg>
