<svg width="58" height="58" viewBox="0 0 58 58" fill="none" xmlns="http://www.w3.org/2000/svg">
<path d="M29 58C45.0163 58 58 45.0163 58 29C58 12.9838 45.0163 0 29 0C12.9837 0 0 12.9838 0 29C0 45.0163 12.9837 58 29 58Z" fill="#CAE4C1"/>
<path d="M23.5718 14.6615C22.1695 14.5326 20.7775 15.0069 19.7309 15.9452C17.1325 18.2652 12.5905 23.1578 13.2865 28.4629C14.3176 36.3096 13.6731 37.3562 15.9055 41.0528C17.2408 43.2645 20.5764 44.5895 22.783 45.0071C26.4538 45.7031 32.4858 42.9603 33.8726 41.9962C35.2234 41.0631 47.2616 16.8576 23.5667 14.6615H23.5718Z" fill="white"/>
<path d="M17.2864 10.5997C14.0951 12.2135 7.72286 20.0912 13.1723 26.9944C13.1723 26.9944 14.7344 19.2611 20.9572 17.0803C24.4784 15.848 26.4581 13.4199 24.566 11.074C23.0658 9.22319 19.4156 9.52737 17.2916 10.5997H17.2864Z" fill="#1E1E1E"/>
<path d="M16.3203 30.6494C16.7075 30.6494 17.0214 30.3355 17.0214 29.9483C17.0214 29.561 16.7075 29.2471 16.3203 29.2471C15.9331 29.2471 15.6191 29.561 15.6191 29.9483C15.6191 30.3355 15.9331 30.6494 16.3203 30.6494Z" fill="#010101"/>
<path d="M22.9922 30.6494C23.3794 30.6494 23.6933 30.3355 23.6933 29.9483C23.6933 29.561 23.3794 29.2471 22.9922 29.2471C22.6049 29.2471 22.291 29.561 22.291 29.9483C22.291 30.3355 22.6049 30.6494 22.9922 30.6494Z" fill="#010101"/>
<path d="M19.2107 35.8873C18.9323 35.8873 18.6488 35.7842 18.4322 35.5882C18.092 35.2841 17.9837 34.8304 18.1384 34.3509C18.2672 33.9385 18.5199 33.7426 18.7106 33.6498C19.1643 33.4281 19.6592 33.5982 19.716 33.6188C19.9016 33.6858 19.9944 33.8921 19.9222 34.0725C19.85 34.253 19.6489 34.3458 19.4685 34.2787C19.3963 34.253 19.1695 34.2014 19.0148 34.2787C18.922 34.3251 18.855 34.4128 18.8137 34.5571C18.7467 34.7737 18.7776 34.9386 18.9065 35.0572C19.0303 35.1655 19.221 35.2067 19.3551 35.15C19.5304 35.0675 19.7417 35.15 19.8191 35.3305C19.8964 35.5109 19.8191 35.7171 19.6386 35.7945C19.5046 35.8563 19.3602 35.8821 19.2107 35.8821V35.8873Z" fill="#010101"/>
<path d="M23.7615 43.105C23.8801 44.5795 23.7512 48.1265 20.3588 50.7816C19.8639 51.1683 20.1681 51.9107 20.8177 51.9107H33.1807C33.5674 51.9107 33.887 51.622 33.887 51.2662V43.0586C33.887 42.7028 33.5725 42.4141 33.1807 42.4141H24.4678C24.0554 42.4141 23.7357 42.7286 23.7667 43.105H23.7615Z" fill="white"/>
<path d="M24.8358 16.9973C24.8358 16.9973 22.1498 14.3577 21.6548 17.8274C21.1599 21.2971 22.2993 26.4475 19.175 26.9218C16.324 27.36 14.6484 26.2619 14.6484 26.2619C14.6484 26.2619 12.8698 27.8653 11.4469 26.0969C10.0239 24.3285 9.74551 5.4128 25.3823 7.39769C25.3823 7.39769 28.6509 7.43894 29.0428 8.41334C29.4346 9.38258 24.841 16.9973 24.841 16.9973H24.8358Z" fill="#1E1E1E"/>
<path d="M30.7626 16.9974C30.7626 16.9974 28.0765 14.3578 27.5816 17.8275C27.0866 21.2972 28.1848 26.2259 25.1018 26.9219C21.7661 27.6746 20.5752 26.262 20.5752 26.262C20.5752 26.262 18.7965 27.8653 17.3736 26.097C15.9506 24.3286 15.167 4.81996 32.0102 7.17089C32.0102 7.17089 34.3663 7.41836 36.2223 8.08342C36.9905 8.35667 30.7677 16.9974 30.7677 16.9974H30.7626Z" fill="#1E1E1E"/>
<path d="M33.2759 17.8284C32.7809 21.2981 33.8585 26.1392 30.7961 26.9228C27.7337 27.7065 26.2695 26.2629 26.2695 26.2629C26.2695 26.2629 24.4908 27.8663 23.0679 26.0979C23.0679 26.0979 23.6814 4.65076 34.9721 8.41432L33.2759 17.8284Z" fill="#1E1E1E"/>
<path d="M33.8798 39.9189H30.771V44.8065H33.8798V39.9189Z" fill="white"/>
<path d="M13.2598 25.4016C13.2598 25.4016 13.167 26.9946 13.6104 31.1345C13.6104 31.1345 12.6309 28.3969 11.6152 24.8654C11.5018 24.4736 11.2646 15.7297 16.3171 10.8423L13.2598 25.4016Z" fill="#1E1E1E"/>
<path d="M16.7525 34.7535C16.7525 33.413 15.6647 32.3252 14.3243 32.3252C14.1232 32.3252 13.9273 32.3561 13.7417 32.4025C13.7984 33.0934 13.8551 35.5526 14.3036 37.1817C14.3088 37.1817 14.3191 37.1817 14.3243 37.1817C15.6647 37.1817 16.7525 36.0939 16.7525 34.7535Z" fill="#CAE4C1"/>
<path d="M34.483 40.9861C34.483 40.9861 44.2992 36.7637 45.8871 29.1489C48.0988 18.5491 43.6032 8.95461 33.8179 7.54199C33.8179 7.54199 35.313 19.2967 35.5605 28.7984C35.7152 34.7272 36.1173 37.7329 34.483 40.9861Z" fill="#1E1E1E"/>
<path d="M39.0428 32.5404C39.5936 30.5834 38.807 28.6499 37.2859 28.2218C35.7646 27.7936 34.085 29.033 33.5342 30.9899C32.9834 32.9469 33.77 34.8804 35.2912 35.3086C36.8123 35.7367 38.492 34.4974 39.0428 32.5404Z" fill="white"/>
<path d="M31.5726 26.2677C32.1603 26.4842 33.6657 29.892 32.2428 32.3255C32.2428 32.3255 35.2639 29.8817 38.1304 26.4481C38.3934 26.1336 44.2862 8.36245 29.897 8.97598L31.5726 26.2677Z" fill="#1E1E1E"/>
<path d="M25.1375 35.5728C25.2612 38.3104 25.1272 44.8889 21.5853 49.8176C21.0698 50.5342 21.3843 51.9108 22.0648 51.9108H34.9692C35.3764 51.9108 35.7064 51.3746 35.7064 50.7147V35.4852C35.7064 34.8253 35.3764 34.2891 34.9692 34.2891H25.8696C25.4417 34.2891 25.1066 34.8768 25.1375 35.5728Z" fill="white"/>
<path d="M22.7876 45.0029L27.4224 43.5645C27.4224 43.5645 25.3344 45.7453 22.1431 48.9366C22.1431 48.9366 23.6073 46.7146 22.7876 45.0029Z" fill="#515F06"/>
<path d="M25.4218 37.1817C26.7629 37.1817 27.8501 36.0946 27.8501 34.7535C27.8501 33.4124 26.7629 32.3252 25.4218 32.3252C24.0809 32.3252 22.9937 33.4124 22.9937 34.7535C22.9937 36.0946 24.0809 37.1817 25.4218 37.1817Z" fill="#CAE4C1"/>
</svg>
