<svg width="58" height="58" viewBox="0 0 58 58" fill="none" xmlns="http://www.w3.org/2000/svg">
<path d="M29 58C45.0162 58 58 45.0163 58 29C58 12.9837 45.0162 0 29 0C12.9837 0 0 12.9837 0 29C0 45.0163 12.9837 58 29 58Z" fill="#CAE4C1"/>
<path d="M36.9906 40.0942H25.6123V49.1834H36.9906V40.0942Z" fill="white"/>
<path d="M45.6368 22.9263C45.6368 22.9263 42.528 36.6349 38.0684 39.0322C38.0684 39.0322 38.7541 26.329 40.4915 24.5864C42.2289 22.849 45.6316 22.9263 45.6316 22.9263H45.6368Z" fill="#1E1E1E"/>
<path d="M24.5917 12.9762C23.1739 12.8473 21.7665 13.3267 20.7096 14.2702C18.0803 16.6211 13.4867 21.5653 14.193 26.9323C15.2395 34.8667 14.5848 35.9287 16.8429 39.6613C18.1937 41.8988 21.5654 43.2393 23.8029 43.662C27.5149 44.3632 36.666 40.0067 38.0735 39.0323C39.4397 38.0889 48.5651 15.1931 24.5969 12.9762H24.5917Z" fill="white"/>
<path d="M24.7826 41.7448C24.9012 43.2399 24.7723 46.823 21.3387 49.5091C20.8386 49.9009 21.1428 50.6484 21.8027 50.6484H34.3049C34.6967 50.6484 35.0164 50.3546 35.0164 49.9989V41.6984C35.0164 41.3375 34.6967 41.0488 34.3049 41.0488H25.4889C25.0713 41.0488 24.7517 41.3685 24.7774 41.75L24.7826 41.7448Z" fill="white"/>
<path d="M38.3263 37.9033H31.1704V43.1362H38.3263V37.9033Z" fill="white"/>
<path d="M28.6078 41.7448C28.7213 43.2399 28.5975 46.823 25.3444 49.5091C24.8701 49.9009 25.1588 50.6484 25.7826 50.6484H37.6455C38.0167 50.6484 38.3209 50.3546 38.3209 49.9989V41.6984C38.3209 41.3375 38.0167 41.0488 37.6455 41.0488H29.2832C28.8914 41.0488 28.5821 41.3685 28.6078 41.75V41.7448Z" fill="white"/>
<path d="M43.6863 31.1428C44.2433 29.1639 43.4461 27.2082 41.9057 26.7747C40.3654 26.3412 38.6652 27.5938 38.1082 29.5727C37.5512 31.5517 38.3484 33.5074 39.8887 33.9408C41.429 34.3744 43.1293 33.1217 43.6863 31.1428Z" fill="white"/>
<path d="M14.2859 28.3653C14.2859 28.3653 8.90862 15.8012 16.0491 11.4912C16.0491 11.4912 18.0443 18.1522 17.0389 20.7042C17.0389 20.7042 13.528 23.6325 14.2859 28.3602V28.3653Z" fill="#1E1E1E"/>
<path d="M20.8176 27.938C21.2078 27.938 21.5239 27.6217 21.5239 27.2317C21.5239 26.8415 21.2078 26.5254 20.8176 26.5254C20.4275 26.5254 20.1113 26.8415 20.1113 27.2317C20.1113 27.6217 20.4275 27.938 20.8176 27.938Z" fill="black"/>
<path d="M27.5666 27.938C27.9567 27.938 28.2729 27.6217 28.2729 27.2317C28.2729 26.8415 27.9567 26.5254 27.5666 26.5254C27.1765 26.5254 26.8604 26.8415 26.8604 27.2317C26.8604 27.6217 27.1765 27.938 27.5666 27.938Z" fill="black"/>
<path d="M32.3996 33.4384C33.7578 33.4384 34.8588 32.3375 34.8588 30.9792C34.8588 29.6211 33.7578 28.52 32.3996 28.52C31.0415 28.52 29.9404 29.6211 29.9404 30.9792C29.9404 32.3375 31.0415 33.4384 32.3996 33.4384Z" fill="#CAE4C1"/>
<path d="M15.8684 33.4384C17.2265 33.4384 18.3276 32.3375 18.3276 30.9792C18.3276 29.6211 17.2265 28.52 15.8684 28.52C14.5102 28.52 13.4092 29.6211 13.4092 30.9792C13.4092 32.3375 14.5102 33.4384 15.8684 33.4384Z" fill="#CAE4C1"/>
<path d="M24.0715 32.4337C23.7879 32.4337 23.5044 32.3306 23.2827 32.1295C22.9372 31.8202 22.829 31.3665 22.9888 30.8766C23.1228 30.459 23.3755 30.2632 23.5662 30.1704C24.0251 29.9486 24.5303 30.1187 24.5819 30.1393C24.7675 30.2115 24.8603 30.4177 24.7932 30.5982C24.7262 30.7786 24.5149 30.8766 24.3344 30.8097C24.2571 30.7838 24.0354 30.7322 23.8756 30.8097C23.7828 30.8561 23.7157 30.9489 23.6693 31.0881C23.6023 31.3045 23.6332 31.4746 23.7621 31.5932C23.8859 31.7066 24.0818 31.7427 24.2158 31.686C24.3963 31.6035 24.6076 31.686 24.6901 31.8666C24.7726 32.0469 24.6901 32.2584 24.5097 32.3409C24.3757 32.4026 24.2261 32.4284 24.0766 32.4284L24.0715 32.4337Z" fill="black"/>
<path d="M23.8185 43.6677L28.5049 42.2139C28.5049 42.2139 26.3963 44.4153 23.1689 47.6478C23.1689 47.6478 24.6537 45.4 23.8185 43.6677Z" fill="#515F06"/>
<path d="M27.5101 15.5804C27.5101 15.5804 24.824 12.9407 24.3291 16.4104C23.8342 19.8801 24.989 25.1749 21.8493 25.5048C18.7095 25.8348 17.3227 24.8449 17.3227 24.8449C17.3227 24.8449 15.544 26.4483 14.1211 24.6799C12.6982 22.9116 12.4198 3.99581 28.0566 5.9807C28.0566 5.9807 31.3252 6.02194 31.717 6.99634C32.1088 7.96559 27.5152 15.5804 27.5152 15.5804H27.5101Z" fill="#1E1E1E"/>
<path d="M27.5098 15.5802C27.5098 15.5802 28.9585 13.2653 29.9535 15.5802C30.9485 17.895 28.1336 24.6488 29.9535 25.5768C31.7734 26.4996 33.2943 26.3037 35.0163 25.5768C35.0163 25.5768 36.0783 26.9688 39.3882 25.5768V31.0881L40.9039 26.3192C40.9039 26.3192 47.6268 24.9375 47.137 20.5398C46.6471 16.1421 41.5948 2.82017 31.7116 7.00133" fill="#1E1E1E"/>
</svg>
