<svg width="58" height="58" viewBox="0 0 58 58" fill="none" xmlns="http://www.w3.org/2000/svg">
<path d="M29 58C45.0163 58 58 45.0163 58 29C58 12.9837 45.0163 0 29 0C12.9837 0 0 12.9837 0 29C0 45.0163 12.9837 58 29 58Z" fill="#CAE4C1"/>
<path d="M30.2889 31.2068C31.2221 47.4415 17.4 49.3439 12.8168 45.0493C8.23349 40.7599 12.0022 36.8365 13.7602 34.4907C15.5183 32.1451 15.4306 28.9382 15.4306 28.9382C15.4306 28.9382 24.5096 23.6075 30.2889 31.2068Z" fill="#1E1E1E"/>
<path d="M24.0093 13.1619C22.607 13.0331 21.215 13.5074 20.1684 14.4457C17.57 16.7657 13.028 21.6583 13.724 26.9634C14.7551 34.8101 14.1107 35.8567 16.343 39.5532C17.6783 41.765 21.014 43.0899 23.2205 43.5075C26.8913 44.2035 35.9393 39.8935 37.3313 38.9294C38.682 37.9963 47.7043 15.3582 24.0042 13.1619H24.0093Z" fill="white"/>
<path d="M17.7195 9.10411C14.5282 10.7178 8.15598 18.5954 13.6054 25.4987C13.6054 25.4987 15.1675 17.7655 21.3903 15.5847C24.9115 14.3524 26.8913 11.9243 24.9992 9.57843C23.4989 7.72758 19.8488 8.03176 17.7247 9.10411H17.7195Z" fill="#1E1E1E"/>
<path d="M16.7504 29.1489C17.1377 29.1489 17.4516 28.835 17.4516 28.4478C17.4516 28.0605 17.1377 27.7466 16.7504 27.7466C16.3632 27.7466 16.0493 28.0605 16.0493 28.4478C16.0493 28.835 16.3632 29.1489 16.7504 29.1489Z" fill="black"/>
<path d="M23.4268 29.1489C23.814 29.1489 24.1279 28.835 24.1279 28.4478C24.1279 28.0605 23.814 27.7466 23.4268 27.7466C23.0395 27.7466 22.7256 28.0605 22.7256 28.4478C22.7256 28.835 23.0395 29.1489 23.4268 29.1489Z" fill="black"/>
<path d="M25.8551 35.6817C27.1962 35.6817 28.2833 34.5946 28.2833 33.2535C28.2833 31.9124 27.1962 30.8252 25.8551 30.8252C24.514 30.8252 23.4268 31.9124 23.4268 33.2535C23.4268 34.5946 24.514 35.6817 25.8551 35.6817Z" fill="#CAE4C1"/>
<path d="M24.1073 33.2168C22.1379 33.2168 20.5396 31.3917 20.5396 29.149C20.5396 26.9064 22.1379 25.0864 24.1073 25.0864C26.0767 25.0864 27.6749 26.9115 27.6749 29.149C27.6749 31.3865 26.0767 33.2168 24.1073 33.2168ZM24.1073 25.7928C22.5297 25.7928 21.2458 27.2982 21.2458 29.149C21.2458 30.9999 22.5297 32.5053 24.1073 32.5053C25.6849 32.5053 26.9686 30.9999 26.9686 29.149C26.9686 27.2982 25.6849 25.7928 24.1073 25.7928Z" fill="black"/>
<mask id="mask0_544_527" style="mask-type:alpha" maskUnits="userSpaceOnUse" x="14" y="30" width="4" height="7">
<path d="M14.8798 36.1206C14.4014 34.8397 14.1947 32.1208 14.1138 30.6835L16.9897 30.6587L17.8487 34.9651C17.0332 35.6912 15.2012 36.9813 14.8798 36.1206Z" fill="#D9D9D9"/>
</mask>
<g mask="url(#mask0_544_527)">
<path d="M14.7375 35.5159C16.0041 35.5049 17.0219 34.4693 17.011 33.2028C17 31.9362 15.9644 30.9184 14.6979 30.9293C13.4314 30.9403 12.4135 31.9759 12.4244 33.2424C12.4354 34.509 13.471 35.5268 14.7375 35.5159Z" fill="#CAE4C1"/>
</g>
<path d="M15.5388 33.2168C13.5694 33.2168 11.9712 31.3917 11.9712 29.149C11.9712 26.9064 13.5694 25.0864 15.5388 25.0864C17.5082 25.0864 19.1065 26.9115 19.1065 29.149C19.1065 31.3865 17.5082 33.2168 15.5388 33.2168ZM15.5388 25.7928C13.9612 25.7928 12.6775 27.2982 12.6775 29.149C12.6775 30.9999 13.9612 32.5053 15.5388 32.5053C17.1164 32.5053 18.4001 30.9999 18.4001 29.149C18.4001 27.2982 17.1164 25.7928 15.5388 25.7928Z" fill="black"/>
<path d="M20.8898 29.505H18.8534C18.6575 29.505 18.4976 29.345 18.4976 29.1491C18.4976 28.9533 18.6575 28.7935 18.8534 28.7935H20.8898C21.0857 28.7935 21.2456 28.9533 21.2456 29.1491C21.2456 29.345 21.0857 29.505 20.8898 29.505Z" fill="black"/>
<path d="M19.6429 34.3922C19.3645 34.3922 19.0809 34.2891 18.8644 34.0932C18.5241 33.789 18.4158 33.3354 18.5705 32.8559C18.6994 32.4434 18.952 32.2475 19.1428 32.1547C19.5965 31.933 20.0914 32.1032 20.1481 32.1238C20.3337 32.1908 20.4265 32.397 20.3543 32.5775C20.2821 32.7579 20.0811 32.8507 19.9006 32.7837C19.8285 32.7579 19.6016 32.7064 19.4469 32.7837C19.3541 32.8301 19.2871 32.9178 19.2459 33.0621C19.1789 33.2786 19.2098 33.4436 19.3387 33.5622C19.4624 33.6705 19.6532 33.7117 19.7872 33.655C19.9625 33.5725 20.1739 33.655 20.2512 33.8354C20.3285 34.0159 20.2512 34.2221 20.0708 34.2994C19.9367 34.3613 19.7924 34.3871 19.6429 34.3871V34.3922Z" fill="black"/>
<path d="M24.1951 41.6108C24.3137 43.0852 24.1848 46.6323 20.7924 49.2874C20.2975 49.674 20.6017 50.4164 21.2513 50.4164H33.6143C34.001 50.4164 34.3206 50.1277 34.3206 49.772V41.5644C34.3206 41.2086 34.0061 40.9199 33.6143 40.9199H24.9014C24.489 40.9199 24.1693 41.2344 24.2003 41.6108H24.1951Z" fill="white"/>
<path d="M49.9987 29.1493C51.6175 48.0187 38.8008 51.7513 33.3925 47.7351C27.6339 43.2343 31.9697 39.2285 33.7638 36.3207C35.558 33.4181 35.1301 29.7113 35.1301 29.7113C24.7416 29.3813 21.6586 22.8853 20.6945 17.4411C20.1635 14.4457 21.3388 8.09405 26.8915 6.269C30.4952 5.08321 35.4188 5.92356 38.1151 7.37227C38.1151 7.37227 48.4159 10.7234 49.9987 29.1493Z" fill="#1E1E1E"/>
<path d="M38.3377 31.6015C38.8885 29.6445 38.1019 27.711 36.5808 27.2828C35.0596 26.8547 33.3799 28.094 32.8292 30.051C32.2783 32.0079 33.0649 33.9415 34.5861 34.3696C36.1072 34.7977 37.7869 33.5584 38.3377 31.6015Z" fill="white"/>
<path d="M23.2256 43.5024L27.8604 42.064C27.8604 42.064 25.7724 44.2448 22.5811 47.4361C22.5811 47.4361 24.0453 45.2141 23.2256 43.5024Z" fill="#515F06"/>
</svg>
