<svg width="58" height="58" viewBox="0 0 58 58" fill="none" xmlns="http://www.w3.org/2000/svg">
<path d="M29 58C45.0163 58 58 45.0163 58 29C58 12.9837 45.0163 0 29 0C12.9837 0 0 12.9837 0 29C0 45.0163 12.9837 58 29 58Z" fill="#CAE4C1"/>
<path d="M41.2729 29.4826C41.2729 29.4826 44.0085 34.0385 40.8908 36.8897C40.8908 36.8897 39.518 37.8854 40.6444 40.445C40.4331 40.455 32.6539 34.6721 41.2729 29.4775V29.4826Z" fill="#1E1E1E"/>
<path d="M43.7417 27.0133C43.7417 27.0133 46.4771 31.5692 43.3595 34.4205C43.3595 34.4205 41.9866 35.4162 43.113 37.9757C42.9019 37.9857 35.1226 32.2029 43.7417 27.0083V27.0133Z" fill="#1E1E1E"/>
<path d="M15.777 20.5977C15.777 20.5977 11.6988 23.3986 12.7347 28.4473C12.7347 28.4473 13.7807 30.499 11.3418 32.2439C11.558 32.3545 22.2942 29.9709 15.777 20.5977Z" fill="#1E1E1E"/>
<path d="M15.0294 27.1089C15.0294 27.1089 19.1076 29.9099 18.0717 34.9587C18.0717 34.9587 17.0258 37.0103 19.4646 38.7552C19.2484 38.8658 8.51234 36.4823 15.0294 27.1089Z" fill="#1E1E1E"/>
<path d="M45.5558 18.9028C45.5558 18.9028 49.468 22.4984 47.2806 26.119C47.2806 26.119 46.2447 27.4616 48.0449 29.5987C47.8438 29.6692 38.7521 26.315 45.5558 18.9028Z" fill="#1E1E1E"/>
<path d="M41.5056 25.168C41.5056 25.168 39.5546 30.1111 43.1048 32.4142C43.1048 32.4142 44.6183 33.1685 43.9344 35.8789C44.1457 35.8538 50.8639 28.8691 41.5056 25.168Z" fill="#1E1E1E"/>
<path d="M37.2212 41.1734C37.4676 40.0621 42.5213 34.9782 44.5881 31.7096C47.8718 26.5251 46.4235 17.7954 46.4235 17.7954L40.0071 18.8162L38.3073 35.2296L37.2212 41.1684V41.1734Z" fill="#1E1E1E"/>
<path d="M23.9721 14.0903C22.5793 13.9595 21.1964 14.4321 20.1504 15.3625C17.5657 17.6707 13.05 22.5333 13.744 27.8133C14.7697 35.6178 14.1311 36.6587 16.3488 40.3295C17.6813 42.5321 20.9902 43.8445 23.1877 44.2619C26.8385 44.9508 35.8397 40.6665 37.2175 39.711C38.5602 38.7808 47.5312 16.2726 23.9671 14.0903H23.9721Z" fill="white"/>
<path d="M24.149 42.3806C24.2646 43.8489 24.1389 47.374 20.7647 50.0141C20.272 50.4013 20.5737 51.1354 21.2223 51.1354H33.5123C33.8995 51.1354 34.2113 50.8488 34.2113 50.4968V42.3354C34.2113 41.9833 33.8995 41.6968 33.5123 41.6968H24.8479C24.4406 41.6968 24.1188 42.0135 24.149 42.3857V42.3806Z" fill="white"/>
<path d="M37.4686 38.6001H30.4336V43.7443H37.4686V38.6001Z" fill="white"/>
<path d="M27.9187 42.3806C28.0293 43.8489 27.9087 47.374 24.7054 50.0141C24.2377 50.4013 24.5243 51.1354 25.1378 51.1354H36.7992C37.1663 51.1354 37.463 50.8488 37.463 50.4968V42.3354C37.463 41.9833 37.1663 41.6968 36.7992 41.6968H28.5774C28.1903 41.6968 27.8885 42.0135 27.9136 42.3857L27.9187 42.3806Z" fill="white"/>
<path d="M13.8471 28.6575C13.8471 28.6575 8.59716 16.1463 15.6171 11.9072C15.6171 11.9072 17.5782 18.4595 16.5876 20.9687C16.5876 20.9687 13.1028 24.006 13.8471 28.6575Z" fill="#1E1E1E"/>
<path d="M41.5475 30.252C41.5475 30.252 47.2148 28.2154 46.5007 18.8169C46.2141 15.0505 43.5792 10.3085 40.5267 8.25687C29.8459 1.07099 19.9999 7.37687 19.9999 7.37687C18.3958 7.97025 14.8054 10.555 14.3428 16.0663C14.3428 16.0663 18.8534 23.2371 41.5475 30.252Z" fill="#1E1E1E"/>
<path d="M42.0327 32.4813C42.5805 30.5351 41.798 28.6121 40.2849 28.1862C38.7717 27.7603 37.101 28.9928 36.5532 30.939C36.0054 32.8853 36.7881 34.8081 38.3012 35.234C39.8142 35.6599 41.4849 34.4275 42.0327 32.4813Z" fill="white"/>
<path d="M18.2645 29.3565C18.6505 29.3565 18.9635 29.0436 18.9635 28.6575C18.9635 28.2715 18.6505 27.9585 18.2645 27.9585C17.8784 27.9585 17.5654 28.2715 17.5654 28.6575C17.5654 29.0436 17.8784 29.3565 18.2645 29.3565Z" fill="black"/>
<path d="M24.904 29.3565C25.2902 29.3565 25.603 29.0436 25.603 28.6575C25.603 28.2715 25.2902 27.9585 24.904 27.9585C24.518 27.9585 24.2051 28.2715 24.2051 28.6575C24.2051 29.0436 24.518 29.3565 24.904 29.3565Z" fill="black"/>
<path d="M27.3169 35.849C28.6501 35.849 29.7307 34.7683 29.7307 33.4352C29.7307 32.1022 28.6501 31.0215 27.3169 31.0215C25.9839 31.0215 24.9033 32.1022 24.9033 33.4352C24.9033 34.7683 25.9839 35.849 27.3169 35.849Z" fill="#CAE4C1"/>
<path d="M21.145 33.4002C20.8684 33.4002 20.5868 33.2946 20.3706 33.1036C20.0337 32.8018 19.9281 32.3543 20.0789 31.8715C20.2097 31.4592 20.4611 31.268 20.6472 31.1776C21.0997 30.9563 21.5926 31.1273 21.6479 31.1474C21.8288 31.2177 21.9245 31.419 21.8541 31.5999C21.7836 31.781 21.5825 31.8715 21.4014 31.8061C21.326 31.7809 21.1048 31.7307 20.9489 31.8061C20.8583 31.8514 20.793 31.9419 20.7478 32.0826C20.6774 32.2989 20.7125 32.4648 20.8382 32.5755C20.959 32.6861 21.15 32.7214 21.2858 32.6661C21.4618 32.5856 21.6729 32.6661 21.7485 32.8471C21.8288 33.0231 21.7485 33.2342 21.5674 33.3096C21.4316 33.37 21.2909 33.3952 21.145 33.3952V33.4002Z" fill="black"/>
<path d="M23.2012 44.2662L27.8276 42.833C27.8276 42.833 25.7507 44.9803 22.5776 48.1533C22.5776 48.1533 24.0209 45.9658 23.2012 44.2662Z" fill="#515F06"/>
<path d="M18.2822 14.603C18.2822 14.603 15.7628 20.0792 19.64 22.9103C19.64 22.9103 21.3094 23.8608 20.364 26.8879C20.6054 26.8729 28.6511 19.3752 18.2822 14.603Z" fill="#1E1E1E"/>
<path d="M25.1746 15.8096C25.1746 15.8096 17.4908 19.8627 26.5323 24.9215C26.5323 24.9215 28.5186 25.7361 27.2564 29.2863C27.4978 29.2713 35.5436 21.0495 25.1746 15.8147V15.8096Z" fill="#1E1E1E"/>
<path d="M17.5531 12.7678C17.5531 12.7678 11.7149 14.2612 11.9563 19.0536C11.9563 19.0536 12.2731 20.9493 9.32129 22.1209C9.48723 22.302 20.3742 23.8257 17.5531 12.7627V12.7678Z" fill="#1E1E1E"/>
<path d="M29.4859 19.0635C29.4859 19.0635 26.9664 24.5396 30.8435 27.3707C30.8435 27.3707 32.513 28.3211 31.5677 31.3483C31.809 31.3332 39.8548 23.8356 29.4859 19.0635Z" fill="#1E1E1E"/>
<path d="M21.2038 15.1055C21.2038 15.1055 23.7231 20.5816 19.846 23.4127C19.846 23.4127 18.1765 24.3632 19.1219 27.3903C18.8806 27.3753 10.8348 19.8777 21.2038 15.1055Z" fill="#1E1E1E"/>
<path d="M27.2424 15.3672C27.2424 15.3672 29.7618 20.8433 25.8847 23.6744C25.8847 23.6744 24.2152 24.6249 25.1606 27.6521C24.9191 27.637 16.8733 20.1394 27.2424 15.3672Z" fill="#1E1E1E"/>
<path d="M38.492 21.8193C38.492 21.8193 41.0113 27.2955 37.1342 30.1266C37.1342 30.1266 35.4647 31.077 36.4101 34.1042C36.1686 34.0892 28.1229 26.5914 38.492 21.8193Z" fill="#1E1E1E"/>
<path d="M16.5896 17.0825C16.5896 17.0825 19.1089 22.5588 15.2318 25.3899C15.2318 25.3899 13.5623 26.3403 14.5077 29.3675C14.2663 29.3524 6.22054 21.8547 16.5896 17.0825Z" fill="#1E1E1E"/>
<path d="M14.5834 35.5268C14.9405 35.733 15.3528 35.8587 15.7902 35.8587C17.1228 35.8587 18.204 34.7776 18.204 33.445C18.204 32.1124 17.1228 31.0312 15.7902 31.0312C15.1667 31.0312 14.6086 31.2676 14.1812 31.6548C14.2515 32.5197 14.332 34.154 14.5834 35.5268Z" fill="#CAE4C1"/>
</svg>
