<svg width="58" height="58" viewBox="0 0 58 58" fill="none" xmlns="http://www.w3.org/2000/svg">
<path d="M29 58C45.0163 58 58 45.0163 58 29C58 12.9837 45.0163 0 29 0C12.9837 0 0 12.9837 0 29C0 45.0163 12.9837 58 29 58Z" fill="#CAE4C1"/>
<path d="M42.5317 34.7204C42.5317 34.7204 39.9771 30.094 41.1488 27.5697C42.3204 25.0453 31.7051 31.9195 31.7051 31.9195C31.7051 31.9195 34.4204 50.7165 41.1488 47.9004C43.0345 47.1109 43.5474 45.7331 43.5474 45.7331C43.5474 45.7331 45.242 45.4565 47.2485 42.9774C49.2549 40.4983 44.6538 37.5515 42.5317 34.7204Z" fill="#1E1E1E"/>
<path d="M25.641 33.6399C25.641 33.6399 23.0866 29.0135 24.2582 26.4892C25.4299 23.9648 14.8145 30.8389 14.8145 30.8389C14.8145 30.8389 17.0019 47.5289 24.2582 46.8198C26.5361 46.5986 26.6569 44.6525 26.6569 44.6525C26.6569 44.6525 28.3515 44.3759 30.3579 41.8968C32.3643 39.4177 27.7631 36.471 25.641 33.6399Z" fill="#1E1E1E"/>
<path d="M22.832 46.7247C22.832 46.7247 38.3654 48.7462 40.2108 48.1679L42.0363 47.4236L24.1897 43.8433L22.832 46.7247Z" fill="#1E1E1E"/>
<path d="M48.2065 29.4608L47.9401 31.1052C47.5026 34.6151 52.9537 37.1092 50.9472 39.5884C48.9408 42.0675 47.2461 42.344 47.2461 42.344C47.2461 42.344 47.1255 44.2851 44.8475 44.5115C37.5861 45.2205 35.4038 28.5305 35.4038 28.5305C35.4038 28.5305 42.4438 25.5837 44.8475 24.1807C45.7073 23.6779 47.9401 19.9165 47.9401 19.9165L48.2065 29.4608Z" fill="#1E1E1E"/>
<path d="M37.1519 40.5441C37.1519 40.5441 47.4304 36.5363 48.2752 28.9984C49.0245 22.2903 48.245 17.3572 45.8362 13.4248C45.8362 13.4248 37.9665 19.3937 38.2028 28.6564C38.3538 34.4394 38.7459 37.371 37.1519 40.5441Z" fill="#1E1E1E"/>
<path d="M23.8672 43.3908C23.9829 44.8593 23.8572 48.3843 20.483 51.0243C19.9902 51.4115 20.2919 52.1458 20.9406 52.1458H33.2306C33.6177 52.1458 33.9295 51.8591 33.9295 51.507V43.3456C33.9295 42.9936 33.6177 42.707 33.2306 42.707H24.5662C24.1589 42.707 23.837 43.0238 23.8672 43.3959V43.3908Z" fill="white"/>
<path d="M37.1814 39.6147H30.1465V44.759H37.1814V39.6147Z" fill="white"/>
<path d="M27.6321 43.3908C27.7426 44.8593 27.622 48.3843 24.4188 51.0243C23.9511 51.4115 24.2378 52.1458 24.8513 52.1458H36.5126C36.8796 52.1458 37.1764 51.8591 37.1764 51.507V43.3456C37.1764 42.9936 36.8796 42.707 36.5126 42.707H28.2908C27.9036 42.707 27.6019 43.0238 27.627 43.3959L27.6321 43.3908Z" fill="white"/>
<path d="M23.6793 15.1048C22.2863 14.9741 20.3906 14.6824 19.3496 15.6127C16.765 17.9208 12.7572 23.5478 13.451 28.8278C14.4769 36.6322 13.8382 37.6732 16.056 41.3441C17.3885 43.5467 20.6973 44.8591 22.8947 45.2765C26.5455 45.9654 35.5468 41.681 36.9246 40.7255C38.2672 39.7953 47.2383 17.2872 23.6742 15.1048H23.6793Z" fill="white"/>
<path d="M17.9827 30.3668C18.3686 30.3668 18.6816 30.0538 18.6816 29.6677C18.6816 29.2817 18.3686 28.9688 17.9827 28.9688C17.5967 28.9688 17.2837 29.2817 17.2837 29.6677C17.2837 30.0538 17.5967 30.3668 17.9827 30.3668Z" fill="#010101"/>
<path d="M24.6175 30.3668C25.0035 30.3668 25.3165 30.0538 25.3165 29.6677C25.3165 29.2817 25.0035 28.9688 24.6175 28.9688C24.2314 28.9688 23.9185 29.2817 23.9185 29.6677C23.9185 30.0538 24.2314 30.3668 24.6175 30.3668Z" fill="#010101"/>
<path d="M27.0348 36.8583C28.3679 36.8583 29.4485 35.7776 29.4485 34.4445C29.4485 33.1115 28.3679 32.0308 27.0348 32.0308C25.7018 32.0308 24.6211 33.1115 24.6211 34.4445C24.6211 35.7776 25.7018 36.8583 27.0348 36.8583Z" fill="#CAE4C1"/>
<path d="M20.8535 34.4094C20.5769 34.4094 20.2953 34.3038 20.079 34.1128C19.7422 33.8111 19.6366 33.3635 19.7874 32.8808C19.9182 32.4684 20.1696 32.2774 20.3557 32.1868C20.8082 31.9656 21.3011 32.1365 21.3564 32.1566C21.5373 32.2271 21.633 32.4282 21.5625 32.6092C21.4921 32.7903 21.291 32.8808 21.1099 32.8154C21.0345 32.7903 20.8133 32.74 20.6574 32.8154C20.5668 32.8607 20.5015 32.9511 20.4563 33.092C20.3859 33.3082 20.421 33.4742 20.5467 33.5847C20.6675 33.6954 20.8585 33.7306 20.9943 33.6753C21.1703 33.5948 21.3816 33.6753 21.457 33.8563C21.5373 34.0323 21.457 34.2435 21.2759 34.319C21.1401 34.3793 20.9994 34.4044 20.8535 34.4044V34.4094Z" fill="#010101"/>
<path d="M14.2919 36.4917C14.649 36.6979 15.0411 36.8236 15.4786 36.8236C16.8112 36.8236 17.8924 35.7424 17.8924 34.4098C17.8924 33.0773 16.8112 31.9961 15.4786 31.9961C14.8552 31.9961 14.3171 32.2174 13.8896 32.6046C13.9601 33.4695 14.0404 35.124 14.2919 36.4968V36.4917Z" fill="#CAE4C1"/>
<path d="M42.2779 32.9896C42.8256 31.0434 42.043 29.1204 40.5299 28.6945C39.0169 28.2686 37.3461 29.5011 36.7983 31.4473C36.2506 33.3934 37.0331 35.3164 38.5462 35.7423C40.0593 36.1682 41.7301 34.9358 42.2779 32.9896Z" fill="white"/>
<path d="M22.6606 19.8928C22.6606 19.8928 25.9243 14.8139 28.3933 22.6736C30.8623 30.5333 28.5542 34.164 33.6583 38.3931C33.6583 38.3931 31.4758 35.0239 33.251 30.7898C35.6496 25.0622 34.6187 18.8921 34.6187 18.8921C34.6187 18.8921 23.1283 8.75443 22.6657 19.8928H22.6606Z" fill="#1E1E1E"/>
<path d="M22.6635 19.8921C22.6635 19.8921 19.5206 15.3312 17.1974 22.7333C14.8742 30.1355 16.3225 31.5284 11.5151 35.5111C11.5151 35.5111 13.788 32.0765 12.0682 28.3906C9.43324 22.7384 11.153 19.1278 11.1581 19.1077C11.1581 19.1077 22.231 9.40252 22.6635 19.8972V19.8921Z" fill="#1E1E1E"/>
<path d="M15.1659 28.0633C14.8038 29.2049 7.2811 27.299 12.365 14.7727C15.0503 8.15504 20.4459 7.00348 20.4459 7.00348C20.4459 7.00348 22.3267 6.58611 23.3072 7.29515C23.3072 7.29515 29.4874 2.42242 38.3429 6.96829C48.1486 12.0019 47.9776 20.0929 47.9776 20.0929L38.1618 30.5424L36.5325 34.0071C36.5325 34.0071 33.4449 18.9314 33.3494 18.7252C33.2539 18.519 25.9775 16.5579 25.9775 16.5579C25.9775 16.5579 23.6794 16.6333 22.6686 19.9019C22.6686 19.9019 20.5566 17.3524 18.9525 17.1562C17.3484 16.9601 15.4727 19.218 15.4727 18.9916C15.4727 18.7654 15.1659 28.0734 15.1659 28.0734V28.0633Z" fill="#1E1E1E"/>
<path d="M22.9298 45.2715L27.5361 43.8433C27.5361 43.8433 25.4592 46.0107 22.2861 49.1836C22.2861 49.1836 23.7444 46.9711 22.9248 45.2715H22.9298Z" fill="#515F06"/>
</svg>
