<svg width="58" height="58" viewBox="0 0 58 58" fill="none" xmlns="http://www.w3.org/2000/svg">
<path d="M29 58C45.0162 58 58 45.0163 58 29C58 12.9837 45.0162 0 29 0C12.9837 0 0 12.9837 0 29C0 45.0163 12.9837 58 29 58Z" fill="#CAE4C1"/>
<path d="M23.5876 49.8066C23.5876 49.8066 37.6055 47.1102 39.6471 46.0327C41.6887 44.9552 40.0905 41.8103 42.8126 39.8306C45.2203 38.0777 42.8487 31.9323 46.4782 25.9467C49.0663 21.6779 46.3957 17.3369 46.3545 17.043C46.3545 17.043 17.0761 16.3264 14.3488 19.2341C11.6215 22.1419 14.6633 28.0037 13.3125 30.2103C10.4409 34.9173 13.957 37.1239 11.9876 39.0366C11.9876 39.0366 9.71916 42.893 11.0235 45.4089C12.3278 47.9248 13.5652 52.7968 23.5927 49.8014" fill="#1E1E1E"/>
<path d="M27.0768 11.5794C25.6229 11.4453 24.1742 11.9351 23.0864 12.9095C20.3849 15.3223 15.6676 20.4005 16.3945 25.9118C17.4668 34.0627 16.7966 35.1506 19.1166 38.9863C20.5035 41.2857 23.968 42.657 26.2622 43.0953C30.0722 43.817 39.4759 39.342 40.9195 38.3418C42.3218 37.3726 51.6946 13.8581 27.0768 11.5794Z" fill="white"/>
<path d="M27.2732 41.1206C27.3969 42.6518 27.2629 46.3329 23.7365 49.0911C23.2209 49.4933 23.5354 50.2614 24.2108 50.2614H37.0481C37.4502 50.2614 37.7802 49.9624 37.7802 49.5912V41.0691C37.7802 40.6979 37.4554 40.3989 37.0481 40.3989H27.995C27.567 40.3989 27.2371 40.7288 27.268 41.1155L27.2732 41.1206Z" fill="white"/>
<path d="M40.4194 8.28985C31.6807 1.35048 22.6224 7.52683 22.6224 7.52683C21.2304 8.04239 18.1164 10.2799 17.7195 15.0642C17.1317 22.1376 24.365 23.8441 24.365 23.8441C24.365 23.8441 21.6944 20.8539 21.9058 16.4872C21.9058 16.4872 22.808 24.9938 33.712 26.4116C33.712 26.4116 29.3865 24.1483 29.0565 18.2813C29.0565 18.2813 30.2423 24.9165 38.6459 26.824L39.0428 30.3762C39.0428 30.3762 54.592 19.5341 40.4297 8.28985H40.4194Z" fill="#1E1E1E"/>
<path d="M20.5394 7.85717C17.2244 9.53273 10.6047 17.7146 16.2654 24.886C16.2654 24.886 17.8894 16.8536 24.3493 14.5852C28.0046 13.3014 30.0617 10.7804 28.0974 8.34695C26.5404 6.42393 22.7511 6.73842 20.5394 7.85717Z" fill="#1E1E1E"/>
<path d="M46.6928 29.655C47.2644 27.624 46.4458 25.6167 44.8644 25.1716C43.2829 24.7265 41.5375 26.0121 40.9659 28.043C40.3942 30.074 41.2128 32.0813 42.7943 32.5263C44.3758 32.9715 46.1211 31.6859 46.6928 29.655Z" fill="white"/>
<path d="M38.9451 36.9185H31.4541V42.3937H38.9451V36.9185Z" fill="white"/>
<path d="M28.7784 40.9453C28.897 42.5074 28.7681 46.2606 25.3603 49.0756C24.8653 49.4829 25.1695 50.2717 25.8191 50.2717H38.2389C38.6307 50.2717 38.9452 49.9675 38.9452 49.5911V40.8989C38.9452 40.5225 38.6307 40.2183 38.2389 40.2183H29.4796C29.0671 40.2183 28.7423 40.5534 28.7733 40.9504L28.7784 40.9453Z" fill="white"/>
<path d="M19.5809 28.2311C19.9824 28.2311 20.3079 27.9057 20.3079 27.5042C20.3079 27.1027 19.9824 26.7773 19.5809 26.7773C19.1794 26.7773 18.854 27.1027 18.854 27.5042C18.854 27.9057 19.1794 28.2311 19.5809 28.2311Z" fill="black"/>
<path d="M26.515 28.2311C26.9165 28.2311 27.242 27.9057 27.242 27.5042C27.242 27.1027 26.9165 26.7773 26.515 26.7773C26.1135 26.7773 25.7881 27.1027 25.7881 27.5042C25.7881 27.9057 26.1135 28.2311 26.515 28.2311Z" fill="black"/>
<path d="M22.5816 31.5981C22.2929 31.5981 21.9991 31.4899 21.7722 31.2888C21.4216 30.9743 21.3082 30.5051 21.468 29.9999C21.6021 29.572 21.865 29.3658 22.0609 29.273C22.5352 29.041 23.0508 29.2214 23.1075 29.242C23.2983 29.3142 23.3962 29.5256 23.324 29.7163C23.2519 29.9071 23.0405 29.9999 22.8549 29.9329C22.7775 29.9071 22.5455 29.8555 22.3857 29.9329C22.2878 29.9793 22.2207 30.0721 22.1743 30.2216C22.1022 30.4433 22.1331 30.6186 22.2671 30.7371C22.396 30.8506 22.5919 30.8918 22.7311 30.8299C22.9167 30.7475 23.1333 30.8299 23.2158 31.0155C23.2983 31.2011 23.2158 31.4177 23.0302 31.5002C22.891 31.562 22.7415 31.593 22.5868 31.593L22.5816 31.5981Z" fill="black"/>
<path d="M26.3038 43.1416L31.1191 41.6465C31.1191 41.6465 28.9537 43.9098 25.6387 47.2248C25.6387 47.2248 27.1596 44.9151 26.3089 43.1416H26.3038Z" fill="#515F06"/>
<path d="M39.3937 45.8789L41.6724 38.79L43.2294 32.6343C43.2294 32.6343 41.5178 34.4336 41.3116 35.6194C41.1053 36.8052 39.8422 37.6661 39.3937 38.3828C38.9452 39.0994 37.1562 39.9294 37.8006 42.1515C38.4451 44.3735 38.9452 46.1006 38.9452 46.1006L39.3937 45.8686V45.8789Z" fill="#1E1E1E"/>
<path d="M29.0356 33.753C30.428 33.753 31.5567 32.6243 31.5567 31.2319C31.5567 29.8396 30.428 28.7109 29.0356 28.7109C27.6433 28.7109 26.5146 29.8396 26.5146 31.2319C26.5146 32.6243 27.6433 33.753 29.0356 33.753Z" fill="#CAE4C1"/>
<mask id="mask0_544_549" style="mask-type:alpha" maskUnits="userSpaceOnUse" x="16" y="28" width="5" height="8">
<path d="M17.3553 34.4709C17.0124 32.3821 16.787 29.612 16.7173 28.488L17.6965 28.2729L19.9781 29.2572L20.5151 32.086C19.6047 33.7513 17.6983 36.5597 17.3553 34.4709Z" fill="#D9D9D9"/>
</mask>
<g mask="url(#mask0_544_549)">
<path d="M17.5032 33.7506C18.8956 33.7539 20.0271 32.628 20.0304 31.2356C20.0337 29.8433 18.9078 28.7118 17.5154 28.7085C16.1231 28.7051 14.9916 29.8311 14.9883 31.2235C14.9849 32.6158 16.1109 33.7473 17.5032 33.7506Z" fill="#CAE4C1"/>
</g>
</svg>
