<svg width="91" height="28" viewBox="0 0 91 28" fill="none" xmlns="http://www.w3.org/2000/svg">
<path d="M34.272 14.144H36.4V16.288H34.272V14.144ZM28.672 12.896H42.016V14.448H28.672V12.896ZM34.272 6.592H36.384V8.384H34.272V6.592ZM34.144 8.48H36.016V8.768C36.016 10.896 33.856 12.304 29.76 12.528L29.168 10.944C32.784 10.8 34.144 9.792 34.144 8.768V8.48ZM34.64 8.48H36.512V8.768C36.512 9.792 37.872 10.8 41.472 10.944L40.88 12.528C36.8 12.304 34.64 10.896 34.64 8.768V8.48ZM29.92 7.76H40.752V9.312H29.92V7.76ZM30.176 15.344H40.416V19.008H32.288V20.416H30.192V17.584H38.32V16.88H30.176V15.344ZM30.192 19.776H40.8V21.328H30.192V19.776ZM50.9268 9.36H53.9348V11.088H50.9268V9.36ZM46.7508 7.376H48.4948V8.768C48.4948 11.696 47.1988 14.24 44.3828 15.216L43.2628 13.536C45.7428 12.72 46.7508 10.768 46.7508 8.768V7.376ZM47.1828 7.376H48.8948V8.896C48.8948 10.736 49.8868 12.544 52.2068 13.296L51.1028 14.96C48.4148 14.032 47.1828 11.632 47.1828 8.896V7.376ZM45.6628 16.096H55.7588V21.424H53.6308V17.776H45.6628V16.096ZM53.6308 6.608H55.7588V15.424H53.6308V6.608ZM62.4366 7.68H68.7726V9.392H62.4366V7.68ZM64.2606 11.136H66.3726V14.848H64.2606V11.136ZM67.9406 7.68H70.0366V8.608C70.0366 9.648 70.0366 11.12 69.6846 12.96L67.6206 12.736C67.9406 10.912 67.9406 9.632 67.9406 8.608V7.68ZM71.4766 6.608H73.6206V17.696H71.4766V6.608ZM72.7726 11.12H75.3806V12.864H72.7726V11.12ZM63.7326 19.472H74.0846V21.168H63.7326V19.472ZM63.7326 16.704H65.8606V20H63.7326V16.704ZM61.7646 15.712L61.5726 14.032C64.1326 14.032 67.7006 13.984 70.6766 13.568L70.8046 15.072C67.7486 15.648 64.3086 15.712 61.7646 15.712ZM86.7074 6.592H88.8354V21.456H86.7074V6.592ZM77.2994 16.272H78.6114C81.2354 16.272 83.3314 16.176 85.6834 15.776L85.8914 17.488C83.4914 17.92 81.3154 18 78.6114 18H77.2994V16.272ZM77.2834 7.856H84.2754V13.584H79.4594V16.912H77.2994V11.904H82.0994V9.552H77.2834V7.856Z" fill="black"/>
<path fill-rule="evenodd" clip-rule="evenodd" d="M16.3689 8.71478C16.7106 9.05649 16.7106 9.61051 16.3689 9.95221L12.3209 14.0002L16.3689 18.0481C16.7106 18.3898 16.7106 18.9438 16.3689 19.2856C16.0272 19.6273 15.4732 19.6273 15.1314 19.2856L10.4648 14.6189C10.1231 14.2772 10.1231 13.7232 10.4648 13.3814L15.1314 8.71478C15.4732 8.37307 16.0272 8.37307 16.3689 8.71478Z" fill="black"/>
</svg>
