<svg width="91" height="28" viewBox="0 0 91 28" fill="none" xmlns="http://www.w3.org/2000/svg">
<path d="M34.272 14.144H36.4V16.288H34.272V14.144ZM28.672 12.896H42.016V14.448H28.672V12.896ZM34.272 6.592H36.384V8.384H34.272V6.592ZM34.144 8.48H36.016V8.768C36.016 10.896 33.856 12.304 29.76 12.528L29.168 10.944C32.784 10.8 34.144 9.792 34.144 8.768V8.48ZM34.64 8.48H36.512V8.768C36.512 9.792 37.872 10.8 41.472 10.944L40.88 12.528C36.8 12.304 34.64 10.896 34.64 8.768V8.48ZM29.92 7.76H40.752V9.312H29.92V7.76ZM30.176 15.344H40.416V19.008H32.288V20.416H30.192V17.584H38.32V16.88H30.176V15.344ZM30.192 19.776H40.8V21.328H30.192V19.776ZM50.9268 9.36H53.9348V11.088H50.9268V9.36ZM46.7508 7.376H48.4948V8.768C48.4948 11.696 47.1988 14.24 44.3828 15.216L43.2628 13.536C45.7428 12.72 46.7508 10.768 46.7508 8.768V7.376ZM47.1828 7.376H48.8948V8.896C48.8948 10.736 49.8868 12.544 52.2068 13.296L51.1028 14.96C48.4148 14.032 47.1828 11.632 47.1828 8.896V7.376ZM45.6628 16.096H55.7588V21.424H53.6308V17.776H45.6628V16.096ZM53.6308 6.608H55.7588V15.424H53.6308V6.608ZM72.4366 6.608H74.4686V21.424H72.4366V6.608ZM70.5006 12.32H72.9646V14.016H70.5006V12.32ZM69.1246 6.864H71.1086V20.72H69.1246V6.864ZM62.3566 8.24H64.4846V16.8H62.3566V8.24ZM62.3566 16H63.3806C64.8046 16 66.4686 15.92 68.3086 15.568L68.5166 17.392C66.5806 17.744 64.8846 17.824 63.3806 17.824H62.3566V16ZM83.0594 8.592H87.4434V10.304H83.0594V8.592ZM83.0594 11.808H87.4434V13.52H83.0594V11.808ZM78.8034 16.048H88.8994V21.424H86.7714V17.728H78.8034V16.048ZM86.7714 6.608H88.8994V15.376H86.7714V6.608ZM80.5954 7.376C82.8034 7.376 84.4994 8.912 84.4994 11.04C84.4994 13.184 82.8034 14.72 80.5954 14.72C78.3714 14.72 76.6754 13.184 76.6754 11.04C76.6754 8.912 78.3714 7.376 80.5954 7.376ZM80.5954 9.184C79.5074 9.184 78.7074 9.872 78.7074 11.04C78.7074 12.224 79.5074 12.912 80.5954 12.912C81.6674 12.912 82.4834 12.224 82.4834 11.04C82.4834 9.872 81.6674 9.184 80.5954 9.184Z" fill="black"/>
<path fill-rule="evenodd" clip-rule="evenodd" d="M16.3687 8.71478C16.7104 9.05649 16.7104 9.61051 16.3687 9.95221L12.3207 14.0002L16.3687 18.0481C16.7104 18.3898 16.7104 18.9438 16.3687 19.2856C16.027 19.6273 15.473 19.6273 15.1313 19.2856L10.4646 14.6189C10.1229 14.2772 10.1229 13.7232 10.4646 13.3814L15.1313 8.71478C15.473 8.37307 16.027 8.37307 16.3687 8.71478Z" fill="black"/>
</svg>
