<svg width="71" height="16" viewBox="0 0 71 16" fill="none" xmlns="http://www.w3.org/2000/svg">
<path d="M0.0880001 2H7.176V11.824H0.0880001V2ZM5.08 3.664H2.184V10.144H5.08V3.664ZM9.112 0.608H11.256V15.424H9.112V0.608ZM10.776 6.192H13.4V7.952H10.776V6.192ZM24.5188 0.591999H26.6628V15.456H24.5188V0.591999ZM18.6788 1.632C20.9188 1.632 22.5668 3.68 22.5668 6.912C22.5668 10.176 20.9188 12.224 18.6788 12.224C16.4388 12.224 14.7908 10.176 14.7908 6.912C14.7908 3.68 16.4388 1.632 18.6788 1.632ZM18.6788 3.568C17.5748 3.568 16.8228 4.736 16.8228 6.912C16.8228 9.12 17.5748 10.304 18.6788 10.304C19.7828 10.304 20.5188 9.12 20.5188 6.912C20.5188 4.736 19.7828 3.568 18.6788 3.568ZM39.9095 0.608H41.9415V15.424H39.9095V0.608ZM35.5735 6H37.5575V7.872H35.5735V6ZM36.9655 0.895999H38.9655V14.736H36.9655V0.895999ZM29.1895 2.272H35.9255V3.968H29.1895V2.272ZM29.1575 12.064L28.9335 10.336C30.7895 10.336 33.9095 10.288 36.1495 9.984L36.2935 11.52C33.9895 12.016 30.9815 12.064 29.1575 12.064ZM30.1015 3.36H32.0055V10.784H30.1015V3.36ZM33.0775 3.36H34.9975V10.784H33.0775V3.36ZM53.9563 0.591999H56.1003V15.456H53.9563V0.591999ZM48.1163 1.632C50.3563 1.632 52.0043 3.68 52.0043 6.912C52.0043 10.176 50.3563 12.224 48.1163 12.224C45.8763 12.224 44.2283 10.176 44.2283 6.912C44.2283 3.68 45.8763 1.632 48.1163 1.632ZM48.1163 3.568C47.0123 3.568 46.2603 4.736 46.2603 6.912C46.2603 9.12 47.0123 10.304 48.1163 10.304C49.2203 10.304 49.9563 9.12 49.9563 6.912C49.9563 4.736 49.2203 3.568 48.1163 3.568ZM62.083 2.944H63.779V4.608C63.779 8.032 62.387 11.376 59.603 12.64L58.403 10.96C60.883 9.856 62.083 7.12 62.083 4.608V2.944ZM62.563 2.944H64.243V4.608C64.243 7.008 65.427 9.568 67.907 10.592L66.755 12.272C63.939 11.056 62.563 7.904 62.563 4.608V2.944ZM58.995 2.032H67.299V3.776H58.995V2.032ZM68.675 0.608H70.819V15.424H68.675V0.608Z" fill="black"/>
</svg>
