<svg width="29" height="16" viewBox="0 0 29 16" fill="none" xmlns="http://www.w3.org/2000/svg">
<path d="M10.848 0.608H12.992V15.424H10.848V0.608ZM6.48 2.144H8.592C8.592 6.672 7.056 10.384 1.792 12.928L0.688 11.232C4.944 9.184 6.48 6.496 6.48 2.528V2.144ZM1.472 2.144H7.488V3.824H1.472V2.144ZM15.3588 8.544H28.7828V10.24H15.3588V8.544ZM17.0068 0.895999H27.1508V4.912H19.1348V6.512H17.0228V3.408H25.0548V2.512H17.0068V0.895999ZM17.0228 5.872H27.4388V7.488H17.0228V5.872ZM21.0068 6.656H23.1348V9.472H21.0068V6.656ZM16.8468 11.072H27.2468V15.376H25.1188V12.752H16.8468V11.072Z" fill="black"/>
</svg>
