<svg width="87" height="28" viewBox="0 0 87 28" fill="none" xmlns="http://www.w3.org/2000/svg">
<path d="M32.4 15.616H34.528V18.016H32.4V15.616ZM38.88 6.608H41.008V21.424H38.88V6.608ZM28.976 18.96L28.72 17.248C31.408 17.232 34.992 17.232 38.112 16.816L38.256 18.352C35.04 18.944 31.6 18.96 28.976 18.96ZM29.008 8.24H37.92V9.904H29.008V8.24ZM33.456 10.496C35.648 10.496 37.168 11.616 37.168 13.264C37.168 14.928 35.648 16.048 33.456 16.048C31.296 16.048 29.776 14.928 29.776 13.264C29.776 11.616 31.296 10.496 33.456 10.496ZM33.456 12.096C32.496 12.096 31.808 12.512 31.808 13.264C31.808 14.032 32.496 14.448 33.456 14.448C34.448 14.448 35.136 14.032 35.136 13.264C35.136 12.512 34.448 12.096 33.456 12.096ZM32.4 6.672H34.528V9.2H32.4V6.672ZM47.2148 14.208H49.3428V17.456H47.2148V14.208ZM53.7108 6.608H55.8388V17.824H53.7108V6.608ZM45.1668 19.472H56.1588V21.168H45.1668V19.472ZM45.1668 16.768H47.2948V19.92H45.1668V16.768ZM43.5668 14.848L43.3108 13.152C46.0148 13.152 49.6308 13.12 52.7348 12.72L52.8628 14.24C49.7108 14.768 46.2388 14.848 43.5668 14.848ZM50.9108 15.216H54.1748V16.672H50.9108V15.216ZM48.0788 7.12C50.2388 7.12 51.7587 8.192 51.7587 9.76C51.7587 11.344 50.2388 12.4 48.0788 12.4C45.9028 12.4 44.3828 11.344 44.3828 9.76C44.3828 8.192 45.9028 7.12 48.0788 7.12ZM48.0788 8.672C47.0868 8.672 46.3988 9.04 46.3988 9.76C46.3988 10.48 47.0868 10.848 48.0788 10.848C49.0548 10.848 49.7428 10.48 49.7428 9.76C49.7428 9.04 49.0548 8.672 48.0788 8.672ZM67.5495 6.592H69.6935V21.408H67.5495V6.592ZM69.1335 12.256H71.7415V14H69.1335V12.256ZM63.6615 8.128H65.7415C65.7415 12.576 64.0455 16.384 59.1175 18.864L57.9335 17.248C61.8215 15.232 63.6615 12.512 63.6615 8.496V8.128ZM58.7495 8.128H64.7495V9.84H58.7495V8.128ZM82.9723 6.608H85.1163V14.576H82.9723V6.608ZM75.2603 15.216H77.3563V16.592H83.0043V15.216H85.1163V21.264H75.2603V15.216ZM77.3563 18.224V19.568H83.0043V18.224H77.3563ZM77.0523 7.216C79.3563 7.216 81.0683 8.672 81.0683 10.72C81.0683 12.768 79.3563 14.224 77.0523 14.224C74.7483 14.224 73.0203 12.768 73.0203 10.72C73.0203 8.672 74.7483 7.216 77.0523 7.216ZM77.0523 8.976C75.9163 8.976 75.1003 9.632 75.1003 10.72C75.1003 11.824 75.9163 12.464 77.0523 12.464C78.1723 12.464 78.9883 11.824 78.9883 10.72C78.9883 9.632 78.1723 8.976 77.0523 8.976Z" fill="black"/>
<path fill-rule="evenodd" clip-rule="evenodd" d="M16.3687 8.71478C16.7104 9.05649 16.7104 9.61051 16.3687 9.95221L12.3207 14.0002L16.3687 18.0481C16.7104 18.3898 16.7104 18.9438 16.3687 19.2856C16.027 19.6273 15.473 19.6273 15.1313 19.2856L10.4646 14.6189C10.1229 14.2772 10.1229 13.7232 10.4646 13.3814L15.1313 8.71478C15.473 8.37307 16.027 8.37307 16.3687 8.71478Z" fill="black"/>
</svg>
