<svg width="150" height="60" viewBox="0 0 150 60" fill="none" xmlns="http://www.w3.org/2000/svg">
<rect x="0.75" y="0.75" width="148.5" height="58.5" rx="6.25" fill="white" stroke="#CAE4C1" stroke-width="1.5"/>
<path d="M59.16 47.24H59.99V48.61H59.16V47.24ZM55.5 46.75H63.66V47.39H55.5V46.75ZM59.17 42.68H59.99V43.78H59.17V42.68ZM59.13 43.86H59.86V44C59.86 45.42 58.17 46.18 56.17 46.35L55.93 45.71C57.71 45.6 59.13 44.97 59.13 44V43.86ZM59.3 43.86H60.03V44C60.03 44.97 61.45 45.6 63.22 45.71L62.98 46.35C60.98 46.18 59.3 45.42 59.3 44V43.86ZM56.33 43.53H62.83V44.16H56.33V43.53ZM56.48 48.21H62.62V50.2H57.32V51.29H56.5V49.61H61.8V48.84H56.48V48.21ZM56.5 51.05H62.89V51.68H56.5V51.05ZM69.3392 44.63H71.4792V45.32H69.3392V44.63ZM66.9492 43.2H67.6292V44.14C67.6292 45.88 66.6592 47.31 65.1392 47.89L64.7092 47.23C66.0692 46.73 66.9492 45.52 66.9492 44.14V43.2ZM67.0992 43.2H67.7692V44.18C67.7692 45.42 68.6692 46.58 69.9692 47.04L69.5292 47.69C68.0792 47.14 67.0992 45.77 67.0992 44.18V43.2ZM66.0992 48.58H72.1292V51.78H71.2992V49.25H66.0992V48.58ZM71.2992 42.74H72.1292V48.08H71.2992V42.74ZM77.1909 43.44H81.1909V44.12H77.1909V43.44ZM78.5509 45.46H79.3709V47.72H78.5509V45.46ZM80.8609 43.44H81.6809V43.92C81.6809 44.51 81.6809 45.41 81.4409 46.6L80.6309 46.51C80.8609 45.32 80.8609 44.5 80.8609 43.92V43.44ZM82.9109 42.74H83.7409V49.55H82.9109V42.74ZM83.3609 45.68H85.0309V46.37H83.3609V45.68ZM78.0309 50.9H84.0309V51.58H78.0309V50.9ZM78.0309 48.92H78.8509V51.11H78.0309V48.92ZM76.7309 48.11L76.6409 47.43C78.2509 47.43 80.4709 47.39 82.3009 47.14L82.3609 47.74C80.4809 48.07 78.3209 48.11 76.7309 48.11ZM92.4902 42.73H93.3202V51.79H92.4902V42.73ZM86.4302 48.92H87.1802C88.6902 48.92 90.0402 48.86 91.6402 48.6L91.7302 49.28C90.0902 49.55 88.7302 49.61 87.1802 49.61H86.4302V48.92ZM86.4102 43.58H90.5902V46.81H87.2602V49.18H86.4302V46.13H89.7502V44.26H86.4102V43.58Z" fill="#9A9A9A"/>
<circle cx="74.5" cy="23.5" r="13.5" fill="#F0FFEB"/>
<path d="M77.5 17.7308H80V31H69V17.7308H71.5V18.8846H77.5V17.7308ZM71 23.5H78V22.3462H71V23.5ZM71 28.1154H78V26.9615H71V28.1154ZM72.5 17.7308V16H76.5V17.7308H72.5Z" fill="#CAE4C1"/>
</svg>
