<svg width="150" height="60" viewBox="0 0 150 60" fill="none" xmlns="http://www.w3.org/2000/svg">
<rect x="0.75" y="0.75" width="148.5" height="58.5" rx="6.25" fill="white" stroke="#CAE4C1" stroke-width="1.5"/>
<path d="M59.16 47.24H59.99V48.61H59.16V47.24ZM55.5 46.75H63.66V47.39H55.5V46.75ZM59.17 42.68H59.99V43.78H59.17V42.68ZM59.13 43.86H59.86V44C59.86 45.42 58.17 46.18 56.17 46.35L55.93 45.71C57.71 45.6 59.13 44.97 59.13 44V43.86ZM59.3 43.86H60.03V44C60.03 44.97 61.45 45.6 63.22 45.71L62.98 46.35C60.98 46.18 59.3 45.42 59.3 44V43.86ZM56.33 43.53H62.83V44.16H56.33V43.53ZM56.48 48.21H62.62V50.2H57.32V51.29H56.5V49.61H61.8V48.84H56.48V48.21ZM56.5 51.05H62.89V51.68H56.5V51.05ZM69.3392 44.63H71.4792V45.32H69.3392V44.63ZM66.9492 43.2H67.6292V44.14C67.6292 45.88 66.6592 47.31 65.1392 47.89L64.7092 47.23C66.0692 46.73 66.9492 45.52 66.9492 44.14V43.2ZM67.0992 43.2H67.7692V44.18C67.7692 45.42 68.6692 46.58 69.9692 47.04L69.5292 47.69C68.0792 47.14 67.0992 45.77 67.0992 44.18V43.2ZM66.0992 48.58H72.1292V51.78H71.2992V49.25H66.0992V48.58ZM71.2992 42.74H72.1292V48.08H71.2992V42.74ZM83.5709 42.74H84.3709V51.78H83.5709V42.74ZM82.0509 46.42H83.7909V47.1H82.0509V46.42ZM81.5209 42.94H82.3009V51.32H81.5209V42.94ZM77.1409 43.83H77.9709V49.05H77.1409V43.83ZM77.1409 48.72H77.7209C78.6509 48.72 79.6909 48.66 80.8709 48.43L80.9609 49.15C79.7309 49.39 78.6909 49.44 77.7209 49.44H77.1409V48.72ZM90.0202 44.07H92.7802V44.75H90.0202V44.07ZM90.0202 46.09H92.7802V46.78H90.0202V46.09ZM87.3102 48.57H93.3402V51.78H92.5102V49.24H87.3102V48.57ZM92.5102 42.74H93.3402V48.07H92.5102V42.74ZM88.3702 43.24C89.7002 43.24 90.7002 44.14 90.7002 45.42C90.7002 46.7 89.7002 47.59 88.3702 47.59C87.0302 47.59 86.0402 46.7 86.0402 45.42C86.0402 44.14 87.0302 43.24 88.3702 43.24ZM88.3702 43.95C87.4902 43.95 86.8402 44.56 86.8402 45.42C86.8402 46.28 87.4902 46.88 88.3702 46.88C89.2502 46.88 89.9102 46.28 89.9102 45.42C89.9102 44.56 89.2502 43.95 88.3702 43.95Z" fill="#9A9A9A"/>
<circle cx="74.5" cy="23.5" r="13.5" fill="#F0FFEB"/>
<path d="M77.5 17.7308H80V31H69V17.7308H71.5V18.8846H77.5V17.7308ZM71 23.5H78V22.3462H71V23.5ZM71 28.1154H78V26.9615H71V28.1154ZM72.5 17.7308V16H76.5V17.7308H72.5Z" fill="#CAE4C1"/>
</svg>
