<svg width="150" height="60" viewBox="0 0 150 60" fill="none" xmlns="http://www.w3.org/2000/svg">
<rect x="0.75" y="0.75" width="148.5" height="58.5" rx="6.25" fill="white" stroke="#CAE4C1" stroke-width="1.5"/>
<path d="M59.16 47.24H59.99V48.61H59.16V47.24ZM55.5 46.75H63.66V47.39H55.5V46.75ZM59.17 42.68H59.99V43.78H59.17V42.68ZM59.13 43.86H59.86V44C59.86 45.42 58.17 46.18 56.17 46.35L55.93 45.71C57.71 45.6 59.13 44.97 59.13 44V43.86ZM59.3 43.86H60.03V44C60.03 44.97 61.45 45.6 63.22 45.71L62.98 46.35C60.98 46.18 59.3 45.42 59.3 44V43.86ZM56.33 43.53H62.83V44.16H56.33V43.53ZM56.48 48.21H62.62V50.2H57.32V51.29H56.5V49.61H61.8V48.84H56.48V48.21ZM56.5 51.05H62.89V51.68H56.5V51.05ZM69.3392 44.63H71.4792V45.32H69.3392V44.63ZM66.9492 43.2H67.6292V44.14C67.6292 45.88 66.6592 47.31 65.1392 47.89L64.7092 47.23C66.0692 46.73 66.9492 45.52 66.9492 44.14V43.2ZM67.0992 43.2H67.7692V44.18C67.7692 45.42 68.6692 46.58 69.9692 47.04L69.5292 47.69C68.0792 47.14 67.0992 45.77 67.0992 44.18V43.2ZM66.0992 48.58H72.1292V51.78H71.2992V49.25H66.0992V48.58ZM71.2992 42.74H72.1292V48.08H71.2992V42.74ZM82.8309 42.74H83.6609V51.78H82.8309V42.74ZM83.4609 46.45H85.1409V47.15H83.4609V46.45ZM76.6609 44.18H81.9909V44.86H76.6609V44.18ZM79.3609 45.61C80.6409 45.61 81.5609 46.47 81.5609 47.69C81.5609 48.91 80.6409 49.77 79.3609 49.77C78.0909 49.77 77.1609 48.91 77.1609 47.69C77.1609 46.47 78.0909 45.61 79.3609 45.61ZM79.3609 46.3C78.5409 46.3 77.9509 46.87 77.9509 47.69C77.9509 48.5 78.5409 49.08 79.3609 49.08C80.1809 49.08 80.7709 48.5 80.7709 47.69C80.7709 46.87 80.1809 46.3 79.3609 46.3ZM78.9309 42.85H79.7609V44.49H78.9309V42.85ZM92.4902 42.74H93.3202V51.78H92.4902V42.74ZM89.8402 43.71H90.6602C90.6602 46.33 89.4802 48.62 86.4602 50.1L86.0202 49.43C88.6302 48.17 89.8402 46.25 89.8402 43.85V43.71ZM86.4302 43.71H90.2002V44.39H86.4302V43.71Z" fill="#9A9A9A"/>
<circle cx="74.5" cy="23.5" r="13.5" fill="#F0FFEB"/>
<path d="M64.6819 17.0435V18.2541C64.6819 21.6034 66.5342 24.533 69.2916 26.1633V29.9565H81.8637V28.3424C81.8637 26.1956 77.3964 25.1141 75.1586 25.1141H74.9491C70.9679 25.1141 67.6154 21.8858 67.6154 18.2541V17.0435M75.1586 17.0435C74.2695 17.0435 73.4167 17.3836 72.788 17.989C72.1593 18.5944 71.8061 19.4155 71.8061 20.2717C71.8061 21.1279 72.1593 21.949 72.788 22.5544C73.4167 23.1599 74.2695 23.5 75.1586 23.5C76.0478 23.5 76.9005 23.1599 77.5292 22.5544C78.1579 21.949 78.5112 21.1279 78.5112 20.2717C78.5112 19.4155 78.1579 18.5944 77.5292 17.989C76.9005 17.3836 76.0478 17.0435 75.1586 17.0435Z" fill="#CAE4C1"/>
</svg>
