<svg width="130" height="60" viewBox="0 0 130 60" fill="none" xmlns="http://www.w3.org/2000/svg">
<rect x="0.75" y="0.75" width="128.5" height="58.5" rx="6.25" fill="white" stroke="#CAE4C1" stroke-width="1.5"/>
<path d="M53.328 42.992H53.992V44.088H53.328V42.992ZM50.4 42.6H56.928V43.112H50.4V42.6ZM53.336 39.344H53.992V40.224H53.336V39.344ZM53.304 40.288H53.888V40.4C53.888 41.536 52.536 42.144 50.936 42.28L50.744 41.768C52.168 41.68 53.304 41.176 53.304 40.4V40.288ZM53.44 40.288H54.024V40.4C54.024 41.176 55.16 41.68 56.576 41.768L56.384 42.28C54.784 42.144 53.44 41.536 53.44 40.4V40.288ZM51.064 40.024H56.264V40.528H51.064V40.024ZM51.184 43.768H56.096V45.36H51.856V46.232H51.2V44.888H55.44V44.272H51.184V43.768ZM51.2 46.04H56.312V46.544H51.2V46.04ZM61.4714 40.904H63.1834V41.456H61.4714V40.904ZM59.5594 39.76H60.1034V40.512C60.1034 41.904 59.3274 43.048 58.1114 43.512L57.7674 42.984C58.8554 42.584 59.5594 41.616 59.5594 40.512V39.76ZM59.6794 39.76H60.2154V40.544C60.2154 41.536 60.9354 42.464 61.9754 42.832L61.6234 43.352C60.4634 42.912 59.6794 41.816 59.6794 40.544V39.76ZM58.8794 44.064H63.7034V46.624H63.0394V44.6H58.8794V44.064ZM63.0394 39.392H63.7034V43.664H63.0394V39.392ZM70.0148 39.392H70.6788V46.624H70.0148V39.392ZM70.5188 42.36H71.8628V42.92H70.5188V42.36ZM65.0788 40.544H69.3428V41.088H65.0788V40.544ZM67.2388 41.688C68.2628 41.688 68.9988 42.376 68.9988 43.352C68.9988 44.328 68.2628 45.016 67.2388 45.016C66.2228 45.016 65.4788 44.328 65.4788 43.352C65.4788 42.376 66.2228 41.688 67.2388 41.688ZM67.2388 42.24C66.5828 42.24 66.1108 42.696 66.1108 43.352C66.1108 44 66.5828 44.464 67.2388 44.464C67.8948 44.464 68.3668 44 68.3668 43.352C68.3668 42.696 67.8948 42.24 67.2388 42.24ZM66.8948 39.48H67.5588V40.792H66.8948V39.48ZM77.7421 39.392H78.4061V46.624H77.7421V39.392ZM75.6221 40.168H76.2781C76.2781 42.264 75.3341 44.096 72.9181 45.28L72.5661 44.744C74.6541 43.736 75.6221 42.2 75.6221 40.28V40.168ZM72.8941 40.168H75.9101V40.712H72.8941V40.168Z" fill="#9A9A9A"/>
<ellipse cx="64" cy="24.5" rx="11" ry="11.5" fill="#F0FFEB"/>
<path d="M56 19V20.0312C56 22.8844 57.5093 25.38 59.7561 26.7688V30H70V28.625C70 26.7962 66.36 25.875 64.5366 25.875H64.3659C61.122 25.875 58.3902 23.125 58.3902 20.0312V19M64.5366 19C63.8121 19 63.1173 19.2897 62.605 19.8055C62.0927 20.3212 61.8049 21.0207 61.8049 21.75C61.8049 22.4793 62.0927 23.1788 62.605 23.6945C63.1173 24.2103 63.8121 24.5 64.5366 24.5C65.2611 24.5 65.9559 24.2103 66.4682 23.6945C66.9805 23.1788 67.2683 22.4793 67.2683 21.75C67.2683 21.0207 66.9805 20.3212 66.4682 19.8055C65.9559 19.2897 65.2611 19 64.5366 19Z" fill="#CAE4C1"/>
</svg>
