<svg width="150" height="60" viewBox="0 0 150 60" fill="none" xmlns="http://www.w3.org/2000/svg">
<rect x="0.75" y="0.75" width="148.5" height="58.5" rx="6.25" fill="white" stroke="#CAE4C1" stroke-width="1.5"/>
<path d="M59.16 47.24H59.99V48.61H59.16V47.24ZM55.5 46.75H63.66V47.39H55.5V46.75ZM59.17 42.68H59.99V43.78H59.17V42.68ZM59.13 43.86H59.86V44C59.86 45.42 58.17 46.18 56.17 46.35L55.93 45.71C57.71 45.6 59.13 44.97 59.13 44V43.86ZM59.3 43.86H60.03V44C60.03 44.97 61.45 45.6 63.22 45.71L62.98 46.35C60.98 46.18 59.3 45.42 59.3 44V43.86ZM56.33 43.53H62.83V44.16H56.33V43.53ZM56.48 48.21H62.62V50.2H57.32V51.29H56.5V49.61H61.8V48.84H56.48V48.21ZM56.5 51.05H62.89V51.68H56.5V51.05ZM69.3392 44.63H71.4792V45.32H69.3392V44.63ZM66.9492 43.2H67.6292V44.14C67.6292 45.88 66.6592 47.31 65.1392 47.89L64.7092 47.23C66.0692 46.73 66.9492 45.52 66.9492 44.14V43.2ZM67.0992 43.2H67.7692V44.18C67.7692 45.42 68.6692 46.58 69.9692 47.04L69.5292 47.69C68.0792 47.14 67.0992 45.77 67.0992 44.18V43.2ZM66.0992 48.58H72.1292V51.78H71.2992V49.25H66.0992V48.58ZM71.2992 42.74H72.1292V48.08H71.2992V42.74ZM79.0709 46.98H79.9009V48.14H79.0709V46.98ZM82.8809 42.75H83.7109V48.81H82.8809V42.75ZM83.3609 45.48H85.0309V46.17H83.3609V45.48ZM76.7609 48.55L76.6509 47.87C78.2709 47.87 80.4709 47.87 82.3409 47.6L82.4109 48.19C80.4809 48.53 78.3409 48.54 76.7609 48.55ZM77.7709 49.26H83.7109V51.78H82.8809V49.92H77.7709V49.26ZM76.8809 43.56H82.0709V44.18H76.8809V43.56ZM79.4809 44.53C80.7509 44.53 81.5809 45.04 81.5809 45.87C81.5809 46.7 80.7509 47.21 79.4809 47.21C78.2009 47.21 77.3709 46.7 77.3709 45.87C77.3709 45.04 78.2009 44.53 79.4809 44.53ZM79.4809 45.1C78.6709 45.1 78.1509 45.39 78.1509 45.87C78.1509 46.33 78.6709 46.63 79.4809 46.63C80.2809 46.63 80.8009 46.33 80.8009 45.87C80.8009 45.39 80.2809 45.1 79.4809 45.1ZM79.0709 42.67H79.9009V43.86H79.0709V42.67ZM92.4802 42.75H93.3202V49.35H92.4802V42.75ZM87.5102 50.9H93.5902V51.58H87.5102V50.9ZM87.5102 48.67H88.3302V51.13H87.5102V48.67ZM88.4702 43.37C89.8202 43.37 90.8202 44.29 90.8202 45.6C90.8202 46.9 89.8202 47.83 88.4702 47.83C87.1202 47.83 86.1102 46.9 86.1102 45.6C86.1102 44.29 87.1202 43.37 88.4702 43.37ZM88.4702 44.09C87.5902 44.09 86.9202 44.71 86.9202 45.6C86.9202 46.48 87.5902 47.1 88.4702 47.1C89.3502 47.1 90.0202 46.48 90.0202 45.6C90.0202 44.71 89.3502 44.09 88.4702 44.09Z" fill="#9A9A9A"/>
<circle cx="74.5" cy="23.5" r="13.5" fill="#F0FFEB"/>
<path d="M64.6819 17.0435V18.2541C64.6819 21.6034 66.5342 24.533 69.2916 26.1633V29.9565H81.8637V28.3424C81.8637 26.1956 77.3964 25.1141 75.1586 25.1141H74.9491C70.9679 25.1141 67.6154 21.8858 67.6154 18.2541V17.0435M75.1586 17.0435C74.2695 17.0435 73.4167 17.3836 72.788 17.989C72.1593 18.5944 71.8061 19.4155 71.8061 20.2717C71.8061 21.1279 72.1593 21.949 72.788 22.5544C73.4167 23.1599 74.2695 23.5 75.1586 23.5C76.0478 23.5 76.9005 23.1599 77.5292 22.5544C78.1579 21.949 78.5112 21.1279 78.5112 20.2717C78.5112 19.4155 78.1579 18.5944 77.5292 17.989C76.9005 17.3836 76.0478 17.0435 75.1586 17.0435Z" fill="#CAE4C1"/>
</svg>
