<svg width="312" height="83" viewBox="0 0 312 83" fill="none" xmlns="http://www.w3.org/2000/svg">
    <defs>
        <linearGradient id="paint0_linear_152_1659" x1="266.977" y1="49.1415" x2="267.071" y2="42.6065" gradientUnits="userSpaceOnUse">
            <stop offset="0.267" stop-color="#82AEC0"/>
            <stop offset="1" stop-color="#82AEC0" stop-opacity="0"/>
        </linearGradient>
        <linearGradient id="paint1_linear_152_1659" x1="249.103" y1="47.7815" x2="265.272" y2="47.7815" gradientUnits="userSpaceOnUse">
            <stop stop-color="#2F7889"/>
            <stop offset="1" stop-color="#82AEC0"/>
        </linearGradient>
        <linearGradient id="paint2_linear_152_1659" x1="244.595" y1="47.7815" x2="228.462" y2="47.7815" gradientUnits="userSpaceOnUse">
            <stop stop-color="#2F7889"/>
            <stop offset="1" stop-color="#82AEC0"/>
        </linearGradient>
        <linearGradient id="paint3_linear_152_1659" x1="226.758" y1="49.1415" x2="226.665" y2="42.6065" gradientUnits="userSpaceOnUse">
            <stop offset="0.267" stop-color="#82AEC0"/>
            <stop offset="1" stop-color="#82AEC0" stop-opacity="0"/>
        </linearGradient>
    </defs>
<rect x="0.00732422" width="312" height="83" rx="7" fill="#CAE4C1"/>
<path d="M41.8713 50.88H40.3033V53H39.6873V47.464H41.7353C42.3273 47.464 42.77 47.6 43.0633 47.872C43.3567 48.1387 43.5033 48.5627 43.5033 49.144C43.5033 50.0027 43.1647 50.5387 42.4873 50.752L43.5513 53H42.8713L41.8713 50.88ZM40.3033 50.336H41.7433C42.4953 50.336 42.8713 49.9467 42.8713 49.168C42.8713 48.3947 42.4927 48.008 41.7353 48.008H40.3033V50.336ZM48.769 50.272C48.769 50.768 48.7317 51.192 48.657 51.544C48.5877 51.896 48.4677 52.1867 48.297 52.416C48.1263 52.6453 47.9023 52.8133 47.625 52.92C47.3477 53.0267 47.001 53.08 46.585 53.08C46.169 53.08 45.8197 53.024 45.537 52.912C45.2597 52.8 45.0357 52.6293 44.865 52.4C44.6943 52.1707 44.5717 51.8773 44.497 51.52C44.4277 51.1627 44.393 50.7413 44.393 50.256C44.393 49.7707 44.4303 49.3493 44.505 48.992C44.5797 48.6293 44.7023 48.3307 44.873 48.096C45.0437 47.856 45.2677 47.6773 45.545 47.56C45.8277 47.4427 46.1717 47.384 46.577 47.384C46.9877 47.384 47.3317 47.4427 47.609 47.56C47.8863 47.672 48.1103 47.848 48.281 48.088C48.457 48.3227 48.5823 48.6213 48.657 48.984C48.7317 49.3467 48.769 49.776 48.769 50.272ZM45.025 50.256C45.025 50.6613 45.049 51.008 45.097 51.296C45.145 51.584 45.2277 51.8213 45.345 52.008C45.4623 52.1893 45.6223 52.3227 45.825 52.408C46.0277 52.4933 46.281 52.536 46.585 52.536C46.889 52.536 47.1397 52.496 47.337 52.416C47.5397 52.3307 47.697 52.1973 47.809 52.016C47.9263 51.8347 48.009 51.6 48.057 51.312C48.105 51.024 48.129 50.6773 48.129 50.272C48.129 49.8613 48.105 49.5093 48.057 49.216C48.009 48.9227 47.9237 48.68 47.801 48.488C47.6837 48.296 47.5237 48.1547 47.321 48.064C47.1237 47.9733 46.8757 47.928 46.577 47.928C46.2783 47.928 46.0277 47.9733 45.825 48.064C45.6277 48.1547 45.4677 48.296 45.345 48.488C45.2277 48.6747 45.145 48.9147 45.097 49.208C45.049 49.5013 45.025 49.8507 45.025 50.256ZM53.2183 52.384L53.2423 52.912C52.6929 53.024 52.1996 53.08 51.7623 53.08C51.3249 53.08 50.9703 53.0213 50.6983 52.904C50.4316 52.7813 50.2263 52.592 50.0823 52.336C49.9329 52.0853 49.8289 51.7973 49.7703 51.472C49.7169 51.1413 49.6903 50.7307 49.6903 50.24C49.6903 49.744 49.7169 49.3307 49.7703 49C49.8289 48.6693 49.9329 48.376 50.0823 48.12C50.2263 47.864 50.4289 47.6773 50.6903 47.56C50.9569 47.4427 51.3063 47.384 51.7383 47.384C51.9516 47.384 52.1836 47.4 52.4343 47.432C52.6849 47.4587 52.9543 47.5013 53.2423 47.56L53.2183 48.08C52.6849 47.984 52.2049 47.936 51.7783 47.936C51.4849 47.936 51.2449 47.9787 51.0583 48.064C50.8716 48.144 50.7223 48.2773 50.6103 48.464C50.5036 48.6453 50.4289 48.8827 50.3863 49.176C50.3489 49.4693 50.3303 49.8267 50.3303 50.248C50.3303 50.6693 50.3463 51.008 50.3783 51.264C50.4156 51.52 50.4849 51.7493 50.5863 51.952C50.6876 52.16 50.8343 52.3093 51.0263 52.4C51.2236 52.4853 51.5116 52.528 51.8903 52.528C52.2636 52.528 52.7063 52.48 53.2183 52.384ZM57.5698 52.384L57.5938 52.912C57.0445 53.024 56.5512 53.08 56.1138 53.08C55.6765 53.08 55.3218 53.0213 55.0498 52.904C54.7832 52.7813 54.5778 52.592 54.4338 52.336C54.2845 52.0853 54.1805 51.7973 54.1218 51.472C54.0685 51.1413 54.0418 50.7307 54.0418 50.24C54.0418 49.744 54.0685 49.3307 54.1218 49C54.1805 48.6693 54.2845 48.376 54.4338 48.12C54.5778 47.864 54.7805 47.6773 55.0418 47.56C55.3085 47.4427 55.6578 47.384 56.0898 47.384C56.3032 47.384 56.5352 47.4 56.7858 47.432C57.0365 47.4587 57.3058 47.5013 57.5938 47.56L57.5698 48.08C57.0365 47.984 56.5565 47.936 56.1298 47.936C55.8365 47.936 55.5965 47.9787 55.4098 48.064C55.2232 48.144 55.0738 48.2773 54.9618 48.464C54.8552 48.6453 54.7805 48.8827 54.7378 49.176C54.7005 49.4693 54.6818 49.8267 54.6818 50.248C54.6818 50.6693 54.6978 51.008 54.7298 51.264C54.7672 51.52 54.8365 51.7493 54.9378 51.952C55.0392 52.16 55.1858 52.3093 55.3778 52.4C55.5752 52.4853 55.8632 52.528 56.2418 52.528C56.6152 52.528 57.0578 52.48 57.5698 52.384ZM59.2174 53H58.6014V47.464H59.2174V53ZM60.6901 53H60.0821L61.6021 47.464H62.9461L64.4661 53H63.8581L63.4581 51.576H61.0901L60.6901 53ZM62.4821 47.992H62.0661L61.2261 51.024H63.3221L62.4821 47.992ZM69.8536 48.544C69.8536 48.7467 69.8162 48.9387 69.7416 49.12C69.6669 49.296 69.5629 49.4533 69.4296 49.592C69.2962 49.7253 69.1416 49.832 68.9656 49.912C68.7896 49.992 68.6002 50.032 68.3976 50.032C68.1949 50.032 68.0056 49.9947 67.8296 49.92C67.6536 49.84 67.4989 49.7333 67.3656 49.6C67.2322 49.4613 67.1282 49.3013 67.0536 49.12C66.9789 48.9387 66.9416 48.7467 66.9416 48.544C66.9416 48.2027 67.0456 47.9013 67.2536 47.64C67.4669 47.3733 67.7496 47.192 68.1016 47.096V46.76H68.7016V47.096C69.0536 47.192 69.3336 47.3733 69.5416 47.64C69.7496 47.9013 69.8536 48.2027 69.8536 48.544ZM69.2616 48.544C69.2616 48.4107 69.2376 48.288 69.1896 48.176C69.1469 48.0587 69.0856 47.9573 69.0056 47.872C68.9309 47.7867 68.8402 47.72 68.7336 47.672C68.6322 47.624 68.5202 47.6 68.3976 47.6C68.2749 47.6 68.1602 47.624 68.0536 47.672C67.9522 47.72 67.8642 47.7867 67.7896 47.872C67.7149 47.9573 67.6536 48.0587 67.6056 48.176C67.5629 48.288 67.5416 48.4107 67.5416 48.544C67.5416 48.6773 67.5629 48.8027 67.6056 48.92C67.6536 49.0373 67.7149 49.1387 67.7896 49.224C67.8642 49.3093 67.9522 49.376 68.0536 49.424C68.1602 49.472 68.2749 49.496 68.3976 49.496C68.5202 49.496 68.6349 49.472 68.7416 49.424C68.8482 49.3707 68.9389 49.3013 69.0136 49.216C69.0936 49.1307 69.1549 49.032 69.1976 48.92C69.2402 48.8027 69.2616 48.6773 69.2616 48.544ZM72.5736 54.056C72.5736 54.2053 72.5202 54.3333 72.4136 54.44C72.3069 54.5467 72.1762 54.6 72.0216 54.6H69.8536C69.7042 54.6 69.5762 54.5467 69.4696 54.44C69.3629 54.3333 69.3096 54.2053 69.3096 54.056V51.744H69.9096V52.48H71.9736V51.84V48.792H71.1016V50.856H70.5176V46.88H71.1016V48.24H71.9736V46.88H72.5736V51.744V54.056ZM71.9736 54.048V53.032H69.9096V54.048H71.9736ZM82.1745 49.064H81.0945V52.72H80.5025V46.88H81.0945V48.504H82.1745V49.064ZM79.2945 50.144L78.7585 50.432L77.6065 48.136L76.4545 50.432L75.9105 50.144L77.6065 46.936L79.2945 50.144ZM85.6496 50.752H86.7056V49.744C86.5403 49.8027 86.3643 49.832 86.1776 49.832C85.991 49.832 85.815 49.8027 85.6496 49.744V50.752ZM89.4576 51.304H82.8976V50.752H85.0496V49.384C84.927 49.2613 84.8283 49.12 84.7536 48.96C84.679 48.7947 84.6416 48.624 84.6416 48.448C84.6416 48.288 84.671 48.136 84.7296 47.992C84.7883 47.848 84.871 47.7173 84.9776 47.6C85.0896 47.4827 85.2203 47.3813 85.3696 47.296C85.5243 47.2053 85.695 47.136 85.8816 47.088V46.76H86.4736V47.088C86.6656 47.136 86.8363 47.2053 86.9856 47.296C87.1403 47.3813 87.271 47.4827 87.3776 47.6C87.4843 47.7173 87.567 47.848 87.6256 47.992C87.6843 48.136 87.7136 48.288 87.7136 48.448C87.7136 48.624 87.6763 48.7947 87.6016 48.96C87.527 49.12 87.4283 49.2613 87.3056 49.384V50.752H89.4576V51.304ZM87.1136 48.448C87.1136 48.32 87.087 48.2053 87.0336 48.104C86.9856 47.9973 86.919 47.9067 86.8336 47.832C86.7483 47.7573 86.6496 47.7013 86.5376 47.664C86.4256 47.6213 86.3056 47.6 86.1776 47.6C86.0603 47.6 85.9456 47.6213 85.8336 47.664C85.7216 47.7013 85.6203 47.7573 85.5296 47.832C85.4443 47.9067 85.375 47.9973 85.3216 48.104C85.2683 48.2053 85.2416 48.32 85.2416 48.448C85.2416 48.576 85.2656 48.6933 85.3136 48.8C85.367 48.9013 85.4363 48.9893 85.5216 49.064C85.6123 49.1387 85.7136 49.1973 85.8256 49.24C85.9376 49.2773 86.055 49.296 86.1776 49.296C86.3056 49.296 86.4256 49.2773 86.5376 49.24C86.6496 49.1973 86.7483 49.1387 86.8336 49.064C86.919 48.9893 86.9856 48.9013 87.0336 48.8C87.087 48.6933 87.1136 48.576 87.1136 48.448ZM87.7136 53.336C87.7136 53.5227 87.671 53.6987 87.5856 53.864C87.5056 54.0347 87.3963 54.1813 87.2576 54.304C87.119 54.432 86.9563 54.5333 86.7696 54.608C86.583 54.6827 86.3856 54.72 86.1776 54.72C85.975 54.72 85.7803 54.6827 85.5936 54.608C85.407 54.5387 85.2416 54.44 85.0976 54.312C84.959 54.1893 84.847 54.0427 84.7616 53.872C84.6816 53.7067 84.6416 53.528 84.6416 53.336C84.6416 53.144 84.6816 52.9653 84.7616 52.8C84.847 52.6293 84.959 52.4827 85.0976 52.36C85.2363 52.232 85.399 52.1333 85.5856 52.064C85.7723 51.9893 85.9696 51.952 86.1776 51.952C86.3856 51.952 86.583 51.9893 86.7696 52.064C86.9563 52.1387 87.119 52.24 87.2576 52.368C87.4016 52.4907 87.5136 52.6373 87.5936 52.808C87.6736 52.9733 87.7136 53.1493 87.7136 53.336ZM87.1136 53.336C87.1136 53.208 87.087 53.0933 87.0336 52.992C86.9856 52.8853 86.919 52.7947 86.8336 52.72C86.7483 52.6453 86.6496 52.5893 86.5376 52.552C86.4256 52.5093 86.3056 52.488 86.1776 52.488C86.0603 52.488 85.9456 52.5093 85.8336 52.552C85.7216 52.5893 85.6203 52.6453 85.5296 52.72C85.4443 52.7947 85.375 52.8853 85.3216 52.992C85.2683 53.0933 85.2416 53.208 85.2416 53.336C85.2416 53.464 85.2683 53.5787 85.3216 53.68C85.375 53.7867 85.4443 53.8773 85.5296 53.952C85.6203 54.0267 85.7216 54.0827 85.8336 54.12C85.9456 54.1627 86.0603 54.184 86.1776 54.184C86.3056 54.184 86.4256 54.1627 86.5376 54.12C86.6496 54.0827 86.7483 54.0267 86.8336 53.952C86.919 53.8773 86.9856 53.7867 87.0336 53.68C87.087 53.5787 87.1136 53.464 87.1136 53.336ZM95.7008 54.056C95.7008 54.2053 95.6474 54.3333 95.5408 54.44C95.4341 54.5467 95.3034 54.6 95.1488 54.6H92.9728C92.8234 54.6 92.6928 54.5467 92.5808 54.44C92.4688 54.3333 92.4128 54.2053 92.4128 54.056V51.744H93.0208V52.48H95.1008V51.84V48.792H93.6048V49.48C93.6048 49.6293 93.5514 49.7573 93.4448 49.864C93.3381 49.9707 93.2074 50.024 93.0528 50.024H91.2928C91.1434 50.024 91.0128 49.9707 90.9008 49.864C90.7941 49.7573 90.7408 49.6293 90.7408 49.48V47H91.3408V47.824H93.0048V47H93.6048V48.24H95.1008V46.88H95.7008V51.744V54.056ZM93.0048 49.472V48.376H91.3408V49.472H93.0048ZM95.1008 54.048V53.032H93.0048V54.048H95.1008ZM105.622 51.88H99.0617V51.32H102.046V49.992H101.262C101.112 49.992 100.984 49.9387 100.878 49.832C100.771 49.72 100.718 49.5893 100.718 49.44V47H101.318V47.8H103.366V47H103.966V49.44C103.966 49.5893 103.912 49.72 103.806 49.832C103.699 49.9387 103.571 49.992 103.422 49.992H102.638V51.32H105.622V51.88ZM103.366 49.432V48.36H101.318V49.432H103.366ZM109.857 50.56H107.465C107.315 50.56 107.185 50.5067 107.073 50.4C106.961 50.288 106.905 50.1573 106.905 50.008V48.528H109.161V47.576H106.905V47.048H109.777V48.464H111.249V46.88H111.865V52.72H111.249V49.04H109.777H107.521V50.032H109.857V50.56ZM119.948 49.056H118.868V52.72H118.268V46.88H118.868V48.504H119.948V49.056ZM117.188 47.4L114.804 50.808L114.332 50.488L116.348 47.608H114.188V47.048H116.708L117.188 47.4ZM126.191 52.72H125.591V46.88H126.191V52.72ZM124.335 47.4L121.935 50.808L121.455 50.488L123.487 47.608H121.311V47.048H123.847L124.335 47.4Z" fill="black"/>
<path d="M43.3033 31.82H40.9513V35H40.0273V26.696H43.0993C43.9873 26.696 44.6513 26.9 45.0913 27.308C45.5313 27.708 45.7513 28.344 45.7513 29.216C45.7513 30.504 45.2433 31.308 44.2273 31.628L45.8233 35H44.8033L43.3033 31.82ZM40.9513 31.004H43.1113C44.2393 31.004 44.8033 30.42 44.8033 29.252C44.8033 28.092 44.2353 27.512 43.0993 27.512H40.9513V31.004ZM53.6499 30.908C53.6499 31.652 53.5939 32.288 53.4819 32.816C53.3779 33.344 53.1979 33.78 52.9419 34.124C52.6859 34.468 52.3499 34.72 51.9339 34.88C51.5179 35.04 50.9979 35.12 50.3739 35.12C49.7499 35.12 49.2259 35.036 48.8019 34.868C48.3859 34.7 48.0499 34.444 47.7939 34.1C47.5379 33.756 47.3539 33.316 47.2419 32.78C47.1379 32.244 47.0859 31.612 47.0859 30.884C47.0859 30.156 47.1419 29.524 47.2539 28.988C47.3659 28.444 47.5499 27.996 47.8059 27.644C48.0619 27.284 48.3979 27.016 48.8139 26.84C49.2379 26.664 49.7539 26.576 50.3619 26.576C50.9779 26.576 51.4939 26.664 51.9099 26.84C52.3259 27.008 52.6619 27.272 52.9179 27.632C53.1819 27.984 53.3699 28.432 53.4819 28.976C53.5939 29.52 53.6499 30.164 53.6499 30.908ZM48.0339 30.884C48.0339 31.492 48.0699 32.012 48.1419 32.444C48.2139 32.876 48.3379 33.232 48.5139 33.512C48.6899 33.784 48.9299 33.984 49.2339 34.112C49.5379 34.24 49.9179 34.304 50.3739 34.304C50.8299 34.304 51.2059 34.244 51.5019 34.124C51.8059 33.996 52.0419 33.796 52.2099 33.524C52.3859 33.252 52.5099 32.9 52.5819 32.468C52.6539 32.036 52.6899 31.516 52.6899 30.908C52.6899 30.292 52.6539 29.764 52.5819 29.324C52.5099 28.884 52.3819 28.52 52.1979 28.232C52.0219 27.944 51.7819 27.732 51.4779 27.596C51.1819 27.46 50.8099 27.392 50.3619 27.392C49.9139 27.392 49.5379 27.46 49.2339 27.596C48.9379 27.732 48.6979 27.944 48.5139 28.232C48.3379 28.512 48.2139 28.872 48.1419 29.312C48.0699 29.752 48.0339 30.276 48.0339 30.884ZM60.3237 34.076L60.3597 34.868C59.5357 35.036 58.7957 35.12 58.1397 35.12C57.4837 35.12 56.9517 35.032 56.5437 34.856C56.1437 34.672 55.8357 34.388 55.6197 34.004C55.3957 33.628 55.2397 33.196 55.1517 32.708C55.0717 32.212 55.0317 31.596 55.0317 30.86C55.0317 30.116 55.0717 29.496 55.1517 29C55.2397 28.504 55.3957 28.064 55.6197 27.68C55.8357 27.296 56.1397 27.016 56.5317 26.84C56.9317 26.664 57.4557 26.576 58.1037 26.576C58.4237 26.576 58.7717 26.6 59.1477 26.648C59.5237 26.688 59.9277 26.752 60.3597 26.84L60.3237 27.62C59.5237 27.476 58.8037 27.404 58.1637 27.404C57.7237 27.404 57.3637 27.468 57.0837 27.596C56.8037 27.716 56.5797 27.916 56.4117 28.196C56.2517 28.468 56.1397 28.824 56.0757 29.264C56.0197 29.704 55.9917 30.24 55.9917 30.872C55.9917 31.504 56.0157 32.012 56.0637 32.396C56.1197 32.78 56.2237 33.124 56.3757 33.428C56.5277 33.74 56.7477 33.964 57.0357 34.1C57.3317 34.228 57.7637 34.292 58.3317 34.292C58.8917 34.292 59.5557 34.22 60.3237 34.076ZM66.8511 34.076L66.8871 34.868C66.0631 35.036 65.3231 35.12 64.6671 35.12C64.0111 35.12 63.4791 35.032 63.0711 34.856C62.6711 34.672 62.3631 34.388 62.1471 34.004C61.9231 33.628 61.7671 33.196 61.6791 32.708C61.5991 32.212 61.5591 31.596 61.5591 30.86C61.5591 30.116 61.5991 29.496 61.6791 29C61.7671 28.504 61.9231 28.064 62.1471 27.68C62.3631 27.296 62.6671 27.016 63.0591 26.84C63.4591 26.664 63.9831 26.576 64.6311 26.576C64.9511 26.576 65.2991 26.6 65.6751 26.648C66.0511 26.688 66.4551 26.752 66.8871 26.84L66.8511 27.62C66.0511 27.476 65.3311 27.404 64.6911 27.404C64.2511 27.404 63.8911 27.468 63.6111 27.596C63.3311 27.716 63.1071 27.916 62.9391 28.196C62.7791 28.468 62.6671 28.824 62.6031 29.264C62.5471 29.704 62.5191 30.24 62.5191 30.872C62.5191 31.504 62.5431 32.012 62.5911 32.396C62.6471 32.78 62.7511 33.124 62.9031 33.428C63.0551 33.74 63.2751 33.964 63.5631 34.1C63.8591 34.228 64.2911 34.292 64.8591 34.292C65.4191 34.292 66.0831 34.22 66.8511 34.076ZM69.3224 35H68.3984V26.696H69.3224V35ZM71.5315 35H70.6195L72.8995 26.696H74.9155L77.1955 35H76.2835L75.6835 32.864H72.1315L71.5315 35ZM74.2195 27.488H73.5955L72.3355 32.036H75.4795L74.2195 27.488ZM85.2767 28.316C85.2767 28.62 85.2207 28.908 85.1087 29.18C84.9967 29.444 84.8407 29.68 84.6407 29.888C84.4407 30.088 84.2087 30.248 83.9447 30.368C83.6807 30.488 83.3967 30.548 83.0927 30.548C82.7887 30.548 82.5047 30.492 82.2407 30.38C81.9767 30.26 81.7447 30.1 81.5447 29.9C81.3447 29.692 81.1887 29.452 81.0767 29.18C80.9647 28.908 80.9087 28.62 80.9087 28.316C80.9087 27.804 81.0647 27.352 81.3767 26.96C81.6967 26.56 82.1207 26.288 82.6487 26.144V25.64H83.5487V26.144C84.0767 26.288 84.4967 26.56 84.8087 26.96C85.1207 27.352 85.2767 27.804 85.2767 28.316ZM84.3887 28.316C84.3887 28.116 84.3527 27.932 84.2807 27.764C84.2167 27.588 84.1247 27.436 84.0047 27.308C83.8927 27.18 83.7567 27.08 83.5967 27.008C83.4447 26.936 83.2767 26.9 83.0927 26.9C82.9087 26.9 82.7367 26.936 82.5767 27.008C82.4247 27.08 82.2927 27.18 82.1807 27.308C82.0687 27.436 81.9767 27.588 81.9047 27.764C81.8407 27.932 81.8087 28.116 81.8087 28.316C81.8087 28.516 81.8407 28.704 81.9047 28.88C81.9767 29.056 82.0687 29.208 82.1807 29.336C82.2927 29.464 82.4247 29.564 82.5767 29.636C82.7367 29.708 82.9087 29.744 83.0927 29.744C83.2767 29.744 83.4487 29.708 83.6087 29.636C83.7687 29.556 83.9047 29.452 84.0167 29.324C84.1367 29.196 84.2287 29.048 84.2927 28.88C84.3567 28.704 84.3887 28.516 84.3887 28.316ZM89.3567 36.584C89.3567 36.808 89.2767 37 89.1167 37.16C88.9567 37.32 88.7607 37.4 88.5287 37.4H85.2767C85.0527 37.4 84.8607 37.32 84.7007 37.16C84.5407 37 84.4607 36.808 84.4607 36.584V33.116H85.3607V34.22H88.4567V33.26V28.688H87.1487V31.784H86.2727V25.82H87.1487V27.86H88.4567V25.82H89.3567V33.116V36.584ZM88.4567 36.572V35.048H85.3607V36.572H88.4567ZM103.758 29.096H102.138V34.58H101.25V25.82H102.138V28.256H103.758V29.096ZM99.4381 30.716L98.6341 31.148L96.9061 27.704L95.1781 31.148L94.3621 30.716L96.9061 25.904L99.4381 30.716ZM108.971 31.628H110.555V30.116C110.307 30.204 110.043 30.248 109.763 30.248C109.483 30.248 109.219 30.204 108.971 30.116V31.628ZM114.683 32.456H104.843V31.628H108.071V29.576C107.887 29.392 107.739 29.18 107.627 28.94C107.515 28.692 107.459 28.436 107.459 28.172C107.459 27.932 107.503 27.704 107.591 27.488C107.679 27.272 107.803 27.076 107.963 26.9C108.131 26.724 108.327 26.572 108.551 26.444C108.783 26.308 109.039 26.204 109.319 26.132V25.64H110.207V26.132C110.495 26.204 110.751 26.308 110.975 26.444C111.207 26.572 111.403 26.724 111.563 26.9C111.723 27.076 111.847 27.272 111.935 27.488C112.023 27.704 112.067 27.932 112.067 28.172C112.067 28.436 112.011 28.692 111.899 28.94C111.787 29.18 111.639 29.392 111.455 29.576V31.628H114.683V32.456ZM111.167 28.172C111.167 27.98 111.127 27.808 111.047 27.656C110.975 27.496 110.875 27.36 110.747 27.248C110.619 27.136 110.471 27.052 110.303 26.996C110.135 26.932 109.955 26.9 109.763 26.9C109.587 26.9 109.415 26.932 109.247 26.996C109.079 27.052 108.927 27.136 108.791 27.248C108.663 27.36 108.559 27.496 108.479 27.656C108.399 27.808 108.359 27.98 108.359 28.172C108.359 28.364 108.395 28.54 108.467 28.7C108.547 28.852 108.651 28.984 108.779 29.096C108.915 29.208 109.067 29.296 109.235 29.36C109.403 29.416 109.579 29.444 109.763 29.444C109.955 29.444 110.135 29.416 110.303 29.36C110.471 29.296 110.619 29.208 110.747 29.096C110.875 28.984 110.975 28.852 111.047 28.7C111.127 28.54 111.167 28.364 111.167 28.172ZM112.067 35.504C112.067 35.784 112.003 36.048 111.875 36.296C111.755 36.552 111.591 36.772 111.383 36.956C111.175 37.148 110.931 37.3 110.651 37.412C110.371 37.524 110.075 37.58 109.763 37.58C109.459 37.58 109.167 37.524 108.887 37.412C108.607 37.308 108.359 37.16 108.143 36.968C107.935 36.784 107.767 36.564 107.639 36.308C107.519 36.06 107.459 35.792 107.459 35.504C107.459 35.216 107.519 34.948 107.639 34.7C107.767 34.444 107.935 34.224 108.143 34.04C108.351 33.848 108.595 33.7 108.875 33.596C109.155 33.484 109.451 33.428 109.763 33.428C110.075 33.428 110.371 33.484 110.651 33.596C110.931 33.708 111.175 33.86 111.383 34.052C111.599 34.236 111.767 34.456 111.887 34.712C112.007 34.96 112.067 35.224 112.067 35.504ZM111.167 35.504C111.167 35.312 111.127 35.14 111.047 34.988C110.975 34.828 110.875 34.692 110.747 34.58C110.619 34.468 110.471 34.384 110.303 34.328C110.135 34.264 109.955 34.232 109.763 34.232C109.587 34.232 109.415 34.264 109.247 34.328C109.079 34.384 108.927 34.468 108.791 34.58C108.663 34.692 108.559 34.828 108.479 34.988C108.399 35.14 108.359 35.312 108.359 35.504C108.359 35.696 108.399 35.868 108.479 36.02C108.559 36.18 108.663 36.316 108.791 36.428C108.927 36.54 109.079 36.624 109.247 36.68C109.415 36.744 109.587 36.776 109.763 36.776C109.955 36.776 110.135 36.744 110.303 36.68C110.471 36.624 110.619 36.54 110.747 36.428C110.875 36.316 110.975 36.18 111.047 36.02C111.127 35.868 111.167 35.696 111.167 35.504ZM124.047 36.584C124.047 36.808 123.967 37 123.807 37.16C123.647 37.32 123.451 37.4 123.219 37.4H119.955C119.731 37.4 119.535 37.32 119.367 37.16C119.199 37 119.115 36.808 119.115 36.584V33.116H120.027V34.22H123.147V33.26V28.688H120.903V29.72C120.903 29.944 120.823 30.136 120.663 30.296C120.503 30.456 120.307 30.536 120.075 30.536H117.435C117.211 30.536 117.015 30.456 116.847 30.296C116.687 30.136 116.607 29.944 116.607 29.72V26H117.507V27.236H120.003V26H120.903V27.86H123.147V25.82H124.047V33.116V36.584ZM120.003 29.708V28.064H117.507V29.708H120.003ZM123.147 36.572V35.048H120.003V36.572H123.147ZM134.852 34.58H133.952V25.82H134.852V34.58ZM131.912 28.568C131.912 28.88 131.848 29.18 131.72 29.468C131.6 29.748 131.432 29.996 131.216 30.212C131.008 30.42 130.76 30.588 130.472 30.716C130.192 30.844 129.892 30.908 129.572 30.908C129.252 30.908 128.948 30.848 128.66 30.728C128.38 30.6 128.132 30.428 127.916 30.212C127.7 29.996 127.528 29.748 127.4 29.468C127.28 29.18 127.22 28.88 127.22 28.568C127.22 28.016 127.392 27.532 127.736 27.116C128.08 26.7 128.54 26.416 129.116 26.264V25.76H130.016V26.264C130.592 26.416 131.052 26.7 131.396 27.116C131.74 27.532 131.912 28.016 131.912 28.568ZM131.012 28.568C131.012 28.352 130.972 28.152 130.892 27.968C130.82 27.784 130.716 27.624 130.58 27.488C130.452 27.344 130.3 27.232 130.124 27.152C129.956 27.072 129.772 27.032 129.572 27.032C129.364 27.032 129.172 27.072 128.996 27.152C128.82 27.232 128.668 27.34 128.54 27.476C128.412 27.612 128.308 27.776 128.228 27.968C128.156 28.152 128.12 28.352 128.12 28.568C128.12 28.776 128.156 28.976 128.228 29.168C128.3 29.352 128.4 29.516 128.528 29.66C128.664 29.796 128.82 29.904 128.996 29.984C129.172 30.064 129.364 30.104 129.572 30.104C129.772 30.104 129.96 30.064 130.136 29.984C130.312 29.904 130.464 29.796 130.592 29.66C130.72 29.516 130.82 29.352 130.892 29.168C130.972 28.976 131.012 28.776 131.012 28.568ZM147.118 35.504C147.118 35.784 147.054 36.048 146.926 36.296C146.806 36.552 146.642 36.772 146.434 36.956C146.226 37.148 145.982 37.3 145.702 37.412C145.422 37.524 145.126 37.58 144.814 37.58C144.51 37.58 144.218 37.524 143.938 37.412C143.658 37.308 143.41 37.16 143.194 36.968C142.986 36.784 142.818 36.564 142.69 36.308C142.57 36.06 142.51 35.792 142.51 35.504C142.51 35.256 142.558 35.02 142.654 34.796C142.75 34.564 142.882 34.36 143.05 34.184C143.218 34 143.414 33.848 143.638 33.728C143.87 33.6 144.114 33.512 144.37 33.464V30.968H139.894V30.14H146.35V26.888H142.258V26.06H147.25V30.14H149.734V30.968H145.258V33.464C145.522 33.512 145.766 33.6 145.99 33.728C146.222 33.856 146.418 34.012 146.578 34.196C146.746 34.372 146.878 34.576 146.974 34.808C147.07 35.032 147.118 35.264 147.118 35.504ZM146.218 35.504C146.218 35.312 146.178 35.14 146.098 34.988C146.026 34.828 145.926 34.692 145.798 34.58C145.67 34.468 145.522 34.384 145.354 34.328C145.186 34.264 145.006 34.232 144.814 34.232C144.638 34.232 144.466 34.264 144.298 34.328C144.13 34.384 143.978 34.468 143.842 34.58C143.714 34.692 143.61 34.828 143.53 34.988C143.45 35.14 143.41 35.312 143.41 35.504C143.41 35.696 143.45 35.868 143.53 36.02C143.61 36.18 143.714 36.316 143.842 36.428C143.978 36.54 144.13 36.624 144.298 36.68C144.466 36.744 144.638 36.776 144.814 36.776C145.006 36.776 145.186 36.744 145.354 36.68C145.522 36.624 145.67 36.54 145.798 36.428C145.926 36.316 146.026 36.18 146.098 36.02C146.178 35.868 146.218 35.696 146.218 35.504ZM160.538 31.22H150.698V30.392H157.154V26.888H153.062V26.06H158.054V30.392H160.538V31.22ZM158.054 36.524C158.054 36.748 157.974 36.94 157.814 37.1C157.654 37.26 157.462 37.34 157.238 37.34H153.998C153.774 37.34 153.582 37.26 153.422 37.1C153.262 36.94 153.182 36.748 153.182 36.524V33.356H158.054V36.524ZM157.154 36.512V34.184H154.082V36.512H157.154ZM171.223 29.096H169.603V34.58H168.703V25.832H169.603V28.256H171.223V29.096ZM166.471 28.844C166.471 29.132 166.415 29.404 166.303 29.66C166.191 29.916 166.039 30.14 165.847 30.332C165.655 30.524 165.431 30.676 165.175 30.788C164.919 30.9 164.647 30.956 164.359 30.956C164.071 30.956 163.799 30.9 163.543 30.788C163.295 30.676 163.075 30.524 162.883 30.332C162.691 30.14 162.539 29.916 162.427 29.66C162.315 29.404 162.259 29.132 162.259 28.844C162.259 28.564 162.307 28.304 162.403 28.064C162.507 27.816 162.647 27.6 162.823 27.416H161.863V26.576H163.915V25.58H164.815V26.576H166.867V27.416H165.907C166.083 27.6 166.219 27.816 166.315 28.064C166.419 28.304 166.471 28.564 166.471 28.844ZM165.571 28.844C165.571 28.476 165.455 28.168 165.223 27.92C164.991 27.672 164.703 27.548 164.359 27.548C164.191 27.548 164.031 27.584 163.879 27.656C163.735 27.72 163.607 27.812 163.495 27.932C163.391 28.044 163.307 28.18 163.243 28.34C163.187 28.492 163.159 28.66 163.159 28.844C163.159 29.028 163.187 29.2 163.243 29.36C163.307 29.512 163.391 29.648 163.495 29.768C163.607 29.88 163.735 29.972 163.879 30.044C164.031 30.108 164.191 30.14 164.359 30.14C164.703 30.14 164.991 30.016 165.223 29.768C165.455 29.52 165.571 29.212 165.571 28.844ZM182.028 29.084H180.408V34.58H179.508V25.82H180.408V28.256H182.028V29.084ZM177.288 31.088H173.856C173.632 31.088 173.436 31.008 173.268 30.848C173.108 30.68 173.028 30.484 173.028 30.26V26.072H177.168V26.9H173.928V30.248H177.288V31.088ZM188.368 27.632V28.916H190.6V27.632H188.368ZM188.368 29.744C188.36 29.96 188.276 30.148 188.116 30.308C187.956 30.46 187.764 30.536 187.54 30.536H184.9C184.676 30.536 184.48 30.456 184.312 30.296C184.152 30.136 184.072 29.944 184.072 29.72V26.072H188.368V26.804H190.6V25.82H191.512V33.26H190.6V29.744H188.368ZM187.468 29.708V26.9H184.972V29.708H187.468ZM191.632 37.34H187.408C187.184 37.34 186.988 37.26 186.82 37.1C186.66 36.94 186.58 36.748 186.58 36.524V33.608H187.492V36.512H191.632V37.34ZM196.221 34.988H195.237V33.644H196.221V34.988ZM198.309 28.496C198.309 28.76 198.293 28.984 198.261 29.168C198.229 29.352 198.173 29.524 198.093 29.684C198.021 29.836 197.917 29.984 197.781 30.128C197.645 30.272 197.469 30.432 197.253 30.608C197.037 30.784 196.857 30.944 196.713 31.088C196.569 31.224 196.453 31.352 196.365 31.472C196.277 31.584 196.213 31.696 196.173 31.808C196.141 31.92 196.125 32.04 196.125 32.168V32.588H195.369C195.265 32.38 195.213 32.136 195.213 31.856C195.213 31.584 195.305 31.332 195.489 31.1C195.673 30.86 195.969 30.564 196.377 30.212C196.585 30.036 196.753 29.884 196.881 29.756C197.009 29.62 197.113 29.492 197.193 29.372C197.273 29.244 197.325 29.112 197.349 28.976C197.381 28.84 197.397 28.68 197.397 28.496C197.397 28.12 197.269 27.844 197.013 27.668C196.757 27.484 196.353 27.392 195.801 27.392C195.457 27.392 194.941 27.464 194.253 27.608L193.941 27.668L193.881 26.936C194.689 26.696 195.357 26.576 195.885 26.576C196.709 26.576 197.317 26.728 197.709 27.032C198.109 27.328 198.309 27.816 198.309 28.496Z" fill="black"/>
<path d="M249.225 53.8958L267.562 55.6407C269.288 55.8069 269.729 54.8438 269.729 54.028L269.711 53.0385L247.159 49.8584C247.159 50.9877 248.077 53.8958 249.225 53.8958Z" fill="#699635"/>
<path d="M249.894 53.035L252.779 53.288L268.23 54.7799C269.061 54.7799 269.729 54.1189 269.729 53.3031L268.91 28.278C268.91 27.4622 268.238 26.8012 267.41 26.8012L249.894 25.147C248.745 25.147 247.812 26.0647 247.812 27.194V50.9879C247.812 52.1172 248.742 53.035 249.894 53.035Z" fill="#83BF4F"/>
<path d="M244.512 53.8961L226.175 55.6409C224.449 55.8071 224.007 54.844 224.007 54.0282L224.026 53.0387L246.578 49.8549C246.578 50.9879 245.66 53.8961 244.512 53.8961Z" fill="#699635"/>
<path d="M243.843 53.0351L240.98 53.2882L225.507 54.7838C224.676 54.7838 224.007 54.1228 224.007 53.307L224.827 28.2819C224.827 27.4661 225.499 26.8051 226.326 26.8051L243.843 25.1509C244.991 25.1509 245.924 26.0686 245.924 27.1979V50.9918C245.924 52.1173 244.995 53.0351 243.843 53.0351Z" fill="#83BF4F"/>
<path d="M252.439 47.4342H241.305L240.965 53.2996L244.44 53.6244C244.44 53.6244 245.184 55.4826 246.868 55.4826C248.553 55.4826 249.297 53.6244 249.297 53.6244L252.772 53.2996L252.439 47.4342Z" fill="#424242"/>
<path d="M252.738 53.7601L249.501 53.4806M241 53.7601L244.236 53.4806" stroke="#616161" stroke-width="0.527344" stroke-miterlimit="10"/>
<path d="M267.887 28.2248L266.376 26.1476L246.869 48.3175L227.361 26.1476L225.851 28.2248L225.639 52.9063C225.639 52.9063 229.65 53.4086 235.009 52.8648C239.678 52.3927 241.876 51.1841 243.436 51.4976C245.309 51.8752 245.649 53.0272 245.709 53.2236C245.879 53.7674 246.215 54.1904 246.869 54.1904C247.522 54.1904 247.813 53.9638 248.013 53.2916C248.073 53.0952 248.428 51.879 250.302 51.5013C251.862 51.1879 254.06 52.3964 258.728 52.8686C264.087 53.4124 268.098 52.9101 268.098 52.9101L267.887 28.2248Z" fill="#94C6D6"/>
<path d="M265.866 50.5272L265.926 40.5602H267.992L268.098 52.9066C268.098 52.9066 266.455 52.2683 265.866 50.5272Z" fill="url(#paint0_linear_152_1659)"/>
<path d="M265.96 44.7181L265.866 50.5307C265.866 50.5307 261.349 50.2965 254.154 49.0501C249.448 48.2344 246.869 50.8479 246.869 50.8479L246.827 44.7181H265.96Z" fill="url(#paint1_linear_152_1659)"/>
<path d="M227.777 44.7181L227.871 50.5307C227.871 50.5307 232.388 50.2965 239.583 49.0501C244.289 48.2344 246.869 50.8479 246.869 50.8479L246.827 44.7181H227.777Z" fill="url(#paint2_linear_152_1659)"/>
<path d="M227.871 50.5272L227.811 40.5602H225.741L225.639 52.9066C225.639 52.9066 227.278 52.2683 227.871 50.5272Z" fill="url(#paint3_linear_152_1659)"/>
<path d="M266.376 26.1477C266.376 26.1477 256.352 24.2631 251.952 24.0176C247.813 23.7872 246.963 25.8946 246.88 26.1477H246.865C246.778 25.8946 245.928 23.791 241.789 24.0176C237.389 24.2631 227.365 26.1477 227.365 26.1477L226.919 50.4704C226.919 50.4704 238.854 47.9701 241.743 48.2949C244.633 48.6197 246.869 50.8481 246.869 50.8481C246.869 50.8481 249.108 48.6197 251.997 48.2949C254.887 47.9701 266.821 50.4704 266.821 50.4704L266.376 26.1477Z" fill="#F5F5F5"/>
<path opacity="0.26" d="M242.948 24.0215L240.909 48.2686C241.23 48.2611 241.513 48.2686 241.74 48.2951C244.625 48.6161 246.869 50.8482 246.869 50.8482L246.804 26.1478C246.804 26.1478 246.313 24.2141 242.948 24.0215Z" fill="#94C6D6"/>
<path opacity="0.5" d="M232.256 27.2281C231.236 27.4056 230.401 27.5567 229.926 27.6398C229.926 27.874 229.926 28.1308 229.922 28.4065C230.341 28.3309 231.195 28.1761 232.256 27.991V27.2281ZM241.449 26.012V26.7636C243.462 26.7598 244.576 27.2659 244.942 27.4698C244.942 27.1564 244.946 26.8769 244.946 26.6314C244.323 26.3519 243.182 26.0082 241.449 26.012ZM239.809 26.1064C238.174 26.2726 235.897 26.6201 233.895 26.9524V27.7191C235.882 27.3905 238.163 27.0393 239.809 26.8655V26.1064ZM235.787 29.3658C233.347 29.7435 230.9 30.1816 229.918 30.3591V31.1258C230.772 30.9709 233.276 30.5177 235.787 30.1287V29.3658ZM240.331 28.7766C239.534 28.8408 238.518 28.9692 237.426 29.1203V29.8832C238.54 29.7246 239.583 29.5962 240.391 29.5282C243.103 29.3054 244.534 29.9701 244.935 30.1967V29.3545C244.194 29.0259 242.71 28.5802 240.331 28.7766ZM232.66 32.595C231.466 32.7989 230.469 32.9764 229.918 33.0784V33.8451C230.413 33.7545 231.425 33.5732 232.66 33.3617V32.595ZM244.935 32.0851C244.198 31.7527 242.71 31.2995 240.308 31.4997C238.771 31.6243 236.418 31.9756 234.299 32.323V33.0897C236.437 32.7385 238.824 32.3835 240.372 32.2551C243.129 32.0285 244.564 32.7196 244.935 32.9349V32.0851ZM244.938 34.8157C244.209 34.4834 242.714 34.0188 240.293 34.219C240.047 34.2379 239.783 34.2643 239.504 34.2945V35.0537C239.809 35.0197 240.093 34.9932 240.357 34.9706C243.167 34.7402 244.602 35.4616 244.942 35.6655C244.938 35.3823 244.938 35.099 244.938 34.8157ZM237.861 34.4985C234.907 34.9026 231.229 35.556 229.922 35.7939V36.5606C231.074 36.3491 234.839 35.6731 237.861 35.2576V34.4985ZM233.366 37.9127C231.882 38.162 230.598 38.3924 229.922 38.5132V39.2799C230.534 39.1666 231.837 38.9325 233.366 38.6756V37.9127ZM244.942 37.5502C244.221 37.2178 242.718 36.7419 240.274 36.9421C238.914 37.0554 236.92 37.3387 235.009 37.6446V38.4075C236.939 38.0978 238.967 37.807 240.334 37.6937C243.216 37.4557 244.655 38.2262 244.942 38.3999V37.5502ZM244.95 43.0152C244.262 42.6866 242.774 42.1919 240.319 42.3769V43.1361C243.45 42.883 244.87 43.8197 244.95 43.8763V43.0152ZM232.66 43.4684C231.497 43.6686 230.507 43.8423 229.929 43.9481V44.7148C230.462 44.6166 231.459 44.4391 232.66 44.2313V43.4684ZM234.299 43.1965V43.9632C235.764 43.7252 237.339 43.4835 238.68 43.3136V42.5507C237.347 42.7168 235.772 42.9548 234.299 43.1965ZM236.924 45.5079C234.22 45.9007 231.179 46.4408 229.933 46.6674V47.4341C231.062 47.2264 234.159 46.6749 236.924 46.2708V45.5079ZM244.953 45.7496C244.27 45.4173 242.748 44.8998 240.21 45.1076C239.73 45.1453 239.171 45.2095 238.563 45.2851V46.0442C239.194 45.9649 239.775 45.9007 240.27 45.8591C243.503 45.591 244.923 46.5956 244.938 46.6032L244.957 46.5805C244.957 46.3199 244.957 46.0442 244.953 45.7496ZM236.361 40.1524C233.785 40.5376 231.055 41.0248 229.926 41.2325V41.9992C230.938 41.8142 233.721 41.3156 236.361 40.9153V40.1524ZM244.946 40.2808C244.236 39.9484 242.729 39.4574 240.251 39.6614C239.617 39.7143 238.843 39.8049 238.004 39.9182V40.6811C238.869 40.5641 239.666 40.4696 240.316 40.4168C243.292 40.1713 244.731 40.9984 244.95 41.1381C244.946 40.8586 244.946 40.5716 244.946 40.2808ZM256.088 27.0506C259.215 27.4661 263.301 28.2063 264.412 28.4065C264.412 28.127 264.412 27.874 264.408 27.6398C263.109 27.4019 259.132 26.6918 256.084 26.2877V27.0506H256.088ZM254.445 26.0989C254.282 26.0837 254.127 26.0686 253.98 26.0573C251.612 25.8609 250.131 26.3028 249.387 26.6314C249.387 26.8769 249.391 27.1601 249.391 27.4698C249.814 27.2357 251.246 26.5898 253.92 26.8089C254.086 26.824 254.263 26.8391 254.445 26.858V26.0989ZM261.356 30.5895C262.377 30.7633 263.397 30.9433 264.415 31.1296V30.3629C263.822 30.2533 262.697 30.0532 261.356 29.8266V30.5895ZM259.717 29.5509C257.674 29.2223 255.468 28.8975 254.003 28.7766C251.623 28.5802 250.139 29.0259 249.395 29.3545V30.1967C249.795 29.9701 251.227 29.3054 253.939 29.5282C255.415 29.6491 257.655 29.9814 259.713 30.3138V29.5509H259.717ZM259.4 32.2173V32.9802C261.594 33.3315 263.637 33.7016 264.415 33.8451V33.0784C263.535 32.9198 261.53 32.561 259.4 32.2173ZM256.084 34.4494C255.325 34.3512 254.622 34.2681 254.04 34.2228C251.62 34.0226 250.124 34.4872 249.395 34.8195V35.6693C249.735 35.4691 251.174 34.744 253.98 34.9744C254.577 35.0235 255.302 35.1066 256.084 35.2123V34.4494ZM257.727 34.6798V35.4427C260.465 35.8506 263.415 36.3831 264.412 36.5644V35.7977C263.286 35.59 260.397 35.0763 257.727 34.6798ZM258.059 37.4482C256.567 37.2216 255.121 37.029 254.063 36.9421C251.616 36.7419 250.113 37.2178 249.395 37.5502V38.4037C249.682 38.2262 251.121 37.4595 254.003 37.6975C255.072 37.7843 256.548 37.9845 258.063 38.2149V37.4482H258.059ZM259.698 37.705V38.4717C261.753 38.8041 263.634 39.144 264.408 39.2837V38.517C263.547 38.3584 261.696 38.026 259.698 37.705ZM262.368 40.87V41.6367C263.26 41.7915 263.989 41.9237 264.404 41.9992V41.2325C263.951 41.1495 263.233 41.021 262.368 40.87ZM256.42 42.6489C255.555 42.5318 254.754 42.4374 254.105 42.3845C251.597 42.1768 250.082 42.6828 249.387 43.0152V43.8763C249.467 43.8197 250.894 42.8755 254.048 43.1361C254.713 43.1889 255.536 43.2871 256.427 43.408V42.6489H256.42ZM258.059 42.883V43.6459C260.657 44.0387 263.384 44.5297 264.404 44.7148V43.9481C263.271 43.7441 260.597 43.2683 258.059 42.883ZM259.4 45.81C257.485 45.5041 255.483 45.2171 254.124 45.1038C251.582 44.8961 250.064 45.4173 249.38 45.7458V46.5767L249.399 46.5994C249.41 46.5919 250.83 45.5872 254.067 45.8554C255.438 45.9687 257.474 46.2633 259.407 46.573V45.81H259.4ZM261.043 46.082V46.8487C262.512 47.0942 263.766 47.3208 264.4 47.4379V46.6712C263.709 46.5428 262.47 46.3199 261.043 46.082ZM254.018 39.6576C251.578 39.465 250.09 39.9522 249.387 40.2808V41.1381C249.607 40.9984 251.042 40.1713 254.018 40.4168V39.6576ZM255.661 39.8314V40.5905C257.217 40.7869 259.086 41.0815 260.729 41.3534V40.5867C259.075 40.3148 257.205 40.024 255.661 39.8314ZM252.805 31.4544C251.113 31.4657 249.999 31.8132 249.399 32.0851V32.9311C249.716 32.7498 250.8 32.2248 252.805 32.206V31.4544ZM254.445 31.5375V32.2966C255.385 32.391 256.552 32.5497 257.757 32.7272V31.9642C256.548 31.783 255.385 31.6281 254.445 31.5375Z" fill="#757575"/>
<path d="M249.573 53.0127C249.15 52.9749 248.761 53.2355 248.625 53.6396C248.421 54.2552 247.945 55.0597 246.868 55.0597C245.781 55.0597 245.301 54.2515 245.093 53.6358C245.029 53.4429 244.901 53.2771 244.732 53.1649C244.562 53.0527 244.359 53.0004 244.157 53.0164L244.009 53.0278L244.013 53.1486C244.013 53.9049 244.313 54.6302 244.848 55.1649C245.383 55.6997 246.108 56.0001 246.865 56.0001C247.621 56.0001 248.346 55.6997 248.881 55.1649C249.416 54.6302 249.716 53.9049 249.716 53.1486C249.716 53.1109 249.712 53.024 249.712 53.024L249.573 53.0127Z" fill="#616161"/>
</svg>
