<svg width="312" height="83" viewBox="0 0 312 83" fill="none" xmlns="http://www.w3.org/2000/svg">
<rect x="0.00732422" width="312" height="83" rx="7" fill="#CAE4C1"/>
<path d="M29.938 53.085H27.782V56H26.935V48.388H29.751C30.565 48.388 31.1737 48.575 31.577 48.949C31.9803 49.3157 32.182 49.8987 32.182 50.698C32.182 51.8787 31.7163 52.6157 30.785 52.909L32.248 56H31.313L29.938 53.085ZM27.782 52.337H29.762C30.796 52.337 31.313 51.8017 31.313 50.731C31.313 49.6677 30.7923 49.136 29.751 49.136H27.782V52.337ZM39.4223 52.249C39.4223 52.931 39.371 53.514 39.2683 53.998C39.173 54.482 39.008 54.8817 38.7733 55.197C38.5387 55.5123 38.2307 55.7433 37.8493 55.89C37.468 56.0367 36.9913 56.11 36.4193 56.11C35.8473 56.11 35.367 56.033 34.9783 55.879C34.597 55.725 34.289 55.4903 34.0543 55.175C33.8197 54.8597 33.651 54.4563 33.5483 53.965C33.453 53.4737 33.4053 52.8943 33.4053 52.227C33.4053 51.5597 33.4567 50.9803 33.5593 50.489C33.662 49.9903 33.8307 49.5797 34.0653 49.257C34.3 48.927 34.608 48.6813 34.9893 48.52C35.378 48.3587 35.851 48.278 36.4083 48.278C36.973 48.278 37.446 48.3587 37.8273 48.52C38.2087 48.674 38.5167 48.916 38.7513 49.246C38.9933 49.5687 39.1657 49.9793 39.2683 50.478C39.371 50.9767 39.4223 51.567 39.4223 52.249ZM34.2743 52.227C34.2743 52.7843 34.3073 53.261 34.3733 53.657C34.4393 54.053 34.553 54.3793 34.7143 54.636C34.8757 54.8853 35.0957 55.0687 35.3743 55.186C35.653 55.3033 36.0013 55.362 36.4193 55.362C36.8373 55.362 37.182 55.307 37.4533 55.197C37.732 55.0797 37.9483 54.8963 38.1023 54.647C38.2637 54.3977 38.3773 54.075 38.4433 53.679C38.5093 53.283 38.5423 52.8063 38.5423 52.249C38.5423 51.6843 38.5093 51.2003 38.4433 50.797C38.3773 50.3937 38.26 50.06 38.0913 49.796C37.93 49.532 37.71 49.3377 37.4313 49.213C37.16 49.0883 36.819 49.026 36.4083 49.026C35.9977 49.026 35.653 49.0883 35.3743 49.213C35.103 49.3377 34.883 49.532 34.7143 49.796C34.553 50.0527 34.4393 50.3827 34.3733 50.786C34.3073 51.1893 34.2743 51.6697 34.2743 52.227ZM45.54 55.153L45.573 55.879C44.8177 56.033 44.1394 56.11 43.538 56.11C42.9367 56.11 42.449 56.0293 42.075 55.868C41.7084 55.6993 41.426 55.439 41.228 55.087C41.0227 54.7423 40.8797 54.3463 40.799 53.899C40.7257 53.4443 40.689 52.8797 40.689 52.205C40.689 51.523 40.7257 50.9547 40.799 50.5C40.8797 50.0453 41.0227 49.642 41.228 49.29C41.426 48.938 41.7047 48.6813 42.064 48.52C42.4307 48.3587 42.911 48.278 43.505 48.278C43.7984 48.278 44.1174 48.3 44.462 48.344C44.8067 48.3807 45.177 48.4393 45.573 48.52L45.54 49.235C44.8067 49.103 44.1467 49.037 43.56 49.037C43.1567 49.037 42.8267 49.0957 42.57 49.213C42.3134 49.323 42.108 49.5063 41.954 49.763C41.8074 50.0123 41.7047 50.3387 41.646 50.742C41.5947 51.1453 41.569 51.6367 41.569 52.216C41.569 52.7953 41.591 53.261 41.635 53.613C41.6864 53.965 41.7817 54.2803 41.921 54.559C42.0604 54.845 42.262 55.0503 42.526 55.175C42.7974 55.2923 43.1934 55.351 43.714 55.351C44.2274 55.351 44.836 55.285 45.54 55.153ZM51.5234 55.153L51.5564 55.879C50.8011 56.033 50.1228 56.11 49.5214 56.11C48.9201 56.11 48.4324 56.0293 48.0584 55.868C47.6918 55.6993 47.4094 55.439 47.2114 55.087C47.0061 54.7423 46.8631 54.3463 46.7824 53.899C46.7091 53.4443 46.6724 52.8797 46.6724 52.205C46.6724 51.523 46.7091 50.9547 46.7824 50.5C46.8631 50.0453 47.0061 49.642 47.2114 49.29C47.4094 48.938 47.6881 48.6813 48.0474 48.52C48.4141 48.3587 48.8944 48.278 49.4884 48.278C49.7818 48.278 50.1008 48.3 50.4454 48.344C50.7901 48.3807 51.1604 48.4393 51.5564 48.52L51.5234 49.235C50.7901 49.103 50.1301 49.037 49.5434 49.037C49.1401 49.037 48.8101 49.0957 48.5534 49.213C48.2968 49.323 48.0914 49.5063 47.9374 49.763C47.7908 50.0123 47.6881 50.3387 47.6294 50.742C47.5781 51.1453 47.5524 51.6367 47.5524 52.216C47.5524 52.7953 47.5744 53.261 47.6184 53.613C47.6698 53.965 47.7651 54.2803 47.9044 54.559C48.0438 54.845 48.2454 55.0503 48.5094 55.175C48.7808 55.2923 49.1768 55.351 49.6974 55.351C50.2108 55.351 50.8194 55.285 51.5234 55.153ZM53.7888 56H52.9418V48.388H53.7888V56ZM55.8139 56H54.9779L57.0679 48.388H58.9159L61.0059 56H60.1699L59.6199 54.042H56.3639L55.8139 56ZM58.2779 49.114H57.7059L56.5509 53.283H59.4329L58.2779 49.114ZM68.4136 49.873C68.4136 50.1517 68.3623 50.4157 68.2596 50.665C68.1569 50.907 68.0139 51.1233 67.8306 51.314C67.6473 51.4973 67.4346 51.644 67.1926 51.754C66.9506 51.864 66.6903 51.919 66.4116 51.919C66.1329 51.919 65.8726 51.8677 65.6306 51.765C65.3886 51.655 65.1759 51.5083 64.9926 51.325C64.8093 51.1343 64.6663 50.9143 64.5636 50.665C64.4609 50.4157 64.4096 50.1517 64.4096 49.873C64.4096 49.4037 64.5526 48.9893 64.8386 48.63C65.1319 48.2633 65.5206 48.014 66.0046 47.882V47.42H66.8296V47.882C67.3136 48.014 67.6986 48.2633 67.9846 48.63C68.2706 48.9893 68.4136 49.4037 68.4136 49.873ZM67.5996 49.873C67.5996 49.6897 67.5666 49.521 67.5006 49.367C67.4419 49.2057 67.3576 49.0663 67.2476 48.949C67.1449 48.8317 67.0203 48.74 66.8736 48.674C66.7343 48.608 66.5803 48.575 66.4116 48.575C66.2429 48.575 66.0853 48.608 65.9386 48.674C65.7993 48.74 65.6783 48.8317 65.5756 48.949C65.4729 49.0663 65.3886 49.2057 65.3226 49.367C65.2639 49.521 65.2346 49.6897 65.2346 49.873C65.2346 50.0563 65.2639 50.2287 65.3226 50.39C65.3886 50.5513 65.4729 50.6907 65.5756 50.808C65.6783 50.9253 65.7993 51.017 65.9386 51.083C66.0853 51.149 66.2429 51.182 66.4116 51.182C66.5803 51.182 66.7379 51.149 66.8846 51.083C67.0313 51.0097 67.1559 50.9143 67.2586 50.797C67.3686 50.6797 67.4529 50.544 67.5116 50.39C67.5703 50.2287 67.5996 50.0563 67.5996 49.873ZM72.1536 57.452C72.1536 57.6573 72.0803 57.8333 71.9336 57.98C71.7869 58.1267 71.6073 58.2 71.3946 58.2H68.4136C68.2083 58.2 68.0323 58.1267 67.8856 57.98C67.7389 57.8333 67.6656 57.6573 67.6656 57.452V54.273H68.4906V55.285H71.3286V54.405V50.214H70.1296V53.052H69.3266V47.585H70.1296V49.455H71.3286V47.585H72.1536V54.273V57.452ZM71.3286 57.441V56.044H68.4906V57.441H71.3286ZM85.3549 50.588H83.8699V55.615H83.0559V47.585H83.8699V49.818H85.3549V50.588ZM81.3949 52.073L80.6579 52.469L79.0739 49.312L77.4899 52.469L76.7419 52.073L79.0739 47.662L81.3949 52.073ZM90.1332 52.909H91.5852V51.523C91.3578 51.6037 91.1158 51.644 90.8592 51.644C90.6025 51.644 90.3605 51.6037 90.1332 51.523V52.909ZM95.3692 53.668H86.3492V52.909H89.3082V51.028C89.1395 50.8593 89.0038 50.665 88.9012 50.445C88.7985 50.2177 88.7472 49.983 88.7472 49.741C88.7472 49.521 88.7875 49.312 88.8682 49.114C88.9488 48.916 89.0625 48.7363 89.2092 48.575C89.3632 48.4137 89.5428 48.2743 89.7482 48.157C89.9608 48.0323 90.1955 47.937 90.4522 47.871V47.42H91.2662V47.871C91.5302 47.937 91.7648 48.0323 91.9702 48.157C92.1828 48.2743 92.3625 48.4137 92.5092 48.575C92.6558 48.7363 92.7695 48.916 92.8502 49.114C92.9308 49.312 92.9712 49.521 92.9712 49.741C92.9712 49.983 92.9198 50.2177 92.8172 50.445C92.7145 50.665 92.5788 50.8593 92.4102 51.028V52.909H95.3692V53.668ZM92.1462 49.741C92.1462 49.565 92.1095 49.4073 92.0362 49.268C91.9702 49.1213 91.8785 48.9967 91.7612 48.894C91.6438 48.7913 91.5082 48.7143 91.3542 48.663C91.2002 48.6043 91.0352 48.575 90.8592 48.575C90.6978 48.575 90.5402 48.6043 90.3862 48.663C90.2322 48.7143 90.0928 48.7913 89.9682 48.894C89.8508 48.9967 89.7555 49.1213 89.6822 49.268C89.6088 49.4073 89.5722 49.565 89.5722 49.741C89.5722 49.917 89.6052 50.0783 89.6712 50.225C89.7445 50.3643 89.8398 50.4853 89.9572 50.588C90.0818 50.6907 90.2212 50.7713 90.3752 50.83C90.5292 50.8813 90.6905 50.907 90.8592 50.907C91.0352 50.907 91.2002 50.8813 91.3542 50.83C91.5082 50.7713 91.6438 50.6907 91.7612 50.588C91.8785 50.4853 91.9702 50.3643 92.0362 50.225C92.1095 50.0783 92.1462 49.917 92.1462 49.741ZM92.9712 56.462C92.9712 56.7187 92.9125 56.9607 92.7952 57.188C92.6852 57.4227 92.5348 57.6243 92.3442 57.793C92.1535 57.969 91.9298 58.1083 91.6732 58.211C91.4165 58.3137 91.1452 58.365 90.8592 58.365C90.5805 58.365 90.3128 58.3137 90.0562 58.211C89.7995 58.1157 89.5722 57.98 89.3742 57.804C89.1835 57.6353 89.0295 57.4337 88.9122 57.199C88.8022 56.9717 88.7472 56.726 88.7472 56.462C88.7472 56.198 88.8022 55.9523 88.9122 55.725C89.0295 55.4903 89.1835 55.2887 89.3742 55.12C89.5648 54.944 89.7885 54.8083 90.0452 54.713C90.3018 54.6103 90.5732 54.559 90.8592 54.559C91.1452 54.559 91.4165 54.6103 91.6732 54.713C91.9298 54.8157 92.1535 54.955 92.3442 55.131C92.5422 55.2997 92.6962 55.5013 92.8062 55.736C92.9162 55.9633 92.9712 56.2053 92.9712 56.462ZM92.1462 56.462C92.1462 56.286 92.1095 56.1283 92.0362 55.989C91.9702 55.8423 91.8785 55.7177 91.7612 55.615C91.6438 55.5123 91.5082 55.4353 91.3542 55.384C91.2002 55.3253 91.0352 55.296 90.8592 55.296C90.6978 55.296 90.5402 55.3253 90.3862 55.384C90.2322 55.4353 90.0928 55.5123 89.9682 55.615C89.8508 55.7177 89.7555 55.8423 89.6822 55.989C89.6088 56.1283 89.5722 56.286 89.5722 56.462C89.5722 56.638 89.6088 56.7957 89.6822 56.935C89.7555 57.0817 89.8508 57.2063 89.9682 57.309C90.0928 57.4117 90.2322 57.4887 90.3862 57.54C90.5402 57.5987 90.6978 57.628 90.8592 57.628C91.0352 57.628 91.2002 57.5987 91.3542 57.54C91.5082 57.4887 91.6438 57.4117 91.7612 57.309C91.8785 57.2063 91.9702 57.0817 92.0362 56.935C92.1095 56.7957 92.1462 56.638 92.1462 56.462ZM103.953 57.452C103.953 57.6573 103.88 57.8333 103.733 57.98C103.587 58.1267 103.407 58.2 103.194 58.2H100.202C99.9971 58.2 99.8175 58.1267 99.6635 57.98C99.5095 57.8333 99.4325 57.6573 99.4325 57.452V54.273H100.268V55.285H103.128V54.405V50.214H101.071V51.16C101.071 51.3653 100.998 51.5413 100.851 51.688C100.705 51.8347 100.525 51.908 100.312 51.908H97.8925C97.6871 51.908 97.5075 51.8347 97.3535 51.688C97.2068 51.5413 97.1335 51.3653 97.1335 51.16V47.75H97.9585V48.883H100.246V47.75H101.071V49.455H103.128V47.585H103.953V54.273V57.452ZM100.246 51.149V49.642H97.9585V51.149H100.246ZM103.128 57.441V56.044H100.246V57.441H103.128ZM117.595 54.46H108.575V53.69H112.678V51.864H111.6C111.394 51.864 111.218 51.7907 111.072 51.644C110.925 51.49 110.852 51.3103 110.852 51.105V47.75H111.677V48.85H114.493V47.75H115.318V51.105C115.318 51.3103 115.244 51.49 115.098 51.644C114.951 51.7907 114.775 51.864 114.57 51.864H113.492V53.69H117.595V54.46ZM114.493 51.094V49.62H111.677V51.094H114.493ZM123.418 52.645H120.129C119.924 52.645 119.744 52.5717 119.59 52.425C119.436 52.271 119.359 52.0913 119.359 51.886V49.851H122.461V48.542H119.359V47.816H123.308V49.763H125.332V47.585H126.179V55.615H125.332V50.555H123.308H120.206V51.919H123.418V52.645ZM137.293 50.577H135.808V55.615H134.983V47.585H135.808V49.818H137.293V50.577ZM133.498 48.3L130.22 52.986L129.571 52.546L132.343 48.586H129.373V47.816H132.838L133.498 48.3ZM145.878 55.615H145.053V47.585H145.878V55.615ZM143.326 48.3L140.026 52.986L139.366 52.546L142.16 48.586H139.168V47.816H142.655L143.326 48.3Z" fill="black"/>
<path d="M31.012 33.29H28.268V37H27.19V27.312H30.774C31.81 27.312 32.5847 27.55 33.098 28.026C33.6113 28.4927 33.868 29.2347 33.868 30.252C33.868 31.7547 33.2753 32.6927 32.09 33.066L33.952 37H32.762L31.012 33.29ZM28.268 32.338H30.788C32.104 32.338 32.762 31.6567 32.762 30.294C32.762 28.9407 32.0993 28.264 30.774 28.264H28.268V32.338ZM43.083 32.226C43.083 33.094 43.0176 33.836 42.887 34.452C42.7656 35.068 42.5556 35.5767 42.257 35.978C41.9583 36.3793 41.5663 36.6733 41.081 36.86C40.5956 37.0467 39.989 37.14 39.261 37.14C38.533 37.14 37.9216 37.042 37.427 36.846C36.9416 36.65 36.5496 36.3513 36.251 35.95C35.9523 35.5487 35.7376 35.0353 35.607 34.41C35.4856 33.7847 35.425 33.0473 35.425 32.198C35.425 31.3487 35.4903 30.6113 35.621 29.986C35.7516 29.3513 35.9663 28.8287 36.265 28.418C36.5636 27.998 36.9556 27.6853 37.441 27.48C37.9356 27.2747 38.5376 27.172 39.247 27.172C39.9656 27.172 40.5676 27.2747 41.053 27.48C41.5383 27.676 41.9303 27.984 42.229 28.404C42.537 28.8147 42.7563 29.3373 42.887 29.972C43.0176 30.6067 43.083 31.358 43.083 32.226ZM36.531 32.198C36.531 32.9073 36.573 33.514 36.657 34.018C36.741 34.522 36.8856 34.9373 37.091 35.264C37.2963 35.5813 37.5763 35.8147 37.931 35.964C38.2856 36.1133 38.729 36.188 39.261 36.188C39.793 36.188 40.2316 36.118 40.577 35.978C40.9316 35.8287 41.207 35.5953 41.403 35.278C41.6083 34.9607 41.753 34.55 41.837 34.046C41.921 33.542 41.963 32.9353 41.963 32.226C41.963 31.5073 41.921 30.8913 41.837 30.378C41.753 29.8647 41.6036 29.44 41.389 29.104C41.1836 28.768 40.9036 28.5207 40.549 28.362C40.2036 28.2033 39.7696 28.124 39.247 28.124C38.7243 28.124 38.2856 28.2033 37.931 28.362C37.5856 28.5207 37.3056 28.768 37.091 29.104C36.8856 29.4307 36.741 29.8507 36.657 30.364C36.573 30.8773 36.531 31.4887 36.531 32.198ZM50.8691 35.922L50.9111 36.846C49.9498 37.042 49.0865 37.14 48.3211 37.14C47.5558 37.14 46.9351 37.0373 46.4591 36.832C45.9925 36.6173 45.6331 36.286 45.3811 35.838C45.1198 35.3993 44.9378 34.8953 44.8351 34.326C44.7418 33.7473 44.6951 33.0287 44.6951 32.17C44.6951 31.302 44.7418 30.5787 44.8351 30C44.9378 29.4213 45.1198 28.908 45.3811 28.46C45.6331 28.012 45.9878 27.6853 46.4451 27.48C46.9118 27.2747 47.5231 27.172 48.2791 27.172C48.6525 27.172 49.0585 27.2 49.4971 27.256C49.9358 27.3027 50.4071 27.3773 50.9111 27.48L50.8691 28.39C49.9358 28.222 49.0958 28.138 48.3491 28.138C47.8358 28.138 47.4158 28.2127 47.0891 28.362C46.7625 28.502 46.5011 28.7353 46.3051 29.062C46.1185 29.3793 45.9878 29.7947 45.9131 30.308C45.8478 30.8213 45.8151 31.4467 45.8151 32.184C45.8151 32.9213 45.8431 33.514 45.8991 33.962C45.9645 34.41 46.0858 34.8113 46.2631 35.166C46.4405 35.53 46.6971 35.7913 47.0331 35.95C47.3785 36.0993 47.8825 36.174 48.5451 36.174C49.1985 36.174 49.9731 36.09 50.8691 35.922ZM58.4844 35.922L58.5264 36.846C57.565 37.042 56.7017 37.14 55.9364 37.14C55.171 37.14 54.5504 37.0373 54.0744 36.832C53.6077 36.6173 53.2484 36.286 52.9964 35.838C52.735 35.3993 52.553 34.8953 52.4504 34.326C52.357 33.7473 52.3104 33.0287 52.3104 32.17C52.3104 31.302 52.357 30.5787 52.4504 30C52.553 29.4213 52.735 28.908 52.9964 28.46C53.2484 28.012 53.603 27.6853 54.0604 27.48C54.527 27.2747 55.1384 27.172 55.8944 27.172C56.2677 27.172 56.6737 27.2 57.1124 27.256C57.551 27.3027 58.0224 27.3773 58.5264 27.48L58.4844 28.39C57.551 28.222 56.711 28.138 55.9644 28.138C55.451 28.138 55.031 28.2127 54.7044 28.362C54.3777 28.502 54.1164 28.7353 53.9204 29.062C53.7337 29.3793 53.603 29.7947 53.5284 30.308C53.463 30.8213 53.4304 31.4467 53.4304 32.184C53.4304 32.9213 53.4584 33.514 53.5144 33.962C53.5797 34.41 53.701 34.8113 53.8784 35.166C54.0557 35.53 54.3124 35.7913 54.6484 35.95C54.9937 36.0993 55.4977 36.174 56.1604 36.174C56.8137 36.174 57.5884 36.09 58.4844 35.922ZM61.3676 37H60.2896V27.312H61.3676V37ZM63.9449 37H62.8809L65.5409 27.312H67.8929L70.5529 37H69.4889L68.7889 34.508H64.6449L63.9449 37ZM67.0809 28.236H66.3529L64.8829 33.542H68.5509L67.0809 28.236ZM79.9809 29.202C79.9809 29.5567 79.9156 29.8927 79.7849 30.21C79.6543 30.518 79.4723 30.7933 79.2389 31.036C79.0056 31.2693 78.7349 31.456 78.4269 31.596C78.1189 31.736 77.7876 31.806 77.4329 31.806C77.0783 31.806 76.7469 31.7407 76.4389 31.61C76.1309 31.47 75.8603 31.2833 75.6269 31.05C75.3936 30.8073 75.2116 30.5273 75.0809 30.21C74.9503 29.8927 74.8849 29.5567 74.8849 29.202C74.8849 28.6047 75.0669 28.0773 75.4309 27.62C75.8043 27.1533 76.2989 26.836 76.9149 26.668V26.08H77.9649V26.668C78.5809 26.836 79.0709 27.1533 79.4349 27.62C79.7989 28.0773 79.9809 28.6047 79.9809 29.202ZM78.9449 29.202C78.9449 28.9687 78.9029 28.754 78.8189 28.558C78.7443 28.3527 78.6369 28.1753 78.4969 28.026C78.3663 27.8767 78.2076 27.76 78.0209 27.676C77.8436 27.592 77.6476 27.55 77.4329 27.55C77.2183 27.55 77.0176 27.592 76.8309 27.676C76.6536 27.76 76.4996 27.8767 76.3689 28.026C76.2383 28.1753 76.1309 28.3527 76.0469 28.558C75.9723 28.754 75.9349 28.9687 75.9349 29.202C75.9349 29.4353 75.9723 29.6547 76.0469 29.86C76.1309 30.0653 76.2383 30.2427 76.3689 30.392C76.4996 30.5413 76.6536 30.658 76.8309 30.742C77.0176 30.826 77.2183 30.868 77.4329 30.868C77.6476 30.868 77.8483 30.826 78.0349 30.742C78.2216 30.6487 78.3803 30.5273 78.5109 30.378C78.6509 30.2287 78.7583 30.056 78.8329 29.86C78.9076 29.6547 78.9449 29.4353 78.9449 29.202ZM84.7409 38.848C84.7409 39.1093 84.6476 39.3333 84.4609 39.52C84.2743 39.7067 84.0456 39.8 83.7749 39.8H79.9809C79.7196 39.8 79.4956 39.7067 79.3089 39.52C79.1223 39.3333 79.0289 39.1093 79.0289 38.848V34.802H80.0789V36.09H83.6909V34.97V29.636H82.1649V33.248H81.1429V26.29H82.1649V28.67H83.6909V26.29H84.7409V34.802V38.848ZM83.6909 38.834V37.056H80.0789V38.834H83.6909ZM101.543 30.112H99.6526V36.51H98.6166V26.29H99.6526V29.132H101.543V30.112ZM96.5026 32.002L95.5646 32.506L93.5486 28.488L91.5326 32.506L90.5806 32.002L93.5486 26.388L96.5026 32.002ZM107.624 33.066H109.472V31.302C109.183 31.4047 108.875 31.456 108.548 31.456C108.221 31.456 107.913 31.4047 107.624 31.302V33.066ZM114.288 34.032H102.808V33.066H106.574V30.672C106.359 30.4573 106.187 30.21 106.056 29.93C105.925 29.6407 105.86 29.342 105.86 29.034C105.86 28.754 105.911 28.488 106.014 28.236C106.117 27.984 106.261 27.7553 106.448 27.55C106.644 27.3447 106.873 27.1673 107.134 27.018C107.405 26.8593 107.703 26.738 108.03 26.654V26.08H109.066V26.654C109.402 26.738 109.701 26.8593 109.962 27.018C110.233 27.1673 110.461 27.3447 110.648 27.55C110.835 27.7553 110.979 27.984 111.082 28.236C111.185 28.488 111.236 28.754 111.236 29.034C111.236 29.342 111.171 29.6407 111.04 29.93C110.909 30.21 110.737 30.4573 110.522 30.672V33.066H114.288V34.032ZM110.186 29.034C110.186 28.81 110.139 28.6093 110.046 28.432C109.962 28.2453 109.845 28.0867 109.696 27.956C109.547 27.8253 109.374 27.7273 109.178 27.662C108.982 27.5873 108.772 27.55 108.548 27.55C108.343 27.55 108.142 27.5873 107.946 27.662C107.75 27.7273 107.573 27.8253 107.414 27.956C107.265 28.0867 107.143 28.2453 107.05 28.432C106.957 28.6093 106.91 28.81 106.91 29.034C106.91 29.258 106.952 29.4633 107.036 29.65C107.129 29.8273 107.251 29.9813 107.4 30.112C107.559 30.2427 107.736 30.3453 107.932 30.42C108.128 30.4853 108.333 30.518 108.548 30.518C108.772 30.518 108.982 30.4853 109.178 30.42C109.374 30.3453 109.547 30.2427 109.696 30.112C109.845 29.9813 109.962 29.8273 110.046 29.65C110.139 29.4633 110.186 29.258 110.186 29.034ZM111.236 37.588C111.236 37.9147 111.161 38.2227 111.012 38.512C110.872 38.8107 110.681 39.0673 110.438 39.282C110.195 39.506 109.911 39.6833 109.584 39.814C109.257 39.9447 108.912 40.01 108.548 40.01C108.193 40.01 107.853 39.9447 107.526 39.814C107.199 39.6927 106.91 39.52 106.658 39.296C106.415 39.0813 106.219 38.8247 106.07 38.526C105.93 38.2367 105.86 37.924 105.86 37.588C105.86 37.252 105.93 36.9393 106.07 36.65C106.219 36.3513 106.415 36.0947 106.658 35.88C106.901 35.656 107.185 35.4833 107.512 35.362C107.839 35.2313 108.184 35.166 108.548 35.166C108.912 35.166 109.257 35.2313 109.584 35.362C109.911 35.4927 110.195 35.67 110.438 35.894C110.69 36.1087 110.886 36.3653 111.026 36.664C111.166 36.9533 111.236 37.2613 111.236 37.588ZM110.186 37.588C110.186 37.364 110.139 37.1633 110.046 36.986C109.962 36.7993 109.845 36.6407 109.696 36.51C109.547 36.3793 109.374 36.2813 109.178 36.216C108.982 36.1413 108.772 36.104 108.548 36.104C108.343 36.104 108.142 36.1413 107.946 36.216C107.75 36.2813 107.573 36.3793 107.414 36.51C107.265 36.6407 107.143 36.7993 107.05 36.986C106.957 37.1633 106.91 37.364 106.91 37.588C106.91 37.812 106.957 38.0127 107.05 38.19C107.143 38.3767 107.265 38.5353 107.414 38.666C107.573 38.7967 107.75 38.8947 107.946 38.96C108.142 39.0347 108.343 39.072 108.548 39.072C108.772 39.072 108.982 39.0347 109.178 38.96C109.374 38.8947 109.547 38.7967 109.696 38.666C109.845 38.5353 109.962 38.3767 110.046 38.19C110.139 38.0127 110.186 37.812 110.186 37.588ZM125.214 38.848C125.214 39.1093 125.12 39.3333 124.934 39.52C124.747 39.7067 124.518 39.8 124.248 39.8H120.44C120.178 39.8 119.95 39.7067 119.754 39.52C119.558 39.3333 119.46 39.1093 119.46 38.848V34.802H120.524V36.09H124.164V34.97V29.636H121.546V30.84C121.546 31.1013 121.452 31.3253 121.266 31.512C121.079 31.6987 120.85 31.792 120.58 31.792H117.5C117.238 31.792 117.01 31.6987 116.814 31.512C116.627 31.3253 116.534 31.1013 116.534 30.84V26.5H117.584V27.942H120.496V26.5H121.546V28.67H124.164V26.29H125.214V34.802V38.848ZM120.496 30.826V28.908H117.584V30.826H120.496ZM124.164 38.834V37.056H120.496V38.834H124.164ZM137.819 36.51H136.769V26.29H137.819V36.51ZM134.389 29.496C134.389 29.86 134.314 30.21 134.165 30.546C134.025 30.8727 133.829 31.162 133.577 31.414C133.334 31.6567 133.045 31.8527 132.709 32.002C132.382 32.1513 132.032 32.226 131.659 32.226C131.286 32.226 130.931 32.156 130.595 32.016C130.268 31.8667 129.979 31.666 129.727 31.414C129.475 31.162 129.274 30.8727 129.125 30.546C128.985 30.21 128.915 29.86 128.915 29.496C128.915 28.852 129.116 28.2873 129.517 27.802C129.918 27.3167 130.455 26.9853 131.127 26.808V26.22H132.177V26.808C132.849 26.9853 133.386 27.3167 133.787 27.802C134.188 28.2873 134.389 28.852 134.389 29.496ZM133.339 29.496C133.339 29.244 133.292 29.0107 133.199 28.796C133.115 28.5813 132.994 28.3947 132.835 28.236C132.686 28.068 132.508 27.9373 132.303 27.844C132.107 27.7507 131.892 27.704 131.659 27.704C131.416 27.704 131.192 27.7507 130.987 27.844C130.782 27.9373 130.604 28.0633 130.455 28.222C130.306 28.3807 130.184 28.572 130.091 28.796C130.007 29.0107 129.965 29.244 129.965 29.496C129.965 29.7387 130.007 29.972 130.091 30.196C130.175 30.4107 130.292 30.602 130.441 30.77C130.6 30.9287 130.782 31.0547 130.987 31.148C131.192 31.2413 131.416 31.288 131.659 31.288C131.892 31.288 132.112 31.2413 132.317 31.148C132.522 31.0547 132.7 30.9287 132.849 30.77C132.998 30.602 133.115 30.4107 133.199 30.196C133.292 29.972 133.339 29.7387 133.339 29.496ZM152.129 37.588C152.129 37.9147 152.054 38.2227 151.905 38.512C151.765 38.8107 151.573 39.0673 151.331 39.282C151.088 39.506 150.803 39.6833 150.477 39.814C150.15 39.9447 149.805 40.01 149.441 40.01C149.086 40.01 148.745 39.9447 148.419 39.814C148.092 39.6927 147.803 39.52 147.551 39.296C147.308 39.0813 147.112 38.8247 146.963 38.526C146.823 38.2367 146.753 37.924 146.753 37.588C146.753 37.2987 146.809 37.0233 146.921 36.762C147.033 36.4913 147.187 36.2533 147.383 36.048C147.579 35.8333 147.807 35.656 148.069 35.516C148.339 35.3667 148.624 35.264 148.923 35.208V32.296H143.701V31.33H151.233V27.536H146.459V26.57H152.283V31.33H155.181V32.296H149.959V35.208C150.267 35.264 150.551 35.3667 150.813 35.516C151.083 35.6653 151.312 35.8473 151.499 36.062C151.695 36.2673 151.849 36.5053 151.961 36.776C152.073 37.0373 152.129 37.308 152.129 37.588ZM151.079 37.588C151.079 37.364 151.032 37.1633 150.939 36.986C150.855 36.7993 150.738 36.6407 150.589 36.51C150.439 36.3793 150.267 36.2813 150.071 36.216C149.875 36.1413 149.665 36.104 149.441 36.104C149.235 36.104 149.035 36.1413 148.839 36.216C148.643 36.2813 148.465 36.3793 148.307 36.51C148.157 36.6407 148.036 36.7993 147.943 36.986C147.849 37.1633 147.803 37.364 147.803 37.588C147.803 37.812 147.849 38.0127 147.943 38.19C148.036 38.3767 148.157 38.5353 148.307 38.666C148.465 38.7967 148.643 38.8947 148.839 38.96C149.035 39.0347 149.235 39.072 149.441 39.072C149.665 39.072 149.875 39.0347 150.071 38.96C150.267 38.8947 150.439 38.7967 150.589 38.666C150.738 38.5353 150.855 38.3767 150.939 38.19C151.032 38.0127 151.079 37.812 151.079 37.588ZM167.786 32.59H156.306V31.624H163.838V27.536H159.064V26.57H164.888V31.624H167.786V32.59ZM164.888 38.778C164.888 39.0393 164.795 39.2633 164.608 39.45C164.421 39.6367 164.197 39.73 163.936 39.73H160.156C159.895 39.73 159.671 39.6367 159.484 39.45C159.297 39.2633 159.204 39.0393 159.204 38.778V35.082H164.888V38.778ZM163.838 38.764V36.048H160.254V38.764H163.838ZM180.252 30.112H178.362V36.51H177.312V26.304H178.362V29.132H180.252V30.112ZM174.708 29.818C174.708 30.154 174.642 30.4713 174.512 30.77C174.381 31.0687 174.204 31.33 173.98 31.554C173.756 31.778 173.494 31.9553 173.196 32.086C172.897 32.2167 172.58 32.282 172.244 32.282C171.908 32.282 171.59 32.2167 171.292 32.086C171.002 31.9553 170.746 31.778 170.522 31.554C170.298 31.33 170.12 31.0687 169.99 30.77C169.859 30.4713 169.794 30.154 169.794 29.818C169.794 29.4913 169.85 29.188 169.962 28.908C170.083 28.6187 170.246 28.3667 170.452 28.152H169.332V27.172H171.726V26.01H172.776V27.172H175.17V28.152H174.05C174.255 28.3667 174.414 28.6187 174.526 28.908C174.647 29.188 174.708 29.4913 174.708 29.818ZM173.658 29.818C173.658 29.3887 173.522 29.0293 173.252 28.74C172.981 28.4507 172.645 28.306 172.244 28.306C172.048 28.306 171.861 28.348 171.684 28.432C171.516 28.5067 171.366 28.614 171.236 28.754C171.114 28.8847 171.016 29.0433 170.942 29.23C170.876 29.4073 170.844 29.6033 170.844 29.818C170.844 30.0327 170.876 30.2333 170.942 30.42C171.016 30.5973 171.114 30.756 171.236 30.896C171.366 31.0267 171.516 31.134 171.684 31.218C171.861 31.2927 172.048 31.33 172.244 31.33C172.645 31.33 172.981 31.1853 173.252 30.896C173.522 30.6067 173.658 30.2473 173.658 29.818ZM192.857 30.098H190.967V36.51H189.917V26.29H190.967V29.132H192.857V30.098ZM187.327 32.436H183.323C183.062 32.436 182.833 32.3427 182.637 32.156C182.45 31.96 182.357 31.7313 182.357 31.47V26.584H187.187V27.55H183.407V31.456H187.327V32.436ZM200.255 28.404V29.902H202.859V28.404H200.255ZM200.255 30.868C200.245 31.12 200.147 31.3393 199.961 31.526C199.774 31.7033 199.55 31.792 199.289 31.792H196.209C195.947 31.792 195.719 31.6987 195.523 31.512C195.336 31.3253 195.243 31.1013 195.243 30.84V26.584H200.255V27.438H202.859V26.29H203.923V34.97H202.859V30.868H200.255ZM199.205 30.826V27.55H196.293V30.826H199.205ZM204.063 39.73H199.135C198.873 39.73 198.645 39.6367 198.449 39.45C198.262 39.2633 198.169 39.0393 198.169 38.778V35.376H199.233V38.764H204.063V39.73ZM209.416 36.986H208.268V35.418H209.416V36.986ZM211.852 29.412C211.852 29.72 211.833 29.9813 211.796 30.196C211.759 30.4107 211.693 30.6113 211.6 30.798C211.516 30.9753 211.395 31.148 211.236 31.316C211.077 31.484 210.872 31.6707 210.62 31.876C210.368 32.0813 210.158 32.268 209.99 32.436C209.822 32.5947 209.687 32.744 209.584 32.884C209.481 33.0147 209.407 33.1453 209.36 33.276C209.323 33.4067 209.304 33.5467 209.304 33.696V34.186H208.422C208.301 33.9433 208.24 33.6587 208.24 33.332C208.24 33.0147 208.347 32.7207 208.562 32.45C208.777 32.17 209.122 31.8247 209.598 31.414C209.841 31.2087 210.037 31.0313 210.186 30.882C210.335 30.7233 210.457 30.574 210.55 30.434C210.643 30.2847 210.704 30.1307 210.732 29.972C210.769 29.8133 210.788 29.6267 210.788 29.412C210.788 28.9733 210.639 28.6513 210.34 28.446C210.041 28.2313 209.57 28.124 208.926 28.124C208.525 28.124 207.923 28.208 207.12 28.376L206.756 28.446L206.686 27.592C207.629 27.312 208.408 27.172 209.024 27.172C209.985 27.172 210.695 27.3493 211.152 27.704C211.619 28.0493 211.852 28.6187 211.852 29.412Z" fill="black"/>
<path d="M264.886 57.4355L287.345 59.5621C289.459 59.7646 290 58.5908 290 57.5966L289.977 56.3906L262.356 52.5149C262.356 53.8912 263.48 57.4355 264.886 57.4355Z" fill="#699635"/>
<path d="M265.706 56.3864L269.24 56.6948L288.164 58.513C289.182 58.513 290 57.7075 290 56.7132L288.996 26.2138C288.996 25.2196 288.173 24.4141 287.16 24.4141L265.706 22.3979C264.299 22.3979 263.157 23.5165 263.157 24.8928V53.8916C263.157 55.2679 264.295 56.3864 265.706 56.3864Z" fill="#83BF4F"/>
<path d="M259.114 57.4357L236.655 59.5623C234.541 59.7648 234 58.591 234 57.5968L234.023 56.3908L261.644 52.5105C261.644 53.8914 260.52 57.4357 259.114 57.4357Z" fill="#699635"/>
<path d="M258.295 56.3866L254.788 56.695L235.836 58.5178C234.819 58.5178 234 57.7122 234 56.718L235.004 26.2186C235.004 25.2243 235.827 24.4188 236.84 24.4188L258.295 22.4027C259.701 22.4027 260.844 23.5212 260.844 24.8975V53.8964C260.844 55.2681 259.706 56.3866 258.295 56.3866Z" fill="#83BF4F"/>
<path d="M268.823 49.5603H255.186L254.77 56.7087L259.026 57.1046C259.026 57.1046 259.937 59.3693 262 59.3693C264.063 59.3693 264.975 57.1046 264.975 57.1046L269.23 56.7087L268.823 49.5603Z" fill="#424242"/>
<path d="M269.189 57.2701L265.224 56.9294M254.812 57.2701L258.776 56.9294" stroke="#616161" stroke-width="0.527344" stroke-miterlimit="10"/>
<path d="M287.743 26.149L285.892 23.6173L262 50.6369L238.108 23.6173L236.258 26.149L235.999 56.2295C235.999 56.2295 240.911 56.8417 247.475 56.1789C253.193 55.6035 255.885 54.1305 257.795 54.5126C260.09 54.9729 260.506 56.3768 260.58 56.6161C260.788 57.279 261.2 57.7945 262 57.7945C262.8 57.7945 263.157 57.5183 263.402 56.699C263.476 56.4596 263.911 54.9775 266.205 54.5172C268.116 54.1351 270.808 55.6081 276.525 56.1835C283.089 56.8463 288.002 56.2341 288.002 56.2341L287.743 26.149Z" fill="#94C6D6"/>
<path d="M285.268 53.33L285.342 41.1827H287.872L288.002 56.2299C288.002 56.2299 285.99 55.452 285.268 53.33Z" fill="url(#paint0_linear_152_1659)"/>
<path d="M285.384 46.2501L285.268 53.3341C285.268 53.3341 279.735 53.0487 270.923 51.5298C265.16 50.5355 262 53.7208 262 53.7208L261.949 46.2501H285.384Z" fill="url(#paint1_linear_152_1659)"/>
<path d="M238.617 46.2501L238.733 53.3341C238.733 53.3341 244.265 53.0487 253.077 51.5298C258.841 50.5355 262.001 53.7208 262.001 53.7208L261.95 46.2501H238.617Z" fill="url(#paint2_linear_152_1659)"/>
<path d="M238.732 53.33L238.658 41.1827H236.123L235.999 56.2299C235.999 56.2299 238.006 55.452 238.732 53.33Z" fill="url(#paint3_linear_152_1659)"/>
<path d="M285.893 23.6175C285.893 23.6175 273.616 21.3206 268.227 21.0214C263.157 20.7406 262.116 23.3091 262.014 23.6175H261.996C261.889 23.3091 260.849 20.7452 255.779 21.0214C250.39 21.3206 238.113 23.6175 238.113 23.6175L237.567 53.2607C237.567 53.2607 252.184 50.2136 255.723 50.6094C259.262 51.0053 262 53.7211 262 53.7211C262 53.7211 264.744 51.0053 268.282 50.6094C271.821 50.2136 286.439 53.2607 286.439 53.2607L285.893 23.6175Z" fill="#F5F5F5"/>
<path opacity="0.26" d="M257.199 21.0261L254.701 50.5773C255.094 50.5681 255.441 50.5773 255.718 50.6095C259.252 51.0008 262 53.7212 262 53.7212L261.922 23.6176C261.922 23.6176 261.32 21.2609 257.199 21.0261Z" fill="#94C6D6"/>
<path opacity="0.5" d="M244.103 24.9343C242.854 25.1506 241.831 25.3348 241.249 25.436C241.249 25.7214 241.249 26.0344 241.244 26.3704C241.757 26.2784 242.803 26.0896 244.103 25.8641V24.9343ZM255.362 23.4521V24.3681C257.827 24.3635 259.192 24.9803 259.641 25.2289C259.641 24.8468 259.645 24.5062 259.645 24.207C258.882 23.8664 257.485 23.4475 255.362 23.4521ZM253.354 23.5672C251.351 23.7697 248.562 24.1932 246.11 24.5983V25.5327C248.543 25.1322 251.337 24.7041 253.354 24.4924V23.5672ZM248.428 27.5396C245.439 27.9999 242.442 28.5338 241.239 28.7502V29.6846C242.285 29.4959 245.352 28.9435 248.428 28.4694V27.5396ZM253.993 26.8215C253.017 26.8998 251.772 27.0563 250.435 27.2404V28.1702C251.8 27.9769 253.077 27.8204 254.067 27.7375C257.388 27.4659 259.141 28.2761 259.631 28.5522V27.5258C258.725 27.1253 256.907 26.5822 253.993 26.8215ZM244.598 31.4751C243.136 31.7237 241.915 31.94 241.239 32.0643V32.9987C241.845 32.8883 243.085 32.6673 244.598 32.4096V31.4751ZM259.631 30.8537C258.729 30.4487 256.907 29.8963 253.965 30.1403C252.082 30.2922 249.2 30.7203 246.605 31.1437V32.0781C249.223 31.6501 252.147 31.2174 254.043 31.0609C257.42 30.7847 259.178 31.627 259.631 31.8894V30.8537ZM259.636 34.1817C258.743 33.7766 256.911 33.2105 253.946 33.4544C253.646 33.4774 253.322 33.5097 252.98 33.5465V34.4717C253.354 34.4303 253.701 34.398 254.025 34.3704C257.467 34.0896 259.224 34.9688 259.641 35.2174C259.636 34.8722 259.636 34.5269 259.636 34.1817ZM250.967 33.7951C247.35 34.2876 242.844 35.0839 241.244 35.3739V36.3083C242.655 36.0505 247.267 35.2266 250.967 34.7203V33.7951ZM245.463 37.9562C243.645 38.26 242.072 38.5407 241.244 38.688V39.6224C241.993 39.4844 243.589 39.199 245.463 38.886V37.9562ZM259.641 37.5143C258.757 37.1092 256.916 36.5292 253.923 36.7732C252.258 36.9113 249.816 37.2565 247.475 37.6293V38.5591C249.839 38.1817 252.323 37.8273 253.997 37.6892C257.527 37.3992 259.289 38.3382 259.641 38.5499V37.5143ZM259.65 44.1748C258.808 43.7743 256.986 43.1713 253.979 43.3969V44.3221C257.814 44.0137 259.553 45.1552 259.65 45.2243V44.1748ZM244.598 44.7272C243.173 44.9711 241.961 45.1829 241.253 45.3117V46.2461C241.905 46.1265 243.127 45.9101 244.598 45.657V44.7272ZM246.605 44.3957V45.3301C248.4 45.0402 250.329 44.7456 251.971 44.5384V43.6086C250.338 43.8112 248.409 44.1012 246.605 44.3957ZM249.82 47.2128C246.508 47.6915 242.784 48.3497 241.258 48.6259V49.5603C242.641 49.3071 246.434 48.6351 249.82 48.1426V47.2128ZM259.655 47.5074C258.817 47.1023 256.953 46.4717 253.845 46.7249C253.257 46.7709 252.572 46.8491 251.828 46.9412V47.8664C252.6 47.7697 253.313 47.6915 253.919 47.6409C257.878 47.314 259.618 48.5384 259.636 48.5476L259.659 48.52C259.659 48.2024 259.659 47.8664 259.655 47.5074ZM249.131 40.6857C245.976 41.1552 242.632 41.749 241.249 42.0022V42.9366C242.488 42.711 245.897 42.1035 249.131 41.6155V40.6857ZM259.645 40.8422C258.776 40.4372 256.93 39.8388 253.895 40.0873C253.118 40.1518 252.17 40.2623 251.143 40.4003V41.3302C252.202 41.1875 253.178 41.0724 253.974 41.0079C257.619 40.7087 259.382 41.7168 259.65 41.8871C259.645 41.5465 259.645 41.1967 259.645 40.8422ZM273.291 24.718C277.122 25.2243 282.127 26.1265 283.487 26.3704C283.487 26.0298 283.487 25.7214 283.482 25.436C281.891 25.146 277.02 24.2807 273.287 23.7882V24.718H273.291ZM271.279 23.558C271.08 23.5396 270.891 23.5212 270.71 23.5074C267.81 23.268 265.997 23.8066 265.085 24.207C265.085 24.5062 265.09 24.8514 265.09 25.2289C265.608 24.9435 267.361 24.1564 270.636 24.4234C270.84 24.4418 271.057 24.4602 271.279 24.4832V23.558ZM279.744 29.031C280.995 29.2428 282.244 29.4622 283.491 29.6892V28.7548C282.765 28.6213 281.387 28.3773 279.744 28.1012V29.031ZM277.737 27.7651C275.234 27.3647 272.533 26.9688 270.738 26.8215C267.824 26.5822 266.006 27.1253 265.095 27.5258V28.5522C265.585 28.2761 267.338 27.4659 270.659 27.7375C272.468 27.8848 275.211 28.2899 277.732 28.6949V27.7651H277.737ZM277.348 31.0148V31.9447C280.036 32.3727 282.538 32.8238 283.491 32.9987V32.0643C282.414 31.871 279.957 31.4337 277.348 31.0148ZM273.287 33.7352C272.357 33.6155 271.497 33.5143 270.784 33.459C267.819 33.2151 265.987 33.7812 265.095 34.1863V35.222C265.511 34.978 267.273 34.0942 270.71 34.375C271.441 34.4349 272.329 34.5361 273.287 34.665V33.7352ZM275.299 34.016V34.9458C278.653 35.4429 282.266 36.0919 283.487 36.3129V35.3785C282.108 35.1253 278.57 34.4993 275.299 34.016ZM275.706 37.39C273.879 37.1138 272.107 36.8791 270.812 36.7732C267.815 36.5292 265.973 37.1092 265.095 37.5143V38.5545C265.446 38.3382 267.209 37.4038 270.738 37.6938C272.047 37.7997 273.856 38.0436 275.711 38.3244V37.39H275.706ZM277.714 37.703V38.6374C280.23 39.0425 282.534 39.4567 283.482 39.627V38.6926C282.427 38.4993 280.161 38.0942 277.714 37.703ZM280.984 41.5603V42.4947C282.076 42.6834 282.969 42.8445 283.478 42.9366V42.0022C282.922 41.9009 282.044 41.7444 280.984 41.5603ZM273.699 43.7283C272.639 43.5856 271.659 43.4705 270.863 43.4061C267.791 43.1529 265.936 43.7697 265.085 44.1748V45.2243C265.182 45.1552 266.931 44.0045 270.794 44.3221C271.608 44.3865 272.616 44.5062 273.708 44.6535V43.7283H273.699ZM275.706 44.0137V44.9435C278.889 45.4222 282.229 46.0206 283.478 46.2461V45.3117C282.09 45.0632 278.815 44.4832 275.706 44.0137ZM277.348 47.581C275.003 47.2082 272.551 46.8583 270.886 46.7203C267.773 46.4671 265.913 47.1023 265.076 47.5028V48.5154L265.099 48.543C265.113 48.5338 266.852 47.3094 270.817 47.6362C272.496 47.7743 274.989 48.1334 277.358 48.5108V47.581H277.348ZM279.361 47.9124V48.8468C281.16 49.146 282.696 49.4222 283.473 49.5649V48.6305C282.626 48.474 281.109 48.2024 279.361 47.9124ZM270.757 40.0827C267.768 39.848 265.946 40.4418 265.085 40.8422V41.8871C265.354 41.7168 267.111 40.7087 270.757 41.0079V40.0827ZM272.769 40.2945V41.2197C274.675 41.459 276.964 41.8181 278.977 42.1495V41.2151C276.95 40.8837 274.661 40.5292 272.769 40.2945ZM269.272 30.085C267.199 30.0989 265.835 30.5223 265.099 30.8537V31.8848C265.488 31.6639 266.815 31.0241 269.272 31.001V30.085ZM271.279 30.1863V31.1115C272.431 31.2266 273.86 31.4199 275.336 31.6363V30.7064C273.856 30.4855 272.431 30.2968 271.279 30.1863Z" fill="#757575"/>
<path d="M265.312 56.3592C264.794 56.3131 264.317 56.6307 264.151 57.1233C263.901 57.8735 263.318 58.854 262 58.854C260.668 58.854 260.08 57.8689 259.826 57.1186C259.746 56.8835 259.591 56.6815 259.383 56.5447C259.175 56.4079 258.927 56.3442 258.678 56.3638L258.498 56.3776L258.503 56.5249C258.503 57.4466 258.871 58.3305 259.526 58.9822C260.181 59.634 261.069 60.0001 261.995 60.0001C262.921 60.0001 263.81 59.634 264.465 58.9822C265.12 58.3305 265.488 57.4466 265.488 56.5249C265.488 56.4788 265.483 56.373 265.483 56.373L265.312 56.3592Z" fill="#616161"/>
<defs>
<linearGradient id="paint0_linear_152_1659" x1="286.629" y1="51.6412" x2="286.743" y2="43.6766" gradientUnits="userSpaceOnUse">
<stop offset="0.267" stop-color="#82AEC0"/>
<stop offset="1" stop-color="#82AEC0" stop-opacity="0"/>
</linearGradient>
<linearGradient id="paint1_linear_152_1659" x1="264.737" y1="49.9836" x2="284.541" y2="49.9836" gradientUnits="userSpaceOnUse">
<stop stop-color="#2F7889"/>
<stop offset="1" stop-color="#82AEC0"/>
</linearGradient>
<linearGradient id="paint2_linear_152_1659" x1="259.215" y1="49.9836" x2="239.456" y2="49.9836" gradientUnits="userSpaceOnUse">
<stop stop-color="#2F7889"/>
<stop offset="1" stop-color="#82AEC0"/>
</linearGradient>
<linearGradient id="paint3_linear_152_1659" x1="237.369" y1="51.6412" x2="237.256" y2="43.6766" gradientUnits="userSpaceOnUse">
<stop offset="0.267" stop-color="#82AEC0"/>
<stop offset="1" stop-color="#82AEC0" stop-opacity="0"/>
</linearGradient>
</defs>
</svg>
