<svg width="312" height="83" viewBox="0 0 312 83" fill="none" xmlns="http://www.w3.org/2000/svg">
<rect x="0.00732422" width="312" height="83" rx="7" fill="#F2D8D8"/>
<path d="M26.0073 47H125.007C128.873 47 132.007 43.866 132.007 40V27C132.007 23.134 128.873 20 125.007 20H33.0073C29.1413 20 26.0073 23.134 26.0073 27V47Z" fill="#EA7373"/>
<path d="M61.3788 28.8182V39H59.7381L54.9406 32.0646H54.856V39H53.0116V28.8182H54.6622L59.4548 35.7585H59.5443V28.8182H61.3788ZM72.4866 33.9091C72.4866 35.0062 72.2811 35.9458 71.8701 36.728C71.4624 37.5069 70.9056 38.1035 70.1996 38.5178C69.497 38.9321 68.6999 39.1392 67.8083 39.1392C66.9167 39.1392 66.1179 38.9321 65.412 38.5178C64.7093 38.1001 64.1525 37.5019 63.7415 36.723C63.3339 35.9408 63.13 35.0028 63.13 33.9091C63.13 32.812 63.3339 31.8741 63.7415 31.0952C64.1525 30.313 64.7093 29.7147 65.412 29.3004C66.1179 28.8861 66.9167 28.679 67.8083 28.679C68.6999 28.679 69.497 28.8861 70.1996 29.3004C70.9056 29.7147 71.4624 30.313 71.8701 31.0952C72.2811 31.8741 72.4866 32.812 72.4866 33.9091ZM70.6321 33.9091C70.6321 33.1368 70.5112 32.4856 70.2692 31.9553C70.0306 31.4216 69.6991 31.0189 69.2749 30.7472C68.8507 30.4721 68.3618 30.3345 67.8083 30.3345C67.2548 30.3345 66.7659 30.4721 66.3417 30.7472C65.9174 31.0189 65.5843 31.4216 65.3424 31.9553C65.1037 32.4856 64.9844 33.1368 64.9844 33.9091C64.9844 34.6813 65.1037 35.3343 65.3424 35.8679C65.5843 36.3982 65.9174 36.8009 66.3417 37.076C66.7659 37.3478 67.2548 37.4837 67.8083 37.4837C68.3618 37.4837 68.8507 37.3478 69.2749 37.076C69.6991 36.8009 70.0306 36.3982 70.2692 35.8679C70.5112 35.3343 70.6321 34.6813 70.6321 33.9091ZM73.3317 30.3643V28.8182H81.4553V30.3643H78.3083V39H76.4787V30.3643H73.3317ZM84.8658 28.8182V39H83.0214V28.8182H84.8658ZM95.5783 32.2536H93.719C93.6659 31.9486 93.5682 31.6785 93.4256 31.4432C93.2831 31.2045 93.1058 31.0024 92.8937 30.8366C92.6816 30.6709 92.4396 30.5466 92.1678 30.4638C91.8994 30.3776 91.6094 30.3345 91.2978 30.3345C90.7443 30.3345 90.2538 30.4737 89.8262 30.7521C89.3987 31.0272 89.0639 31.4316 88.822 31.9652C88.58 32.4955 88.459 33.1435 88.459 33.9091C88.459 34.688 88.58 35.3442 88.822 35.8778C89.0672 36.4081 89.402 36.8092 89.8262 37.081C90.2538 37.3494 90.7426 37.4837 91.2928 37.4837C91.5978 37.4837 91.8828 37.4439 92.1479 37.3643C92.4164 37.2815 92.6567 37.1605 92.8688 37.0014C93.0843 36.8423 93.2649 36.6468 93.4107 36.4148C93.5599 36.1828 93.6626 35.9176 93.719 35.6193L95.5783 35.6293C95.5087 36.1132 95.3579 36.5672 95.1259 36.9915C94.8972 37.4157 94.5973 37.7902 94.2261 38.1151C93.8549 38.4366 93.4207 38.6884 92.9235 38.8707C92.4264 39.0497 91.8745 39.1392 91.268 39.1392C90.3731 39.1392 89.5743 38.9321 88.8717 38.5178C88.169 38.1035 87.6155 37.5052 87.2112 36.723C86.8068 35.9408 86.6046 35.0028 86.6046 33.9091C86.6046 32.812 86.8085 31.8741 87.2161 31.0952C87.6238 30.313 88.179 29.7147 88.8816 29.3004C89.5843 28.8861 90.3797 28.679 91.268 28.679C91.8347 28.679 92.3617 28.7585 92.8489 28.9176C93.3362 29.0767 93.7703 29.3104 94.1515 29.6186C94.5327 29.9235 94.8459 30.2981 95.0911 30.7422C95.3397 31.183 95.5021 31.6868 95.5783 32.2536ZM97.2674 39V28.8182H103.89V30.3643H99.1119V33.1286H103.547V34.6747H99.1119V37.4538H103.929V39H97.2674Z" fill="white"/>
<path d="M28.1173 53.43H29.1373V54.99C29.1373 57.09 28.5473 59.13 27.0573 60.03L26.2373 59.05C27.6173 58.22 28.1173 56.56 28.1173 54.99V53.43ZM28.3773 53.43H29.4073V54.89C29.4073 56.49 29.8273 58 31.1173 58.71L30.3473 59.76C28.8473 58.92 28.3773 57.01 28.3773 54.89V53.43ZM33.0973 52.63H34.3673V61.89H33.0973V52.63ZM31.9873 56.23H33.5173V57.3H31.9873V56.23ZM31.0973 52.77H32.3473V61.47H31.0973V52.77ZM35.6165 59.79H43.9965V60.87H35.6165V59.79ZM39.1265 58.04H40.4565V60.23H39.1265V58.04ZM36.5565 53.23H43.0565V56.31H37.8965V57.87H36.5765V55.27H41.7365V54.28H36.5565V53.23ZM36.5765 57.34H43.2665V58.41H36.5765V57.34ZM44.8058 57.13H53.1958V58.18H44.8058V57.13ZM48.3958 57.82H49.7458V59.77H48.3958V57.82ZM45.7858 60.66H52.2758V61.73H45.7858V60.66ZM45.7858 58.96H47.1258V60.93H45.7858V58.96ZM48.9958 52.8C50.9858 52.8 52.3258 53.55 52.3258 54.72C52.3258 55.9 50.9858 56.64 48.9958 56.64C46.9958 56.64 45.6658 55.9 45.6658 54.72C45.6658 53.55 46.9958 52.8 48.9958 52.8ZM48.9958 53.85C47.8258 53.85 47.0958 54.15 47.0958 54.72C47.0958 55.29 47.8258 55.58 48.9958 55.58C50.1658 55.58 50.8958 55.29 50.8958 54.72C50.8958 54.15 50.1658 53.85 48.9958 53.85ZM60.6254 58.39C62.6254 58.39 63.9054 59.05 63.9054 60.15C63.9054 61.23 62.6254 61.89 60.6254 61.89C58.6254 61.89 57.3454 61.23 57.3454 60.15C57.3454 59.05 58.6254 58.39 60.6254 58.39ZM60.6254 59.39C59.3754 59.39 58.6654 59.65 58.6654 60.15C58.6654 60.64 59.3754 60.89 60.6254 60.89C61.8754 60.89 62.5854 60.64 62.5854 60.15C62.5854 59.65 61.8754 59.39 60.6254 59.39ZM57.4454 53.04H63.3054V54.09H57.4454V53.04ZM56.5054 56.76H64.8454V57.82H56.5054V56.76ZM59.5954 55.15H60.9154V57.03H59.5954V55.15ZM62.5354 53.04H63.8554V53.8C63.8554 54.53 63.8554 55.32 63.6054 56.28L62.2854 56.14C62.5354 55.19 62.5354 54.52 62.5354 53.8V53.04ZM67.9147 54.09H68.9747V55.13C68.9747 57.27 68.1047 59.36 66.3647 60.15L65.6147 59.1C67.1647 58.41 67.9147 56.7 67.9147 55.13V54.09ZM68.2147 54.09H69.2647V55.13C69.2647 56.63 70.0047 58.23 71.5547 58.87L70.8347 59.92C69.0747 59.16 68.2147 57.19 68.2147 55.13V54.09ZM65.9847 53.52H71.1747V54.61H65.9847V53.52ZM72.0347 52.63H73.3747V61.89H72.0347V52.63ZM76.9639 53.34H78.0439V54.69C78.0439 56.98 77.2439 59.13 75.4939 59.99L74.6939 58.92C76.2539 58.19 76.9639 56.41 76.9639 54.69V53.34ZM77.2339 53.34H78.2939V54.69C78.2939 56.35 78.9539 58.04 80.4339 58.76L79.6339 59.82C77.9639 58.97 77.2339 56.91 77.2339 54.69V53.34ZM80.8039 52.63H82.1439V61.89H80.8039V52.63ZM81.8439 56.19H83.4839V57.3H81.8439V56.19ZM90.0431 52.63H91.3731V58.5H90.0431V52.63ZM91.0031 54.99H92.6031V56.08H91.0031V54.99ZM88.3631 58.6C90.2731 58.6 91.4731 59.21 91.4731 60.25C91.4731 61.28 90.2731 61.89 88.3631 61.89C86.4531 61.89 85.2531 61.28 85.2531 60.25C85.2531 59.21 86.4531 58.6 88.3631 58.6ZM88.3631 59.6C87.1931 59.6 86.5731 59.81 86.5731 60.25C86.5731 60.69 87.1931 60.9 88.3631 60.9C89.5331 60.9 90.1531 60.69 90.1531 60.25C90.1531 59.81 89.5331 59.6 88.3631 59.6ZM84.0831 53.51H89.5331V54.54H84.0831V53.51ZM86.8131 54.85C88.1531 54.85 89.0831 55.52 89.0831 56.51C89.0831 57.51 88.1531 58.17 86.8131 58.17C85.4631 58.17 84.5331 57.51 84.5331 56.51C84.5331 55.52 85.4631 54.85 86.8131 54.85ZM86.8131 55.82C86.2131 55.82 85.8131 56.06 85.8131 56.51C85.8131 56.96 86.2131 57.2 86.8131 57.2C87.4031 57.2 87.8131 56.96 87.8131 56.51C87.8131 56.06 87.4031 55.82 86.8131 55.82ZM86.1431 52.57H87.4731V54.06H86.1431V52.57ZM97.4723 52.76C99.5823 52.76 100.822 53.32 100.822 54.34C100.822 55.36 99.5823 55.92 97.4723 55.92C95.3523 55.92 94.1223 55.36 94.1223 54.34C94.1223 53.32 95.3523 52.76 97.4723 52.76ZM97.4723 53.73C96.1323 53.73 95.5023 53.93 95.5023 54.34C95.5023 54.77 96.1323 54.95 97.4723 54.95C98.8123 54.95 99.4423 54.77 99.4423 54.34C99.4423 53.93 98.8123 53.73 97.4723 53.73ZM93.2823 56.35H101.652V57.4H93.2823V56.35ZM94.2423 57.92H100.642V60.3H95.5623V61.12H94.2523V59.38H99.3323V58.91H94.2423V57.92ZM94.2523 60.83H100.882V61.83H94.2523V60.83ZM107.062 56.86H108.392V58.19H107.062V56.86ZM110.982 52.64H112.312V58.94H110.982V52.64ZM111.842 55.28H113.472V56.37H111.842V55.28ZM105.002 58.76L104.852 57.73C106.512 57.73 108.702 57.72 110.572 57.49L110.672 58.4C108.742 58.73 106.622 58.75 105.002 58.76ZM106.032 59.31H112.312V61.89H110.982V60.33H106.032V59.31ZM105.092 53.31H110.342V54.26H105.092V53.31ZM107.722 54.48C109.082 54.48 109.972 55.01 109.972 55.86C109.972 56.71 109.082 57.24 107.722 57.24C106.352 57.24 105.462 56.71 105.462 55.86C105.462 55.01 106.352 54.48 107.722 54.48ZM107.722 55.35C107.092 55.35 106.722 55.51 106.722 55.86C106.722 56.19 107.092 56.37 107.722 56.37C108.342 56.37 108.712 56.19 108.712 55.86C108.712 55.51 108.342 55.35 107.722 55.35ZM107.062 52.56H108.392V53.74H107.062V52.56ZM120.521 52.64H121.861V59.29H120.521V52.64ZM115.691 60.67H122.091V61.73H115.691V60.67ZM115.691 58.62H117.021V61.1H115.691V58.62ZM116.821 53.22C118.241 53.22 119.331 54.2 119.331 55.57C119.331 56.93 118.241 57.92 116.821 57.92C115.401 57.92 114.301 56.93 114.301 55.57C114.301 54.2 115.401 53.22 116.821 53.22ZM116.821 54.37C116.131 54.37 115.601 54.81 115.601 55.57C115.601 56.32 116.131 56.76 116.821 56.76C117.501 56.76 118.031 56.32 118.031 55.57C118.031 54.81 117.501 54.37 116.821 54.37ZM123.35 54.02H127.78V55.08H123.35V54.02ZM125.58 55.49C126.76 55.49 127.61 56.4 127.61 57.7C127.61 58.99 126.76 59.9 125.58 59.9C124.41 59.9 123.55 58.99 123.55 57.7C123.55 56.4 124.41 55.49 125.58 55.49ZM125.58 56.6C125.08 56.6 124.73 57 124.73 57.7C124.73 58.4 125.08 58.79 125.58 58.79C126.08 58.79 126.44 58.4 126.44 57.7C126.44 57 126.08 56.6 125.58 56.6ZM130.05 52.63H131.32V61.89H130.05V52.63ZM128.94 56.39H130.47V57.46H128.94V56.39ZM128.11 52.8H129.35V61.5H128.11V52.8ZM124.93 52.88H126.24V54.69H124.93V52.88ZM135.05 59.74H143.43V60.82H135.05V59.74ZM138.56 57.76H139.89V60H138.56V57.76ZM135.93 53.22H137.25V54.64H141.2V53.22H142.52V58.04H135.93V53.22ZM137.25 55.68V56.98H141.2V55.68H137.25ZM147.889 55.74H149.419V56.82H147.889V55.74ZM145.909 53.43H146.929V54.99C146.929 57.09 146.349 59.14 144.869 60.05L144.069 59.05C145.429 58.21 145.909 56.56 145.909 54.99V53.43ZM146.199 53.43H147.199V54.93C147.199 56.44 147.589 57.98 148.849 58.8L148.129 59.84C146.659 58.93 146.199 56.93 146.199 54.93V53.43ZM150.929 52.63H152.199V61.89H150.929V52.63ZM149.049 52.77H150.289V61.47H149.049V52.77ZM155.289 57.33H156.609V59.93H155.289V57.33ZM158.649 57.33H159.979V59.93H158.649V57.33ZM153.449 59.74H161.829V60.82H153.449V59.74ZM157.629 53.08C159.619 53.08 161.089 54.06 161.089 55.57C161.089 57.08 159.619 58.05 157.629 58.05C155.629 58.05 154.169 57.08 154.169 55.57C154.169 54.06 155.629 53.08 157.629 53.08ZM157.629 54.12C156.339 54.12 155.479 54.65 155.479 55.57C155.479 56.48 156.339 57.02 157.629 57.02C158.919 57.02 159.779 56.48 159.779 55.57C159.779 54.65 158.919 54.12 157.629 54.12ZM164.471 53.7273L164.354 58.8622H163.211L163.097 53.7273H164.471ZM163.783 61.0781C163.567 61.0781 163.382 61.0024 163.229 60.8509C163.077 60.6993 163.001 60.5147 163.001 60.2969C163.001 60.0838 163.077 59.9015 163.229 59.75C163.382 59.5985 163.567 59.5227 163.783 59.5227C163.993 59.5227 164.176 59.5985 164.329 59.75C164.486 59.9015 164.564 60.0838 164.564 60.2969C164.564 60.4413 164.527 60.5727 164.454 60.6911C164.383 60.8094 164.288 60.9041 164.17 60.9751C164.054 61.0438 163.925 61.0781 163.783 61.0781Z" fill="black"/>
<path d="M249.77 60.9934L243.871 61.2407C241.873 61.1949 241.221 60.5765 240.511 58.7075L239.007 54.768L241.776 54.1679L243.077 57.5806C243.145 57.7613 243.267 57.9148 243.425 58.0186C243.582 58.1224 243.768 58.1712 243.954 58.1578L248.584 57.8097C249.876 57.6677 250.087 56.8935 249.81 56.1651L248.416 52.5142L251.935 51.2407L253.465 55.2581C253.945 56.5224 254.272 57.9242 253.716 59.0648C253.077 60.3795 252.054 60.8926 249.77 60.9934Z" fill="#82AEC0"/>
<path d="M239.007 55.1669L239.827 57.2407C239.827 57.2407 240.147 56.7618 241.188 56.6714C242.372 56.5675 242.836 57.1052 242.836 57.1052L241.994 54.9726L239.007 55.1669ZM249.242 54.5073L253.228 54.2407C253.769 55.4109 254.007 56.3326 254.007 56.3326C254.007 56.3326 253.174 55.6323 251.624 55.7362C250.516 55.8085 250.052 56.5811 250.052 56.5811L249.242 54.5073Z" fill="#2F7889"/>
<path d="M230.193 56.847C232.501 55.9331 233.027 51.7965 231.368 47.6077C229.71 43.419 226.494 40.7642 224.186 41.6782C221.878 42.5921 221.352 46.7287 223.011 50.9174C224.67 55.1062 227.885 57.761 230.193 56.847Z" fill="#B8DADE"/>
<path d="M232.007 53.3834C231.116 52.7329 228.703 54.5174 228.703 54.5174C228.394 56.6051 226.007 56.003 226.007 56.003C227.321 57.0754 228.726 57.5149 229.898 57.0666C231.144 56.5919 231.866 55.1986 232.007 53.3834Z" fill="#82AEC0"/>
<path d="M257.228 16.5056L226.21 41.5967C224.98 42.4357 224.397 45.8006 225.921 49.6215C227.444 53.4424 230.234 55.6583 231.694 55.175L271.555 52.4666C275.883 50.7659 276.181 41.3323 272.225 31.4016C268.27 21.471 261.556 14.8049 257.228 16.5056Z" fill="#F44336"/>
<path d="M263.248 46.5302C264.702 48.683 262.377 48.7789 253.027 50.3421C250.469 50.7717 228.664 54.1037 228.664 54.1037C229.252 54.6476 230.428 55.4932 231.431 55.1687C231.431 55.1687 270.278 52.7371 271.007 52.4492L263.248 46.5302ZM253.319 22.4065C253.957 21.9449 254.873 21.2318 255.092 19.9978C255.206 19.3533 255.288 18.6174 255.438 18.3021C255.735 17.6759 256.87 16.2407 256.87 16.2407L225.96 41.5482C225.126 42.1196 225.007 43.0748 225.007 43.0748C229.74 39.5189 248.614 25.8207 253.319 22.4065Z" fill="#C62828"/>
<path d="M273.368 52.8587C277.587 51.1879 277.653 41.3642 273.516 30.9167C269.379 20.4693 262.605 13.3545 258.385 15.0253C254.166 16.6961 254.1 26.5198 258.237 36.9672C262.375 47.4147 269.149 54.5295 273.368 52.8587Z" fill="#B8DADE"/>
<path d="M273.074 49.2492C275.842 48.1532 275.303 40.2369 271.869 31.5677C268.436 22.8984 263.41 16.7591 260.642 17.8551C257.874 18.9511 258.414 26.8674 261.847 35.5366C265.28 44.2059 270.307 50.3452 273.074 49.2492Z" fill="#2F7889"/>
<path d="M273.238 49.1129C276.007 48.0059 275.466 40.0046 272.033 31.2407L262.007 35.2552C265.44 44.0144 270.469 50.2199 273.238 49.1129Z" fill="url(#paint0_linear_152_1642)"/>
<path d="M256.391 27.1448C255.883 24.536 255.926 22.1568 256.249 20.2966C256.34 19.7914 256.639 19.1851 257.084 19.2448C257.525 19.3045 257.655 19.7914 257.603 20.3058C257.43 22.0603 257.564 24.4763 257.966 26.7682C258.056 27.278 258.048 27.944 257.43 28.2012C256.895 28.4309 256.481 27.6041 256.391 27.1448Z" fill="white"/>
<path opacity="0.45" d="M227.008 44.4868L251.928 26.9315C252.688 26.4028 253.631 25.5278 253.819 27.2871C253.935 28.3819 254.07 29.3271 253.976 30.7495C253.918 31.6338 252.259 32.3169 251.74 32.593L226.977 46.0636C226.602 46.2601 225.904 46.4426 226.02 45.7361C226.15 44.9734 226.807 44.6272 227.008 44.4868Z" fill="#FFCA28"/>
<defs>
<linearGradient id="paint0_linear_152_1642" x1="272.969" y1="47.684" x2="267.16" y2="33.8823" gradientUnits="userSpaceOnUse">
<stop stop-color="#353738"/>
<stop offset="1" stop-color="#353738" stop-opacity="0"/>
</linearGradient>
</defs>
</svg>
