<svg width="312" height="83" viewBox="0 0 312 83" fill="none" xmlns="http://www.w3.org/2000/svg">
<rect x="0.00732422" width="312" height="83" rx="7" fill="#F2D8D8"/>
<path d="M26.0073 47H125.007C128.873 47 132.007 43.866 132.007 40V27C132.007 23.134 128.873 20 125.007 20H33.0073C29.1413 20 26.0073 23.134 26.0073 27V47Z" fill="#EA7373"/>
<path d="M61.3788 28.8182V39H59.7381L54.9406 32.0646H54.856V39H53.0116V28.8182H54.6622L59.4548 35.7585H59.5443V28.8182H61.3788ZM72.4866 33.9091C72.4866 35.0062 72.2811 35.9458 71.8701 36.728C71.4624 37.5069 70.9056 38.1035 70.1996 38.5178C69.497 38.9321 68.6999 39.1392 67.8083 39.1392C66.9167 39.1392 66.1179 38.9321 65.412 38.5178C64.7093 38.1001 64.1525 37.5019 63.7415 36.723C63.3339 35.9408 63.13 35.0028 63.13 33.9091C63.13 32.812 63.3339 31.8741 63.7415 31.0952C64.1525 30.313 64.7093 29.7147 65.412 29.3004C66.1179 28.8861 66.9167 28.679 67.8083 28.679C68.6999 28.679 69.497 28.8861 70.1996 29.3004C70.9056 29.7147 71.4624 30.313 71.8701 31.0952C72.2811 31.8741 72.4866 32.812 72.4866 33.9091ZM70.6321 33.9091C70.6321 33.1368 70.5112 32.4856 70.2692 31.9553C70.0306 31.4216 69.6991 31.0189 69.2749 30.7472C68.8507 30.4721 68.3618 30.3345 67.8083 30.3345C67.2548 30.3345 66.7659 30.4721 66.3417 30.7472C65.9174 31.0189 65.5843 31.4216 65.3424 31.9553C65.1037 32.4856 64.9844 33.1368 64.9844 33.9091C64.9844 34.6813 65.1037 35.3343 65.3424 35.8679C65.5843 36.3982 65.9174 36.8009 66.3417 37.076C66.7659 37.3478 67.2548 37.4837 67.8083 37.4837C68.3618 37.4837 68.8507 37.3478 69.2749 37.076C69.6991 36.8009 70.0306 36.3982 70.2692 35.8679C70.5112 35.3343 70.6321 34.6813 70.6321 33.9091ZM73.3317 30.3643V28.8182H81.4553V30.3643H78.3083V39H76.4787V30.3643H73.3317ZM84.8658 28.8182V39H83.0214V28.8182H84.8658ZM95.5783 32.2536H93.719C93.6659 31.9486 93.5682 31.6785 93.4256 31.4432C93.2831 31.2045 93.1058 31.0024 92.8937 30.8366C92.6816 30.6709 92.4396 30.5466 92.1678 30.4638C91.8994 30.3776 91.6094 30.3345 91.2978 30.3345C90.7443 30.3345 90.2538 30.4737 89.8262 30.7521C89.3987 31.0272 89.0639 31.4316 88.822 31.9652C88.58 32.4955 88.459 33.1435 88.459 33.9091C88.459 34.688 88.58 35.3442 88.822 35.8778C89.0672 36.4081 89.402 36.8092 89.8262 37.081C90.2538 37.3494 90.7426 37.4837 91.2928 37.4837C91.5978 37.4837 91.8828 37.4439 92.1479 37.3643C92.4164 37.2815 92.6567 37.1605 92.8688 37.0014C93.0843 36.8423 93.2649 36.6468 93.4107 36.4148C93.5599 36.1828 93.6626 35.9176 93.719 35.6193L95.5783 35.6293C95.5087 36.1132 95.3579 36.5672 95.1259 36.9915C94.8972 37.4157 94.5973 37.7902 94.2261 38.1151C93.8549 38.4366 93.4207 38.6884 92.9235 38.8707C92.4264 39.0497 91.8745 39.1392 91.268 39.1392C90.3731 39.1392 89.5743 38.9321 88.8717 38.5178C88.169 38.1035 87.6155 37.5052 87.2112 36.723C86.8068 35.9408 86.6046 35.0028 86.6046 33.9091C86.6046 32.812 86.8085 31.8741 87.2161 31.0952C87.6238 30.313 88.179 29.7147 88.8816 29.3004C89.5843 28.8861 90.3797 28.679 91.268 28.679C91.8347 28.679 92.3617 28.7585 92.8489 28.9176C93.3362 29.0767 93.7703 29.3104 94.1515 29.6186C94.5327 29.9235 94.8459 30.2981 95.0911 30.7422C95.3397 31.183 95.5021 31.6868 95.5783 32.2536ZM97.2674 39V28.8182H103.89V30.3643H99.1119V33.1286H103.547V34.6747H99.1119V37.4538H103.929V39H97.2674Z" fill="white"/>
<path d="M28.5393 53.916H29.7633V55.788C29.7633 58.308 29.0553 60.756 27.2673 61.836L26.2833 60.66C27.9393 59.664 28.5393 57.672 28.5393 55.788V53.916ZM28.8513 53.916H30.0873V55.668C30.0873 57.588 30.5913 59.4 32.1393 60.252L31.2153 61.512C29.4153 60.504 28.8513 58.212 28.8513 55.668V53.916ZM34.5153 52.956H36.0393V64.068H34.5153V52.956ZM33.1833 57.276H35.0193V58.56H33.1833V57.276ZM32.1153 53.124H33.6153V63.564H32.1153V53.124ZM37.5384 61.548H47.5944V62.844H37.5384V61.548ZM41.7504 59.448H43.3464V62.076H41.7504V59.448ZM38.6664 53.676H46.4664V57.372H40.2744V59.244H38.6904V56.124H44.8824V54.936H38.6664V53.676ZM38.6904 58.608H46.7184V59.892H38.6904V58.608ZM48.5654 58.356H58.6335V59.616H48.5654V58.356ZM52.8734 59.184H54.4934V61.524H52.8734V59.184ZM49.7414 62.592H57.5294V63.876H49.7414V62.592ZM49.7414 60.552H51.3494V62.916H49.7414V60.552ZM53.5934 53.16C55.9814 53.16 57.5894 54.06 57.5894 55.464C57.5894 56.88 55.9814 57.768 53.5934 57.768C51.1934 57.768 49.5974 56.88 49.5974 55.464C49.5974 54.06 51.1934 53.16 53.5934 53.16ZM53.5934 54.42C52.1894 54.42 51.3134 54.78 51.3134 55.464C51.3134 56.148 52.1894 56.496 53.5934 56.496C54.9974 56.496 55.8734 56.148 55.8734 55.464C55.8734 54.78 54.9974 54.42 53.5934 54.42ZM67.5491 59.868C69.9491 59.868 71.4851 60.66 71.4851 61.98C71.4851 63.276 69.9491 64.068 67.5491 64.068C65.1491 64.068 63.6131 63.276 63.6131 61.98C63.6131 60.66 65.1491 59.868 67.5491 59.868ZM67.5491 61.068C66.0491 61.068 65.1971 61.38 65.1971 61.98C65.1971 62.568 66.0491 62.868 67.5491 62.868C69.0491 62.868 69.9011 62.568 69.9011 61.98C69.9011 61.38 69.0491 61.068 67.5491 61.068ZM63.7331 53.448H70.7651V54.708H63.7331V53.448ZM62.6051 57.912H72.6131V59.184H62.6051V57.912ZM66.3131 55.98H67.8971V58.236H66.3131V55.98ZM69.8411 53.448H71.4251V54.36C71.4251 55.236 71.4251 56.184 71.1251 57.336L69.5411 57.168C69.8411 56.028 69.8411 55.224 69.8411 54.36V53.448ZM76.2961 54.708H77.5681V55.956C77.5681 58.524 76.5241 61.032 74.4361 61.98L73.5361 60.72C75.3961 59.892 76.2961 57.84 76.2961 55.956V54.708ZM76.6561 54.708H77.9161V55.956C77.9161 57.756 78.8041 59.676 80.6641 60.444L79.8001 61.704C77.6881 60.792 76.6561 58.428 76.6561 55.956V54.708ZM73.9801 54.024H80.2081V55.332H73.9801V54.024ZM81.2401 52.956H82.8481V64.068H81.2401V52.956ZM87.1552 53.808H88.4512V55.428C88.4512 58.176 87.4912 60.756 85.3912 61.788L84.4312 60.504C86.3032 59.628 87.1552 57.492 87.1552 55.428V53.808ZM87.4792 53.808H88.7512V55.428C88.7512 57.42 89.5432 59.448 91.3192 60.312L90.3592 61.584C88.3552 60.564 87.4792 58.092 87.4792 55.428V53.808ZM91.7632 52.956H93.3712V64.068H91.7632V52.956ZM93.0112 57.228H94.9792V58.56H93.0112V57.228ZM102.85 52.956H104.446V60H102.85V52.956ZM104.002 55.788H105.922V57.096H104.002V55.788ZM100.834 60.12C103.126 60.12 104.566 60.852 104.566 62.1C104.566 63.336 103.126 64.068 100.834 64.068C98.5423 64.068 97.1023 63.336 97.1023 62.1C97.1023 60.852 98.5423 60.12 100.834 60.12ZM100.834 61.32C99.4303 61.32 98.6863 61.572 98.6863 62.1C98.6863 62.628 99.4303 62.88 100.834 62.88C102.238 62.88 102.982 62.628 102.982 62.1C102.982 61.572 102.238 61.32 100.834 61.32ZM95.6983 54.012H102.238V55.248H95.6983V54.012ZM98.9743 55.62C100.582 55.62 101.698 56.424 101.698 57.612C101.698 58.812 100.582 59.604 98.9743 59.604C97.3543 59.604 96.2383 58.812 96.2383 57.612C96.2383 56.424 97.3543 55.62 98.9743 55.62ZM98.9743 56.784C98.2543 56.784 97.7743 57.072 97.7743 57.612C97.7743 58.152 98.2543 58.44 98.9743 58.44C99.6823 58.44 100.174 58.152 100.174 57.612C100.174 57.072 99.6823 56.784 98.9743 56.784ZM98.1703 52.884H99.7663V54.672H98.1703V52.884ZM111.765 53.112C114.297 53.112 115.785 53.784 115.785 55.008C115.785 56.232 114.297 56.904 111.765 56.904C109.221 56.904 107.745 56.232 107.745 55.008C107.745 53.784 109.221 53.112 111.765 53.112ZM111.765 54.276C110.157 54.276 109.401 54.516 109.401 55.008C109.401 55.524 110.157 55.74 111.765 55.74C113.373 55.74 114.129 55.524 114.129 55.008C114.129 54.516 113.373 54.276 111.765 54.276ZM106.737 57.42H116.781V58.68H106.737V57.42ZM107.889 59.304H115.569V62.16H109.473V63.144H107.901V61.056H113.997V60.492H107.889V59.304ZM107.901 62.796H115.857V63.996H107.901V62.796ZM123.273 58.032H124.869V59.628H123.273V58.032ZM127.977 52.968H129.573V60.528H127.977V52.968ZM129.009 56.136H130.965V57.444H129.009V56.136ZM120.801 60.312L120.621 59.076C122.613 59.076 125.241 59.064 127.485 58.788L127.605 59.88C125.289 60.276 122.745 60.3 120.801 60.312ZM122.037 60.972H129.573V64.068H127.977V62.196H122.037V60.972ZM120.909 53.772H127.209V54.912H120.909V53.772ZM124.065 55.176C125.697 55.176 126.765 55.812 126.765 56.832C126.765 57.852 125.697 58.488 124.065 58.488C122.421 58.488 121.353 57.852 121.353 56.832C121.353 55.812 122.421 55.176 124.065 55.176ZM124.065 56.22C123.309 56.22 122.865 56.412 122.865 56.832C122.865 57.228 123.309 57.444 124.065 57.444C124.809 57.444 125.253 57.228 125.253 56.832C125.253 56.412 124.809 56.22 124.065 56.22ZM123.273 52.872H124.869V54.288H123.273V52.872ZM139.424 52.968H141.032V60.948H139.424V52.968ZM133.628 62.604H141.308V63.876H133.628V62.604ZM133.628 60.144H135.224V63.12H133.628V60.144ZM134.984 53.664C136.688 53.664 137.996 54.84 137.996 56.484C137.996 58.116 136.688 59.304 134.984 59.304C133.28 59.304 131.96 58.116 131.96 56.484C131.96 54.84 133.28 53.664 134.984 53.664ZM134.984 55.044C134.156 55.044 133.52 55.572 133.52 56.484C133.52 57.384 134.156 57.912 134.984 57.912C135.8 57.912 136.436 57.384 136.436 56.484C136.436 55.572 135.8 55.044 134.984 55.044ZM142.819 54.624H148.135V55.896H142.819V54.624ZM145.495 56.388C146.911 56.388 147.931 57.48 147.931 59.04C147.931 60.588 146.911 61.68 145.495 61.68C144.091 61.68 143.059 60.588 143.059 59.04C143.059 57.48 144.091 56.388 145.495 56.388ZM145.495 57.72C144.895 57.72 144.475 58.2 144.475 59.04C144.475 59.88 144.895 60.348 145.495 60.348C146.095 60.348 146.527 59.88 146.527 59.04C146.527 58.2 146.095 57.72 145.495 57.72ZM150.859 52.956H152.383V64.068H150.859V52.956ZM149.527 57.468H151.363V58.752H149.527V57.468ZM148.531 53.16H150.019V63.6H148.531V53.16ZM144.715 53.256H146.287V55.428H144.715V53.256ZM156.859 61.488H166.915V62.784H156.859V61.488ZM161.071 59.112H162.667V61.8H161.071V59.112ZM157.915 53.664H159.499V55.368H164.239V53.664H165.823V59.448H157.915V53.664ZM159.499 56.616V58.176H164.239V56.616H159.499ZM172.266 56.688H174.102V57.984H172.266V56.688ZM169.89 53.916H171.114V55.788C171.114 58.308 170.418 60.768 168.642 61.86L167.682 60.66C169.314 59.652 169.89 57.672 169.89 55.788V53.916ZM170.238 53.916H171.438V55.716C171.438 57.528 171.906 59.376 173.418 60.36L172.554 61.608C170.79 60.516 170.238 58.116 170.238 55.716V53.916ZM175.914 52.956H177.438V64.068H175.914V52.956ZM173.658 53.124H175.146V63.564H173.658V53.124ZM181.145 58.596H182.729V61.716H181.145V58.596ZM185.177 58.596H186.773V61.716H185.177V58.596ZM178.937 61.488H188.993V62.784H178.937V61.488ZM183.953 53.496C186.341 53.496 188.105 54.672 188.105 56.484C188.105 58.296 186.341 59.46 183.953 59.46C181.553 59.46 179.801 58.296 179.801 56.484C179.801 54.672 181.553 53.496 183.953 53.496ZM183.953 54.744C182.405 54.744 181.373 55.38 181.373 56.484C181.373 57.576 182.405 58.224 183.953 58.224C185.501 58.224 186.533 57.576 186.533 56.484C186.533 55.38 185.501 54.744 183.953 54.744ZM192.164 54.2727L192.024 60.4347H190.652L190.515 54.2727H192.164ZM191.338 63.0938C191.079 63.0938 190.857 63.0028 190.673 62.821C190.491 62.6392 190.4 62.4176 190.4 62.1562C190.4 61.9006 190.491 61.6818 190.673 61.5C190.857 61.3182 191.079 61.2273 191.338 61.2273C191.59 61.2273 191.809 61.3182 191.994 61.5C192.181 61.6818 192.275 61.9006 192.275 62.1562C192.275 62.3295 192.231 62.4872 192.143 62.6293C192.058 62.7713 191.944 62.8849 191.802 62.9702C191.663 63.0526 191.508 63.0938 191.338 63.0938Z" fill="black"/>
<path d="M262.763 60.9934L256.863 61.2407C254.866 61.1949 254.213 60.5765 253.503 58.7075L252 54.768L254.769 54.1679L256.07 57.5806C256.138 57.7613 256.259 57.9148 256.417 58.0186C256.575 58.1224 256.761 58.1712 256.947 58.1578L261.576 57.8097C262.868 57.6677 263.08 56.8935 262.802 56.1651L261.409 52.5142L264.927 51.2407L266.457 55.2581C266.938 56.5224 267.264 57.9242 266.709 59.0648C266.069 60.3795 265.046 60.8926 262.763 60.9934Z" fill="#82AEC0"/>
<path d="M252 55.1669L252.82 57.2407C252.82 57.2407 253.14 56.7618 254.18 56.6714C255.365 56.5675 255.829 57.1052 255.829 57.1052L254.986 54.9726L252 55.1669ZM262.234 54.5073L266.221 54.2407C266.761 55.4109 267 56.3326 267 56.3326C267 56.3326 266.167 55.6323 264.617 55.7362C263.509 55.8085 263.045 56.5811 263.045 56.5811L262.234 54.5073Z" fill="#2F7889"/>
<path d="M243.186 56.847C245.494 55.9331 246.02 51.7965 244.361 47.6077C242.702 43.419 239.487 40.7642 237.179 41.6782C234.871 42.5921 234.345 46.7287 236.004 50.9174C237.662 55.1062 240.878 57.761 243.186 56.847Z" fill="#B8DADE"/>
<path d="M245 53.3834C244.109 52.7329 241.695 54.5174 241.695 54.5174C241.386 56.6051 239 56.003 239 56.003C240.314 57.0754 241.718 57.5149 242.891 57.0666C244.136 56.5919 244.859 55.1986 245 53.3834Z" fill="#82AEC0"/>
<path d="M270.221 16.5056L239.202 41.5967C237.972 42.4357 237.39 45.8006 238.913 49.6215C240.437 53.4424 243.227 55.6583 244.686 55.175L284.548 52.4666C288.876 50.7659 289.174 41.3323 285.218 31.4016C281.262 21.471 274.548 14.8049 270.221 16.5056Z" fill="#F44336"/>
<path d="M276.241 46.5302C277.695 48.683 275.37 48.7789 266.019 50.3421C263.462 50.7717 241.656 54.1037 241.656 54.1037C242.244 54.6476 243.421 55.4932 244.424 55.1687C244.424 55.1687 283.271 52.7371 284 52.4492L276.241 46.5302ZM266.311 22.4065C266.949 21.9449 267.866 21.2318 268.085 19.9978C268.199 19.3533 268.281 18.6174 268.431 18.3021C268.727 17.6759 269.863 16.2407 269.863 16.2407L238.953 41.5482C238.119 42.1196 238 43.0748 238 43.0748C242.732 39.5189 261.606 25.8207 266.311 22.4065Z" fill="#C62828"/>
<path d="M286.36 52.8587C290.58 51.1879 290.646 41.3642 286.509 30.9167C282.371 20.4693 275.597 13.3545 271.378 15.0253C267.159 16.6961 267.093 26.5198 271.23 36.9672C275.367 47.4147 282.141 54.5295 286.36 52.8587Z" fill="#B8DADE"/>
<path d="M286.067 49.2492C288.835 48.1532 288.295 40.2369 284.862 31.5677C281.429 22.8984 276.402 16.7591 273.635 17.8551C270.867 18.9511 271.407 26.8674 274.84 35.5366C278.273 44.2059 283.299 50.3452 286.067 49.2492Z" fill="#2F7889"/>
<path d="M286.231 49.1129C289 48.0059 288.459 40.0046 285.026 31.2407L275 35.2552C278.433 44.0144 283.462 50.2199 286.231 49.1129Z" fill="url(#paint0_linear_152_1642)"/>
<path d="M269.383 27.1448C268.876 24.536 268.919 22.1568 269.242 20.2966C269.332 19.7914 269.632 19.1851 270.076 19.2448C270.517 19.3045 270.647 19.7914 270.596 20.3058C270.423 22.0603 270.557 24.4763 270.958 26.7682C271.049 27.278 271.041 27.944 270.423 28.2012C269.887 28.4309 269.474 27.6041 269.383 27.1448Z" fill="white"/>
<path opacity="0.45" d="M240.001 44.4868L264.92 26.9315C265.681 26.4028 266.624 25.5278 266.812 27.2871C266.928 28.3819 267.062 29.3271 266.968 30.7495C266.91 31.6338 265.251 32.3169 264.733 32.593L239.97 46.0636C239.594 46.2601 238.897 46.4426 239.013 45.7361C239.143 44.9734 239.8 44.6272 240.001 44.4868Z" fill="#FFCA28"/>
<defs>
<linearGradient id="paint0_linear_152_1642" x1="285.962" y1="47.684" x2="280.152" y2="33.8823" gradientUnits="userSpaceOnUse">
<stop stop-color="#353738"/>
<stop offset="1" stop-color="#353738" stop-opacity="0"/>
</linearGradient>
</defs>
</svg>
