<svg width="75" height="75" viewBox="0 0 75 75" fill="none" xmlns="http://www.w3.org/2000/svg">
<path d="M37.5 75C58.2107 75 75 58.2107 75 37.5C75 16.7893 58.2107 0 37.5 0C16.7893 0 0 16.7893 0 37.5C0 58.2107 16.7893 75 37.5 75Z" fill="#CAE4C1"/>
<path d="M47.5135 53.8601C47.8268 52.4401 54.2602 45.9668 56.8935 41.8134C61.0735 35.2134 59.2268 24.1001 59.2268 24.1001L51.0602 25.4001L48.8935 46.3001L47.5068 53.8668L47.5135 53.8601Z" fill="#1E1E1E"/>
<path d="M30.6401 19.3802C28.8668 19.2135 27.1068 19.8135 25.7735 21.0002C22.4801 23.9402 16.7335 30.1335 17.6135 36.8535C18.9201 46.7869 18.1068 48.1135 20.9335 52.7935C22.6268 55.5935 26.8468 57.2735 29.6468 57.8002C34.2935 58.6802 45.7535 53.2202 47.5135 52.0069C49.2201 50.8202 60.6468 22.1602 30.6401 19.3802Z" fill="white"/>
<path d="M30.8731 55.3999C31.0198 57.2666 30.8598 61.7533 26.5665 65.1199C25.9398 65.6133 26.3264 66.5466 27.1464 66.5466H42.7998C43.2931 66.5466 43.6931 66.1799 43.6931 65.7333V55.3399C43.6931 54.8866 43.2931 54.5266 42.7998 54.5266H31.7664C31.2464 54.5266 30.8398 54.9266 30.8798 55.3999H30.8731Z" fill="white"/>
<path d="M47.8274 50.5867H38.874V57.1333H47.8274V50.5867Z" fill="white"/>
<path d="M35.6671 55.3999C35.8071 57.2666 35.6538 61.7533 31.5805 65.1199C30.9871 65.6133 31.3471 66.5466 32.1338 66.5466H46.9872C47.4538 66.5466 47.8338 66.1799 47.8338 65.7333V55.3399C47.8338 54.8866 47.4538 54.5266 46.9872 54.5266H36.5138C36.0205 54.5266 35.6338 54.9266 35.6738 55.3999H35.6671Z" fill="white"/>
<path d="M17.7999 37.7268C17.7999 37.7268 11.0665 21.9934 20.0132 16.6001C20.0132 16.6001 22.5132 24.9401 21.2532 28.1401C21.2532 28.1401 16.8599 31.8068 17.8065 37.7268H17.7999Z" fill="#1E1E1E"/>
<path d="M43.6935 39.8067C27.6802 37.7267 24.5402 23.98 24.5402 23.98C24.2269 30.3934 28.1535 34.7867 28.1535 34.7867C28.1535 34.7867 17.5269 32.2734 18.3935 21.8934C18.9802 14.8734 23.5535 11.5867 25.5935 10.8267C25.5935 10.8267 38.1335 2.79337 51.7269 11.9467C55.6135 14.5667 58.9735 20.6 59.3335 25.3934C60.2402 37.36 53.0269 39.9534 53.0269 39.9534" fill="#1E1E1E"/>
<path d="M53.6528 42.7913C54.3501 40.3139 53.3524 37.8656 51.4244 37.323C49.4963 36.7803 47.3681 38.3487 46.6708 40.8261C45.9735 43.3035 46.9712 45.7517 48.8992 46.2944C50.8273 46.837 52.9555 45.2686 53.6528 42.7913Z" fill="white"/>
<path d="M23.3803 38.8134C23.87 38.8134 24.267 38.4164 24.267 37.9267C24.267 37.437 23.87 37.04 23.3803 37.04C22.8906 37.04 22.4937 37.437 22.4937 37.9267C22.4937 38.4164 22.8906 38.8134 23.3803 38.8134Z" fill="black"/>
<path d="M31.8339 38.8134C32.3236 38.8134 32.7206 38.4164 32.7206 37.9267C32.7206 37.437 32.3236 37.04 31.8339 37.04C31.3443 37.04 30.9473 37.437 30.9473 37.9267C30.9473 38.4164 31.3443 38.8134 31.8339 38.8134Z" fill="black"/>
<path d="M35.3858 47.0866C37.0832 47.0866 38.4592 45.7106 38.4592 44.0133C38.4592 42.3159 37.0832 40.9399 35.3858 40.9399C33.6885 40.9399 32.3125 42.3159 32.3125 44.0133C32.3125 45.7106 33.6885 47.0866 35.3858 47.0866Z" fill="#CAE4C1"/>
<path d="M19.3536 47.0866C21.051 47.0866 22.4269 45.7106 22.4269 44.0133C22.4269 42.3159 21.051 40.9399 19.3536 40.9399C17.6562 40.9399 16.2803 42.3159 16.2803 44.0133C16.2803 45.7106 17.6562 47.0866 19.3536 47.0866Z" fill="#CAE4C1"/>
<path d="M27.04 43.9599C26.6867 43.9599 26.3267 43.8266 26.0533 43.5799C25.6267 43.1933 25.4867 42.6266 25.68 42.0133C25.8467 41.4933 26.1667 41.2399 26.4 41.1266C26.98 40.8466 27.6067 41.0666 27.6733 41.0866C27.9067 41.1733 28.0267 41.4333 27.94 41.6666C27.8533 41.8999 27.5933 42.0133 27.3667 41.9333C27.2733 41.8999 26.9933 41.8333 26.7933 41.9333C26.6733 41.9933 26.5933 42.1066 26.5333 42.2866C26.4467 42.5599 26.4867 42.7733 26.6467 42.9199C26.8 43.0599 27.0467 43.1066 27.2133 43.0333C27.4333 42.9333 27.7067 43.0333 27.8067 43.2599C27.9067 43.4866 27.8067 43.7533 27.58 43.8533C27.4133 43.9266 27.2267 43.9666 27.04 43.9666V43.9599Z" fill="black"/>
<path d="M29.6874 57.7936L35.554 55.9736C35.554 55.9736 32.914 58.7336 28.874 62.7736C28.874 62.7736 30.734 59.9603 29.6874 57.7936Z" fill="#C5CBA3"/>
</svg>
