<svg width="8" height="8" viewBox="0 0 8 8" fill="none" xmlns="http://www.w3.org/2000/svg">
<path id="Vector" d="M4 8C1.7908 8 0 6.2092 0 4C0 1.7908 1.7908 0 4 0C6.2092 0 8 1.7908 8 4C8 6.2092 6.2092 8 4 8ZM4 7.2C4.84869 7.2 5.66263 6.86286 6.26274 6.26274C6.86286 5.66263 7.2 4.84869 7.2 4C7.2 3.15131 6.86286 2.33737 6.26274 1.73726C5.66263 1.13714 4.84869 0.8 4 0.8C3.15131 0.8 2.33737 1.13714 1.73726 1.73726C1.13714 2.33737 0.8 3.15131 0.8 4C0.8 4.84869 1.13714 5.66263 1.73726 6.26274C2.33737 6.86286 3.15131 7.2 4 7.2ZM3.6 5.2H4.4V6H3.6V5.2ZM4.4 4.542V4.8H3.6V4.2C3.6 4.09391 3.64214 3.99217 3.71716 3.91716C3.79217 3.84214 3.89391 3.8 4 3.8C4.11363 3.79999 4.22492 3.76772 4.32093 3.70693C4.41694 3.64615 4.49371 3.55935 4.54231 3.45663C4.59091 3.35392 4.60935 3.23952 4.59547 3.12674C4.5816 3.01396 4.53598 2.90743 4.46393 2.81956C4.39188 2.7317 4.29636 2.66609 4.18849 2.63039C4.08061 2.59468 3.96481 2.59035 3.85457 2.61788C3.74433 2.64542 3.64417 2.70369 3.56575 2.78593C3.48733 2.86816 3.43387 2.97097 3.4116 3.0824L2.6268 2.9252C2.67545 2.68203 2.7878 2.45615 2.95237 2.27063C3.11693 2.08512 3.32781 1.94663 3.56344 1.86933C3.79906 1.79202 4.05099 1.77867 4.29347 1.83065C4.53595 1.88262 4.76028 1.99805 4.94353 2.16513C5.12677 2.33221 5.26237 2.54496 5.33644 2.78163C5.41052 3.01829 5.42043 3.27038 5.36515 3.51212C5.30986 3.75387 5.19138 3.9766 5.02181 4.15755C4.85223 4.33849 4.63765 4.47116 4.4 4.542Z" fill="#E0E0E0"/>
</svg>
