<svg width="160" height="96" viewBox="0 0 160 96" fill="none" xmlns="http://www.w3.org/2000/svg">
<mask id="path-1-outside-1_851_648" maskUnits="userSpaceOnUse" x="0" y="73" width="160" height="20" fill="black">
<rect fill="white" y="73" width="160" height="20"/>
<path d="M17.448 79.552C17.448 80.56 17.176 81.472 16.632 82.288C16.088 83.104 15.296 83.704 14.256 84.088L17.928 91H11.976L9.048 84.976H7.08V91H1.776V74.488H11.88C13.064 74.488 14.072 74.72 14.904 75.184C15.752 75.632 16.384 76.248 16.8 77.032C17.232 77.8 17.448 78.64 17.448 79.552ZM12.048 79.768C12.048 79.336 11.904 78.976 11.616 78.688C11.328 78.4 10.976 78.256 10.56 78.256H7.08V81.304H10.56C10.976 81.304 11.328 81.16 11.616 80.872C11.904 80.568 12.048 80.2 12.048 79.768ZM28.2653 74.2C31.1133 74.2 33.3133 74.928 34.8653 76.384C36.4173 77.84 37.1933 79.96 37.1933 82.744C37.1933 85.528 36.4173 87.648 34.8653 89.104C33.3133 90.56 31.1133 91.288 28.2653 91.288C25.4173 91.288 23.2173 90.568 21.6653 89.128C20.1293 87.672 19.3613 85.544 19.3613 82.744C19.3613 79.944 20.1293 77.824 21.6653 76.384C23.2173 74.928 25.4173 74.2 28.2653 74.2ZM28.2653 78.16C27.1293 78.16 26.2653 78.504 25.6733 79.192C25.0813 79.88 24.7853 80.808 24.7853 81.976V83.512C24.7853 84.68 25.0813 85.608 25.6733 86.296C26.2653 86.984 27.1293 87.328 28.2653 87.328C29.4013 87.328 30.2653 86.984 30.8573 86.296C31.4653 85.608 31.7693 84.68 31.7693 83.512V81.976C31.7693 80.808 31.4653 79.88 30.8573 79.192C30.2653 78.504 29.4013 78.16 28.2653 78.16ZM47.9214 74.2C50.3694 74.2 52.3054 74.816 53.7294 76.048C55.1534 77.264 55.8654 79.008 55.8654 81.28H50.8014C50.8014 80.32 50.5454 79.56 50.0334 79C49.5374 78.44 48.8254 78.16 47.8974 78.16C46.8254 78.16 46.0334 78.496 45.5214 79.168C45.0254 79.84 44.7774 80.776 44.7774 81.976V83.512C44.7774 84.696 45.0254 85.632 45.5214 86.32C46.0334 86.992 46.8094 87.328 47.8494 87.328C48.8734 87.328 49.6494 87.064 50.1774 86.536C50.7054 86.008 50.9694 85.264 50.9694 84.304H55.8654C55.8654 86.56 55.1694 88.288 53.7774 89.488C52.4014 90.688 50.4494 91.288 47.9214 91.288C45.1054 91.288 42.9694 90.568 41.5134 89.128C40.0734 87.688 39.3534 85.56 39.3534 82.744C39.3534 79.928 40.0734 77.8 41.5134 76.36C42.9694 74.92 45.1054 74.2 47.9214 74.2ZM66.6011 74.2C69.0491 74.2 70.9851 74.816 72.4091 76.048C73.8331 77.264 74.5451 79.008 74.5451 81.28H69.4811C69.4811 80.32 69.2251 79.56 68.7131 79C68.2171 78.44 67.5051 78.16 66.5771 78.16C65.5051 78.16 64.7131 78.496 64.2011 79.168C63.7051 79.84 63.4571 80.776 63.4571 81.976V83.512C63.4571 84.696 63.7051 85.632 64.2011 86.32C64.7131 86.992 65.4891 87.328 66.5291 87.328C67.5531 87.328 68.3291 87.064 68.8571 86.536C69.3851 86.008 69.6491 85.264 69.6491 84.304H74.5451C74.5451 86.56 73.8491 88.288 72.4571 89.488C71.0811 90.688 69.1291 91.288 66.6011 91.288C63.7851 91.288 61.6491 90.568 60.1931 89.128C58.7531 87.688 58.0331 85.56 58.0331 82.744C58.0331 79.928 58.7531 77.8 60.1931 76.36C61.6491 74.92 63.7851 74.2 66.6011 74.2ZM77.6488 91V74.488H82.9528V91H77.6488ZM97.8009 91L97.1049 88.672H91.3209L90.6249 91H85.2009L91.2249 74.488H97.3929L103.417 91H97.8009ZM92.4249 84.976H96.0009L94.2729 79.096H94.1769L92.4249 84.976ZM119.505 74.2C121.921 74.2 123.713 74.864 124.881 76.192C126.065 77.504 126.657 79.552 126.657 82.336C126.657 85.488 126.073 87.768 124.905 89.176C123.753 90.584 121.953 91.288 119.505 91.288C117.505 91.288 115.905 90.808 114.705 89.848C113.505 88.872 112.905 87.496 112.905 85.72H117.177V85.888C117.177 86.512 117.369 87.032 117.753 87.448C118.137 87.848 118.697 88.048 119.433 88.048C120.185 88.048 120.769 87.792 121.185 87.28C121.617 86.752 121.833 86.048 121.833 85.168V83.776C121.369 84.192 120.817 84.504 120.177 84.712C119.537 84.92 118.929 85.024 118.353 85.024C117.249 85.024 116.249 84.832 115.353 84.448C114.473 84.048 113.777 83.472 113.265 82.72C112.753 81.952 112.497 81.032 112.497 79.96C112.497 78.136 113.121 76.72 114.369 75.712C115.633 74.704 117.345 74.2 119.505 74.2ZM119.481 77.44C118.729 77.44 118.145 77.648 117.729 78.064C117.329 78.464 117.129 79.04 117.129 79.792C117.129 80.544 117.329 81.128 117.729 81.544C118.129 81.944 118.705 82.144 119.457 82.144C120.225 82.144 120.809 81.952 121.209 81.568C121.625 81.168 121.833 80.592 121.833 79.84C121.833 79.088 121.625 78.504 121.209 78.088C120.809 77.656 120.233 77.44 119.481 77.44ZM135.657 74.2C138.233 74.2 140.041 74.936 141.081 76.408C142.137 77.864 142.665 79.976 142.665 82.744C142.665 85.512 142.137 87.632 141.081 89.104C140.041 90.56 138.233 91.288 135.657 91.288C133.065 91.288 131.241 90.56 130.185 89.104C129.145 87.632 128.625 85.512 128.625 82.744C128.625 79.976 129.145 77.864 130.185 76.408C131.241 74.936 133.065 74.2 135.657 74.2ZM135.657 77.44C134.825 77.44 134.233 77.76 133.881 78.4C133.529 79.04 133.353 80.088 133.353 81.544V83.92C133.353 85.392 133.529 86.448 133.881 87.088C134.233 87.728 134.825 88.048 135.657 88.048C136.489 88.048 137.073 87.728 137.409 87.088C137.745 86.448 137.913 85.392 137.913 83.92V81.544C137.913 80.072 137.745 79.024 137.409 78.4C137.073 77.76 136.489 77.44 135.657 77.44ZM158.624 87.304V91H146.168V87.304H150.08V79.84H146.168V77.056C147.24 76.992 148.44 76.712 149.768 76.216C151.096 75.704 152.256 75.12 153.248 74.464H154.856V87.304H158.624Z"/>
</mask>
<path d="M17.448 79.552C17.448 80.56 17.176 81.472 16.632 82.288C16.088 83.104 15.296 83.704 14.256 84.088L17.928 91H11.976L9.048 84.976H7.08V91H1.776V74.488H11.88C13.064 74.488 14.072 74.72 14.904 75.184C15.752 75.632 16.384 76.248 16.8 77.032C17.232 77.8 17.448 78.64 17.448 79.552ZM12.048 79.768C12.048 79.336 11.904 78.976 11.616 78.688C11.328 78.4 10.976 78.256 10.56 78.256H7.08V81.304H10.56C10.976 81.304 11.328 81.16 11.616 80.872C11.904 80.568 12.048 80.2 12.048 79.768ZM28.2653 74.2C31.1133 74.2 33.3133 74.928 34.8653 76.384C36.4173 77.84 37.1933 79.96 37.1933 82.744C37.1933 85.528 36.4173 87.648 34.8653 89.104C33.3133 90.56 31.1133 91.288 28.2653 91.288C25.4173 91.288 23.2173 90.568 21.6653 89.128C20.1293 87.672 19.3613 85.544 19.3613 82.744C19.3613 79.944 20.1293 77.824 21.6653 76.384C23.2173 74.928 25.4173 74.2 28.2653 74.2ZM28.2653 78.16C27.1293 78.16 26.2653 78.504 25.6733 79.192C25.0813 79.88 24.7853 80.808 24.7853 81.976V83.512C24.7853 84.68 25.0813 85.608 25.6733 86.296C26.2653 86.984 27.1293 87.328 28.2653 87.328C29.4013 87.328 30.2653 86.984 30.8573 86.296C31.4653 85.608 31.7693 84.68 31.7693 83.512V81.976C31.7693 80.808 31.4653 79.88 30.8573 79.192C30.2653 78.504 29.4013 78.16 28.2653 78.16ZM47.9214 74.2C50.3694 74.2 52.3054 74.816 53.7294 76.048C55.1534 77.264 55.8654 79.008 55.8654 81.28H50.8014C50.8014 80.32 50.5454 79.56 50.0334 79C49.5374 78.44 48.8254 78.16 47.8974 78.16C46.8254 78.16 46.0334 78.496 45.5214 79.168C45.0254 79.84 44.7774 80.776 44.7774 81.976V83.512C44.7774 84.696 45.0254 85.632 45.5214 86.32C46.0334 86.992 46.8094 87.328 47.8494 87.328C48.8734 87.328 49.6494 87.064 50.1774 86.536C50.7054 86.008 50.9694 85.264 50.9694 84.304H55.8654C55.8654 86.56 55.1694 88.288 53.7774 89.488C52.4014 90.688 50.4494 91.288 47.9214 91.288C45.1054 91.288 42.9694 90.568 41.5134 89.128C40.0734 87.688 39.3534 85.56 39.3534 82.744C39.3534 79.928 40.0734 77.8 41.5134 76.36C42.9694 74.92 45.1054 74.2 47.9214 74.2ZM66.6011 74.2C69.0491 74.2 70.9851 74.816 72.4091 76.048C73.8331 77.264 74.5451 79.008 74.5451 81.28H69.4811C69.4811 80.32 69.2251 79.56 68.7131 79C68.2171 78.44 67.5051 78.16 66.5771 78.16C65.5051 78.16 64.7131 78.496 64.2011 79.168C63.7051 79.84 63.4571 80.776 63.4571 81.976V83.512C63.4571 84.696 63.7051 85.632 64.2011 86.32C64.7131 86.992 65.4891 87.328 66.5291 87.328C67.5531 87.328 68.3291 87.064 68.8571 86.536C69.3851 86.008 69.6491 85.264 69.6491 84.304H74.5451C74.5451 86.56 73.8491 88.288 72.4571 89.488C71.0811 90.688 69.1291 91.288 66.6011 91.288C63.7851 91.288 61.6491 90.568 60.1931 89.128C58.7531 87.688 58.0331 85.56 58.0331 82.744C58.0331 79.928 58.7531 77.8 60.1931 76.36C61.6491 74.92 63.7851 74.2 66.6011 74.2ZM77.6488 91V74.488H82.9528V91H77.6488ZM97.8009 91L97.1049 88.672H91.3209L90.6249 91H85.2009L91.2249 74.488H97.3929L103.417 91H97.8009ZM92.4249 84.976H96.0009L94.2729 79.096H94.1769L92.4249 84.976ZM119.505 74.2C121.921 74.2 123.713 74.864 124.881 76.192C126.065 77.504 126.657 79.552 126.657 82.336C126.657 85.488 126.073 87.768 124.905 89.176C123.753 90.584 121.953 91.288 119.505 91.288C117.505 91.288 115.905 90.808 114.705 89.848C113.505 88.872 112.905 87.496 112.905 85.72H117.177V85.888C117.177 86.512 117.369 87.032 117.753 87.448C118.137 87.848 118.697 88.048 119.433 88.048C120.185 88.048 120.769 87.792 121.185 87.28C121.617 86.752 121.833 86.048 121.833 85.168V83.776C121.369 84.192 120.817 84.504 120.177 84.712C119.537 84.92 118.929 85.024 118.353 85.024C117.249 85.024 116.249 84.832 115.353 84.448C114.473 84.048 113.777 83.472 113.265 82.72C112.753 81.952 112.497 81.032 112.497 79.96C112.497 78.136 113.121 76.72 114.369 75.712C115.633 74.704 117.345 74.2 119.505 74.2ZM119.481 77.44C118.729 77.44 118.145 77.648 117.729 78.064C117.329 78.464 117.129 79.04 117.129 79.792C117.129 80.544 117.329 81.128 117.729 81.544C118.129 81.944 118.705 82.144 119.457 82.144C120.225 82.144 120.809 81.952 121.209 81.568C121.625 81.168 121.833 80.592 121.833 79.84C121.833 79.088 121.625 78.504 121.209 78.088C120.809 77.656 120.233 77.44 119.481 77.44ZM135.657 74.2C138.233 74.2 140.041 74.936 141.081 76.408C142.137 77.864 142.665 79.976 142.665 82.744C142.665 85.512 142.137 87.632 141.081 89.104C140.041 90.56 138.233 91.288 135.657 91.288C133.065 91.288 131.241 90.56 130.185 89.104C129.145 87.632 128.625 85.512 128.625 82.744C128.625 79.976 129.145 77.864 130.185 76.408C131.241 74.936 133.065 74.2 135.657 74.2ZM135.657 77.44C134.825 77.44 134.233 77.76 133.881 78.4C133.529 79.04 133.353 80.088 133.353 81.544V83.92C133.353 85.392 133.529 86.448 133.881 87.088C134.233 87.728 134.825 88.048 135.657 88.048C136.489 88.048 137.073 87.728 137.409 87.088C137.745 86.448 137.913 85.392 137.913 83.92V81.544C137.913 80.072 137.745 79.024 137.409 78.4C137.073 77.76 136.489 77.44 135.657 77.44ZM158.624 87.304V91H146.168V87.304H150.08V79.84H146.168V77.056C147.24 76.992 148.44 76.712 149.768 76.216C151.096 75.704 152.256 75.12 153.248 74.464H154.856V87.304H158.624Z" fill="white"/>
<path d="M16.632 82.288L15.8 81.7333L15.7999 81.7333L16.632 82.288ZM14.256 84.088L13.9096 83.1499L12.8359 83.5464L13.3729 84.5572L14.256 84.088ZM17.928 91V92H19.5916L18.8111 90.5308L17.928 91ZM11.976 91L11.0766 91.4372L11.3502 92H11.976V91ZM9.048 84.976L9.94739 84.5388L9.67381 83.976H9.048V84.976ZM7.08 84.976V83.976H6.08V84.976H7.08ZM7.08 91V92H8.08V91H7.08ZM1.776 91H0.776V92H1.776V91ZM1.776 74.488V73.488H0.776V74.488H1.776ZM14.904 75.184L14.4169 76.0574L14.4268 76.0629L14.4369 76.0682L14.904 75.184ZM16.8 77.032L15.9167 77.5007L15.9224 77.5116L15.9284 77.5223L16.8 77.032ZM11.616 78.688L10.9089 79.3951L10.9089 79.3951L11.616 78.688ZM7.08 78.256V77.256H6.08V78.256H7.08ZM7.08 81.304H6.08V82.304H7.08V81.304ZM11.616 80.872L12.3231 81.5791L12.3327 81.5696L12.342 81.5597L11.616 80.872ZM16.448 79.552C16.448 80.3684 16.2313 81.0863 15.8 81.7333L17.4641 82.8427C18.1208 81.8576 18.448 80.7516 18.448 79.552H16.448ZM15.7999 81.7333C15.3883 82.3508 14.7783 82.8292 13.9096 83.1499L14.6024 85.0261C15.8137 84.5788 16.7877 83.8572 17.4641 82.8427L15.7999 81.7333ZM13.3729 84.5572L17.0449 91.4692L18.8111 90.5308L15.1391 83.6188L13.3729 84.5572ZM17.928 90H11.976V92H17.928V90ZM12.8754 90.5628L9.94739 84.5388L8.14861 85.4132L11.0766 91.4372L12.8754 90.5628ZM9.048 83.976H7.08V85.976H9.048V83.976ZM6.08 84.976V91H8.08V84.976H6.08ZM7.08 90H1.776V92H7.08V90ZM2.776 91V74.488H0.776V91H2.776ZM1.776 75.488H11.88V73.488H1.776V75.488ZM11.88 75.488C12.9344 75.488 13.7659 75.6943 14.4169 76.0574L15.3911 74.3106C14.3781 73.7457 13.1936 73.488 11.88 73.488V75.488ZM14.4369 76.0682C15.1226 76.4305 15.6023 76.9082 15.9167 77.5007L17.6833 76.5633C17.1657 75.5878 16.3814 74.8335 15.3711 74.2998L14.4369 76.0682ZM15.9284 77.5223C16.2732 78.1352 16.448 78.8055 16.448 79.552H18.448C18.448 78.4745 18.1908 77.4648 17.6716 76.5417L15.9284 77.5223ZM13.048 79.768C13.048 79.0886 12.8109 78.4687 12.3231 77.9809L10.9089 79.3951C10.9971 79.4833 11.048 79.5834 11.048 79.768H13.048ZM12.3231 77.9809C11.8431 77.5009 11.2349 77.256 10.56 77.256V79.256C10.7171 79.256 10.8129 79.2991 10.9089 79.3951L12.3231 77.9809ZM10.56 77.256H7.08V79.256H10.56V77.256ZM6.08 78.256V81.304H8.08V78.256H6.08ZM7.08 82.304H10.56V80.304H7.08V82.304ZM10.56 82.304C11.2349 82.304 11.8431 82.0591 12.3231 81.5791L10.9089 80.1649C10.8129 80.2609 10.7171 80.304 10.56 80.304V82.304ZM12.342 81.5597C12.812 81.0636 13.048 80.4469 13.048 79.768H11.048C11.048 79.9531 10.996 80.0724 10.89 80.1843L12.342 81.5597ZM34.8652 89.104L34.1811 88.3747L34.8652 89.104ZM21.6653 89.128L20.9773 89.8538L20.9851 89.8611L21.6653 89.128ZM21.6653 76.384L22.3492 77.1135L22.3494 77.1133L21.6653 76.384ZM25.6733 79.192L26.4313 79.8442V79.8442L25.6733 79.192ZM30.8573 86.296L30.1079 85.6337L30.0992 85.6438L30.8573 86.296ZM30.8573 79.192L30.0992 79.8443L30.1079 79.8542L30.8573 79.192ZM28.2653 75.2C30.9469 75.2 32.8699 75.8832 34.1811 77.1133L35.5494 75.6547C33.7566 73.9728 31.2796 73.2 28.2653 73.2V75.2ZM34.1811 77.1133C35.4745 78.3267 36.1933 80.1468 36.1933 82.744H38.1933C38.1933 79.7732 37.36 77.3533 35.5494 75.6547L34.1811 77.1133ZM36.1933 82.744C36.1933 85.3412 35.4745 87.1613 34.1811 88.3747L35.5494 89.8333C37.36 88.1347 38.1933 85.7148 38.1933 82.744H36.1933ZM34.1811 88.3747C32.8699 89.6048 30.9469 90.288 28.2653 90.288V92.288C31.2796 92.288 33.7566 91.5152 35.5494 89.8333L34.1811 88.3747ZM28.2653 90.288C25.5808 90.288 23.6564 89.6113 22.3454 88.3949L20.9851 89.8611C22.7781 91.5247 25.2537 92.288 28.2653 92.288V90.288ZM22.3532 88.4022C21.0749 87.1905 20.3612 85.3621 20.3612 82.744H18.3612C18.3612 85.7259 19.1836 88.1535 20.9773 89.8538L22.3532 88.4022ZM20.3612 82.744C20.3612 80.1251 21.0752 78.3079 22.3492 77.1135L20.9813 75.6545C19.1833 77.3401 18.3612 79.7628 18.3612 82.744H20.3612ZM22.3494 77.1133C23.6606 75.8832 25.5836 75.2 28.2653 75.2V73.2C25.2509 73.2 22.7739 73.9728 20.9811 75.6547L22.3494 77.1133ZM28.2653 77.16C26.9173 77.16 25.7435 77.5772 24.9152 78.5398L26.4313 79.8442C26.787 79.4308 27.3412 79.16 28.2653 79.16V77.16ZM24.9152 78.5398C24.1267 79.4562 23.7853 80.6389 23.7853 81.976H25.7853C25.7853 80.9771 26.0358 80.3038 26.4313 79.8442L24.9152 78.5398ZM23.7853 81.976V83.512H25.7853V81.976H23.7853ZM23.7853 83.512C23.7853 84.8491 24.1267 86.0318 24.9152 86.9482L26.4313 85.6438C26.0358 85.1842 25.7853 84.5109 25.7853 83.512H23.7853ZM24.9152 86.9482C25.7435 87.9108 26.9173 88.328 28.2653 88.328V86.328C27.3412 86.328 26.787 86.0572 26.4313 85.6438L24.9152 86.9482ZM28.2653 88.328C29.6132 88.328 30.787 87.9108 31.6153 86.9482L30.0992 85.6438C29.7435 86.0572 29.1893 86.328 28.2653 86.328V88.328ZM31.6066 86.9582C32.4163 86.0419 32.7692 84.8555 32.7692 83.512H30.7693C30.7693 84.5045 30.5142 85.1741 30.1079 85.6338L31.6066 86.9582ZM32.7692 83.512V81.976H30.7693V83.512H32.7692ZM32.7692 81.976C32.7692 80.6325 32.4163 79.4461 31.6066 78.5298L30.1079 79.8542C30.5142 80.3139 30.7693 80.9835 30.7693 81.976H32.7692ZM31.6153 78.5398C30.787 77.5772 29.6132 77.16 28.2653 77.16V79.16C29.1893 79.16 29.7435 79.4308 30.0992 79.8442L31.6153 78.5398ZM53.7294 76.048L53.0751 76.8043L53.0801 76.8085L53.7294 76.048ZM55.8654 81.28V82.28H56.8654V81.28H55.8654ZM50.8014 81.28H49.8014V82.28H50.8014V81.28ZM50.0334 79L49.2849 79.663L49.2901 79.6689L49.2954 79.6748L50.0334 79ZM45.5214 79.168L44.726 78.562L44.7214 78.568L44.7169 78.5741L45.5214 79.168ZM45.5214 86.32L44.7103 86.9048L44.718 86.9155L44.726 86.926L45.5214 86.32ZM50.1774 86.536L49.4703 85.8289L50.1774 86.536ZM50.9694 84.304V83.304H49.9694V84.304H50.9694ZM55.8654 84.304H56.8654V83.304H55.8654V84.304ZM53.7774 89.488L53.1245 88.7306L53.1202 88.7343L53.7774 89.488ZM41.5134 89.128L40.8063 89.8351L40.8102 89.839L41.5134 89.128ZM41.5134 76.36L40.8102 75.649L40.8063 75.6529L41.5134 76.36ZM47.9214 75.2C50.2027 75.2 51.8817 75.7717 53.0752 76.8042L54.3837 75.2917C52.7292 73.8603 50.5362 73.2 47.9214 73.2V75.2ZM53.0801 76.8085C54.2344 77.7942 54.8654 79.2323 54.8654 81.28H56.8654C56.8654 78.7837 56.0725 76.7338 54.3788 75.2875L53.0801 76.8085ZM55.8654 80.28H50.8014V82.28H55.8654V80.28ZM51.8014 81.28C51.8014 80.139 51.4932 79.1147 50.7715 78.3252L49.2954 79.6748C49.5976 80.0053 49.8014 80.501 49.8014 81.28H51.8014ZM50.782 78.337C50.0519 77.5127 49.0373 77.16 47.8974 77.16V79.16C48.6135 79.16 49.0229 79.3673 49.2849 79.663L50.782 78.337ZM47.8974 77.16C46.6057 77.16 45.4769 77.5765 44.726 78.562L46.3169 79.774C46.59 79.4155 47.0452 79.16 47.8974 79.16V77.16ZM44.7169 78.5741C44.0492 79.4787 43.7774 80.6523 43.7774 81.976H45.7774C45.7774 80.8997 46.0016 80.2013 46.326 79.7619L44.7169 78.5741ZM43.7774 81.976V83.512H45.7774V81.976H43.7774ZM43.7774 83.512C43.7774 84.8251 44.0514 85.991 44.7103 86.9048L46.3326 85.7352C45.9994 85.273 45.7774 84.5669 45.7774 83.512H43.7774ZM44.726 86.926C45.4709 87.9038 46.5775 88.328 47.8494 88.328V86.328C47.0414 86.328 46.5959 86.0802 46.3169 85.714L44.726 86.926ZM47.8494 88.328C49.0379 88.328 50.1081 88.0195 50.8845 87.2431L49.4703 85.8289C49.1908 86.1085 48.7089 86.328 47.8494 86.328V88.328ZM50.8845 87.2431C51.6495 86.4781 51.9694 85.4499 51.9694 84.304H49.9694C49.9694 85.0781 49.7613 85.5379 49.4703 85.8289L50.8845 87.2431ZM50.9694 85.304H55.8654V83.304H50.9694V85.304ZM54.8654 84.304C54.8654 86.3411 54.2469 87.763 53.1245 88.7306L54.4304 90.2454C56.092 88.813 56.8654 86.7789 56.8654 84.304H54.8654ZM53.1202 88.7343C51.9858 89.7236 50.3006 90.288 47.9214 90.288V92.288C50.5982 92.288 52.817 91.6524 54.4347 90.2417L53.1202 88.7343ZM47.9214 90.288C45.268 90.288 43.4243 89.6114 42.2166 88.417L40.8102 89.839C42.5146 91.5246 44.9429 92.288 47.9214 92.288V90.288ZM42.2205 88.4209C41.0304 87.2307 40.3534 85.3983 40.3534 82.744H38.3534C38.3534 85.7217 39.1165 88.1453 40.8063 89.8351L42.2205 88.4209ZM40.3534 82.744C40.3534 80.0897 41.0304 78.2573 42.2205 77.0671L40.8063 75.6529C39.1165 77.3427 38.3534 79.7663 38.3534 82.744H40.3534ZM42.2166 77.071C43.4243 75.8766 45.268 75.2 47.9214 75.2V73.2C44.9429 73.2 42.5146 73.9634 40.8102 75.649L42.2166 77.071ZM72.4091 76.048L71.7548 76.8043L71.7597 76.8085L72.4091 76.048ZM74.5451 81.28V82.28H75.5451V81.28H74.5451ZM69.4811 81.28H68.4811V82.28H69.4811V81.28ZM68.7131 79L67.9645 79.663L67.9698 79.6689L67.9751 79.6748L68.7131 79ZM64.2011 79.168L63.4057 78.562L63.4011 78.568L63.3966 78.5741L64.2011 79.168ZM64.2011 86.32L63.3899 86.9048L63.3977 86.9155L63.4057 86.926L64.2011 86.32ZM68.8571 86.536L68.15 85.8289L68.8571 86.536ZM69.6491 84.304V83.304H68.6491V84.304H69.6491ZM74.5451 84.304H75.5451V83.304H74.5451V84.304ZM72.4571 89.488L71.8042 88.7306L71.7999 88.7343L72.4571 89.488ZM60.1931 89.128L59.486 89.8351L59.4899 89.839L60.1931 89.128ZM60.1931 76.36L59.4899 75.649L59.486 75.6529L60.1931 76.36ZM66.6011 75.2C68.8824 75.2 70.5614 75.7717 71.7548 76.8042L73.0634 75.2917C71.4089 73.8603 69.2158 73.2 66.6011 73.2V75.2ZM71.7597 76.8085C72.9141 77.7942 73.5451 79.2323 73.5451 81.28H75.5451C75.5451 78.7837 74.7522 76.7338 73.0585 75.2875L71.7597 76.8085ZM74.5451 80.28H69.4811V82.28H74.5451V80.28ZM70.4811 81.28C70.4811 80.139 70.1729 79.1147 69.4512 78.3252L67.9751 79.6748C68.2773 80.0053 68.4811 80.501 68.4811 81.28H70.4811ZM69.4617 78.337C68.7316 77.5127 67.717 77.16 66.5771 77.16V79.16C67.2932 79.16 67.7026 79.3673 67.9645 79.663L69.4617 78.337ZM66.5771 77.16C65.2854 77.16 64.1565 77.5765 63.4057 78.562L64.9966 79.774C65.2697 79.4155 65.7249 79.16 66.5771 79.16V77.16ZM63.3966 78.5741C62.7289 79.4787 62.4571 80.6523 62.4571 81.976H64.4571C64.4571 80.8997 64.6813 80.2013 65.0057 79.7619L63.3966 78.5741ZM62.4571 81.976V83.512H64.4571V81.976H62.4571ZM62.4571 83.512C62.4571 84.8251 62.7311 85.991 63.3899 86.9048L65.0123 85.7352C64.6791 85.273 64.4571 84.5669 64.4571 83.512H62.4571ZM63.4057 86.926C64.1506 87.9038 65.2572 88.328 66.5291 88.328V86.328C65.7211 86.328 65.2756 86.0802 64.9966 85.714L63.4057 86.926ZM66.5291 88.328C67.7176 88.328 68.7878 88.0195 69.5642 87.2431L68.15 85.8289C67.8704 86.1085 67.3886 86.328 66.5291 86.328V88.328ZM69.5642 87.2431C70.3292 86.4781 70.6491 85.4499 70.6491 84.304H68.6491C68.6491 85.0781 68.441 85.5379 68.15 85.8289L69.5642 87.2431ZM69.6491 85.304H74.5451V83.304H69.6491V85.304ZM73.5451 84.304C73.5451 86.3411 72.9265 87.763 71.8042 88.7306L73.1101 90.2454C74.7717 88.813 75.5451 86.7789 75.5451 84.304H73.5451ZM71.7999 88.7343C70.6655 89.7236 68.9803 90.288 66.6011 90.288V92.288C69.2779 92.288 71.4967 91.6524 73.1144 90.2417L71.7999 88.7343ZM66.6011 90.288C63.9477 90.288 62.104 89.6114 60.8963 88.417L59.4899 89.839C61.1943 91.5246 63.6226 92.288 66.6011 92.288V90.288ZM60.9002 88.4209C59.7101 87.2307 59.0331 85.3983 59.0331 82.744H57.0331C57.0331 85.7217 57.7962 88.1453 59.486 89.8351L60.9002 88.4209ZM59.0331 82.744C59.0331 80.0897 59.7101 78.2573 60.9002 77.0671L59.486 75.6529C57.7962 77.3427 57.0331 79.7663 57.0331 82.744H59.0331ZM60.8963 77.071C62.104 75.8766 63.9477 75.2 66.6011 75.2V73.2C63.6226 73.2 61.1943 73.9634 59.4899 75.649L60.8963 77.071ZM77.6488 91H76.6488V92H77.6488V91ZM77.6488 74.488V73.488H76.6488V74.488H77.6488ZM82.9528 74.488H83.9528V73.488H82.9528V74.488ZM82.9528 91V92H83.9528V91H82.9528ZM78.6488 91V74.488H76.6488V91H78.6488ZM77.6488 75.488H82.9528V73.488H77.6488V75.488ZM81.9528 74.488V91H83.9528V74.488H81.9528ZM82.9528 90H77.6488V92H82.9528V90ZM97.8009 91L96.8428 91.2864L97.0562 92H97.8009V91ZM97.1049 88.672L98.063 88.3856L97.8497 87.672H97.1049V88.672ZM91.3209 88.672V87.672H90.5762L90.3628 88.3856L91.3209 88.672ZM90.6249 91V92H91.3697L91.583 91.2864L90.6249 91ZM85.2009 91L84.2615 90.6573L83.7716 92H85.2009V91ZM91.2249 74.488V73.488H90.5253L90.2855 74.1453L91.2249 74.488ZM97.3929 74.488L98.3324 74.1453L98.0926 73.488H97.3929V74.488ZM103.417 91V92H104.846L104.356 90.6573L103.417 91ZM92.4249 84.976L91.4666 84.6904L91.0835 85.976H92.4249V84.976ZM96.0009 84.976V85.976H97.3371L96.9604 84.694L96.0009 84.976ZM94.2729 79.096L95.2324 78.814L95.0213 78.096H94.2729V79.096ZM94.1769 79.096V78.096H93.4314L93.2186 78.8104L94.1769 79.096ZM98.759 90.7136L98.063 88.3856L96.1468 88.9584L96.8428 91.2864L98.759 90.7136ZM97.1049 87.672H91.3209V89.672H97.1049V87.672ZM90.3628 88.3856L89.6668 90.7136L91.583 91.2864L92.279 88.9584L90.3628 88.3856ZM90.6249 90H85.2009V92H90.6249V90ZM86.1404 91.3427L92.1644 74.8307L90.2855 74.1453L84.2615 90.6573L86.1404 91.3427ZM91.2249 75.488H97.3929V73.488H91.2249V75.488ZM96.4535 74.8307L102.478 91.3427L104.356 90.6573L98.3324 74.1453L96.4535 74.8307ZM103.417 90H97.8009V92H103.417V90ZM92.4249 85.976H96.0009V83.976H92.4249V85.976ZM96.9604 84.694L95.2324 78.814L93.3135 79.378L95.0415 85.258L96.9604 84.694ZM94.2729 78.096H94.1769V80.096H94.2729V78.096ZM93.2186 78.8104L91.4666 84.6904L93.3833 85.2616L95.1353 79.3816L93.2186 78.8104ZM124.881 76.192L124.13 76.8525L124.138 76.862L124.881 76.192ZM124.905 89.176L124.135 88.5375L124.131 88.5428L124.905 89.176ZM114.705 89.848L114.074 90.6238L114.08 90.6289L114.705 89.848ZM112.905 85.72V84.72H111.905V85.72H112.905ZM117.177 85.72H118.177V84.72H117.177V85.72ZM117.753 87.448L117.018 88.1263L117.025 88.1335L117.031 88.1405L117.753 87.448ZM121.185 87.28L120.411 86.6468L120.409 86.6494L121.185 87.28ZM121.833 83.776H122.833V81.5364L121.165 83.0314L121.833 83.776ZM120.177 84.712L119.868 83.761L120.177 84.712ZM115.353 84.448L114.939 85.3584L114.949 85.3629L114.959 85.3671L115.353 84.448ZM113.265 82.72L112.433 83.2747L112.438 83.2828L113.265 82.72ZM114.369 75.712L113.745 74.9302L113.74 74.9341L114.369 75.712ZM117.729 78.064L117.022 77.3569V77.3569L117.729 78.064ZM117.729 81.544L117.008 82.2371L117.015 82.2442L117.022 82.2511L117.729 81.544ZM121.209 81.568L121.901 82.2894L121.902 82.2888L121.209 81.568ZM121.209 78.088L120.475 78.7674L120.488 78.7815L120.502 78.7951L121.209 78.088ZM119.505 75.2C121.743 75.2 123.214 75.8111 124.13 76.8524L125.632 75.5316C124.212 73.9169 122.098 73.2 119.505 73.2V75.2ZM124.138 76.862C125.084 77.9096 125.657 79.6636 125.657 82.336H127.657C127.657 79.4404 127.046 77.0984 125.623 75.522L124.138 76.862ZM125.657 82.336C125.657 85.4079 125.079 87.3992 124.135 88.5375L125.674 89.8145C127.066 88.1368 127.657 85.5681 127.657 82.336H125.657ZM124.131 88.5428C123.229 89.6449 121.763 90.288 119.505 90.288V92.288C122.142 92.288 124.277 91.5231 125.679 89.8092L124.131 88.5428ZM119.505 90.288C117.663 90.288 116.305 89.8474 115.33 89.0671L114.08 90.6289C115.505 91.7686 117.347 92.288 119.505 92.288V90.288ZM115.336 89.0722C114.406 88.3156 113.905 87.2451 113.905 85.72H111.905C111.905 87.7469 112.604 89.4284 114.074 90.6238L115.336 89.0722ZM112.905 86.72H117.177V84.72H112.905V86.72ZM116.177 85.72V85.888H118.177V85.72H116.177ZM116.177 85.888C116.177 86.7355 116.445 87.5061 117.018 88.1263L118.488 86.7697C118.292 86.5579 118.177 86.2885 118.177 85.888H116.177ZM117.031 88.1405C117.66 88.7951 118.517 89.048 119.433 89.048V87.048C118.876 87.048 118.614 86.9009 118.474 86.7555L117.031 88.1405ZM119.433 89.048C120.439 89.048 121.327 88.6908 121.961 87.9106L120.409 86.6494C120.211 86.8932 119.931 87.048 119.433 87.048V89.048ZM121.959 87.9132C122.575 87.1602 122.833 86.2109 122.833 85.168H120.833C120.833 85.8851 120.659 86.3438 120.411 86.6468L121.959 87.9132ZM122.833 85.168V83.776H120.833V85.168H122.833ZM121.165 83.0314C120.813 83.3471 120.386 83.5926 119.868 83.761L120.486 85.663C121.248 85.4154 121.924 85.0369 122.5 84.5206L121.165 83.0314ZM119.868 83.761C119.311 83.9419 118.808 84.024 118.353 84.024V86.024C119.05 86.024 119.762 85.8981 120.486 85.663L119.868 83.761ZM118.353 84.024C117.366 84.024 116.503 83.8529 115.747 83.5289L114.959 85.3671C115.995 85.8111 117.131 86.024 118.353 86.024V84.024ZM115.767 83.5376C115.043 83.2085 114.494 82.7481 114.091 82.1572L112.438 83.2828C113.06 84.1959 113.903 84.8875 114.939 85.3584L115.767 83.5376ZM114.097 82.1653C113.711 81.5868 113.497 80.8672 113.497 79.96H111.497C111.497 81.1968 111.794 82.3172 112.433 83.2747L114.097 82.1653ZM113.497 79.96C113.497 78.3915 114.018 77.2806 114.997 76.4899L113.74 74.9341C112.223 76.1594 111.497 77.8805 111.497 79.96H113.497ZM114.992 76.4938C116.028 75.6682 117.495 75.2 119.505 75.2V73.2C117.194 73.2 115.238 73.7398 113.745 74.9302L114.992 76.4938ZM119.481 76.44C118.541 76.44 117.674 76.7049 117.022 77.3569L118.436 78.7711C118.616 78.5911 118.917 78.44 119.481 78.44V76.44ZM117.022 77.3569C116.379 77.9999 116.129 78.8651 116.129 79.792H118.129C118.129 79.2149 118.279 78.9281 118.436 78.7711L117.022 77.3569ZM116.129 79.792C116.129 80.7214 116.38 81.5836 117.008 82.2371L118.45 80.8509C118.278 80.6724 118.129 80.3666 118.129 79.792H116.129ZM117.022 82.2511C117.665 82.8941 118.53 83.144 119.457 83.144V81.144C118.88 81.144 118.593 80.9939 118.436 80.8369L117.022 82.2511ZM119.457 83.144C120.382 83.144 121.253 82.9115 121.901 82.2894L120.516 80.8466C120.364 80.9925 120.067 81.144 119.457 81.144V83.144ZM121.902 82.2888C122.569 81.6478 122.833 80.7776 122.833 79.84H120.833C120.833 80.4064 120.681 80.6882 120.516 80.8472L121.902 82.2888ZM122.833 79.84C122.833 78.9001 122.568 78.0328 121.916 77.3809L120.502 78.7951C120.682 78.9752 120.833 79.2759 120.833 79.84H122.833ZM121.943 77.4086C121.304 76.7189 120.429 76.44 119.481 76.44V78.44C120.036 78.44 120.314 78.5931 120.475 78.7674L121.943 77.4086ZM141.081 76.408L140.264 76.9851L140.271 76.9951L141.081 76.408ZM141.081 89.104L140.268 88.5211L140.267 88.5228L141.081 89.104ZM130.185 89.104L129.368 89.6811L129.375 89.6911L130.185 89.104ZM130.185 76.408L129.372 75.8251L129.371 75.8268L130.185 76.408ZM133.881 78.4L133.004 77.9181L133.881 78.4ZM133.881 87.088L134.757 86.6061L133.881 87.088ZM137.409 87.088L136.523 86.6232L137.409 87.088ZM137.409 78.4L136.523 78.8649L136.528 78.8741L137.409 78.4ZM135.657 75.2C138.057 75.2 139.483 75.8802 140.264 76.985L141.897 75.831C140.598 73.9918 138.408 73.2 135.657 73.2V75.2ZM140.271 76.9951C141.153 78.2107 141.665 80.0804 141.665 82.744H143.665C143.665 79.8716 143.12 77.5173 141.89 75.8209L140.271 76.9951ZM141.665 82.744C141.665 85.4065 141.153 87.2873 140.268 88.5211L141.893 89.6869C143.12 87.9767 143.665 85.6175 143.665 82.744H141.665ZM140.267 88.5228C139.488 89.6134 138.061 90.288 135.657 90.288V92.288C138.405 92.288 140.593 91.5066 141.894 89.6852L140.267 88.5228ZM135.657 90.288C133.235 90.288 131.789 89.6124 130.994 88.5169L129.375 89.6911C130.693 91.5076 132.894 92.288 135.657 92.288V90.288ZM131.001 88.527C130.129 87.2922 129.625 85.4089 129.625 82.744H127.625C127.625 85.6151 128.16 87.9718 129.368 89.681L131.001 88.527ZM129.625 82.744C129.625 80.078 130.129 78.2058 130.998 76.9892L129.371 75.8268C128.16 77.5222 127.625 79.874 127.625 82.744H129.625ZM130.997 76.9909C131.793 75.8813 133.239 75.2 135.657 75.2V73.2C132.89 73.2 130.688 73.9907 129.372 75.8251L130.997 76.9909ZM135.657 76.44C134.521 76.44 133.56 76.9081 133.004 77.9181L134.757 78.8819C134.905 78.6119 135.128 78.44 135.657 78.44V76.44ZM133.004 77.9181C132.524 78.7912 132.353 80.0558 132.353 81.544H134.353C134.353 80.1202 134.533 79.2888 134.757 78.8819L133.004 77.9181ZM132.353 81.544V83.92H134.353V81.544H132.353ZM132.353 83.92C132.353 85.422 132.524 86.6958 133.004 87.5699L134.757 86.6061C134.534 86.2002 134.353 85.362 134.353 83.92H132.353ZM133.004 87.5699C133.56 88.5799 134.521 89.048 135.657 89.048V87.048C135.128 87.048 134.905 86.8761 134.757 86.6061L133.004 87.5699ZM135.657 89.048C136.199 89.048 136.728 88.9434 137.199 88.685C137.679 88.4223 138.043 88.0315 138.294 87.5528L136.523 86.6232C136.439 86.7845 136.343 86.8737 136.238 86.931C136.126 86.9926 135.946 87.048 135.657 87.048V89.048ZM138.294 87.5528C138.75 86.6849 138.913 85.4192 138.913 83.92H136.913C136.913 85.3648 136.74 86.2111 136.523 86.6232L138.294 87.5528ZM138.913 83.92V81.544H136.913V83.92H138.913ZM138.913 81.544C138.913 80.0485 138.751 78.7834 138.289 77.9259L136.528 78.8741C136.738 79.2646 136.913 80.0955 136.913 81.544H138.913ZM138.294 77.9352C138.043 77.4565 137.679 77.0657 137.199 76.803C136.728 76.5446 136.199 76.44 135.657 76.44V78.44C135.946 78.44 136.126 78.4954 136.238 78.557C136.343 78.6143 136.439 78.7035 136.523 78.8648L138.294 77.9352ZM158.624 87.304H159.624V86.304H158.624V87.304ZM158.624 91V92H159.624V91H158.624ZM146.168 91H145.168V92H146.168V91ZM146.168 87.304V86.304H145.168V87.304H146.168ZM150.08 87.304V88.304H151.08V87.304H150.08ZM150.08 79.84H151.08V78.84H150.08V79.84ZM146.168 79.84H145.168V80.84H146.168V79.84ZM146.168 77.056L146.109 76.0578L145.168 76.1139V77.056H146.168ZM149.768 76.216L150.118 77.1528L150.128 77.1491L149.768 76.216ZM153.248 74.464V73.464H152.948L152.697 73.6299L153.248 74.464ZM154.856 74.464H155.856V73.464H154.856V74.464ZM154.856 87.304H153.856V88.304H154.856V87.304ZM157.624 87.304V91H159.624V87.304H157.624ZM158.624 90H146.168V92H158.624V90ZM147.168 91V87.304H145.168V91H147.168ZM146.168 88.304H150.08V86.304H146.168V88.304ZM151.08 87.304V79.84H149.08V87.304H151.08ZM150.08 78.84H146.168V80.84H150.08V78.84ZM147.168 79.84V77.056H145.168V79.84H147.168ZM146.228 78.0542C147.425 77.9827 148.725 77.6732 150.118 77.1528L149.419 75.2792C148.156 75.7508 147.056 76.0013 146.109 76.0578L146.228 78.0542ZM150.128 77.1491C151.511 76.616 152.737 76.0008 153.8 75.2981L152.697 73.6299C151.775 74.2392 150.682 74.792 149.409 75.2829L150.128 77.1491ZM153.248 75.464H154.856V73.464H153.248V75.464ZM153.856 74.464V87.304H155.856V74.464H153.856ZM154.856 88.304H158.624V86.304H154.856V88.304Z" fill="#CAE4C1" mask="url(#path-1-outside-1_851_648)"/>
<rect x="55" width="31.7612" height="9.40298" fill="#CAE4C1"/>
<rect x="55" y="12.5376" width="31.3433" height="9.40298" fill="#CAE4C1"/>
<rect x="55" y="55.373" width="42.8358" height="9.40298" transform="rotate(-90 55 55.373)" fill="#CAE4C1"/>
<rect x="67.5373" y="25.0747" width="19.2239" height="9.40298" fill="#CAE4C1"/>
<circle cx="86.3433" cy="17.2391" r="4.70149" fill="#CAE4C1"/>
<path fill-rule="evenodd" clip-rule="evenodd" d="M104 17.2388C104 26.7595 96.2819 34.4776 86.7612 34.4776L86.7612 25.0746C91.0888 25.0746 94.597 21.5664 94.597 17.2388C94.597 12.9112 91.0888 9.40298 86.7612 9.40298L86.7612 0C96.2819 0 104 7.71807 104 17.2388Z" fill="#CAE4C1"/>
<path fill-rule="evenodd" clip-rule="evenodd" d="M84.0072 55.3729H70.7093L55 39.6636L61.6489 33.0146L84.0072 55.3729Z" fill="#CAE4C1"/>
<path fill-rule="evenodd" clip-rule="evenodd" d="M88.4706 55.3732H101.768L101.768 55.3729L74.1862 27.791L67.5373 34.4399L88.4706 55.3732Z" fill="#CAE4C1"/>
</svg>
