<svg width="97" height="38" viewBox="0 0 97 38" fill="none" xmlns="http://www.w3.org/2000/svg">
<g clip-path="url(#clip0_688_658)">
<path d="M91 0H6C2.68629 0 0 2.68629 0 6V32C0 35.3137 2.68629 38 6 38H91C94.3137 38 97 35.3137 97 32V6C97 2.68629 94.3137 0 91 0Z" fill="#CAE4C1"/>
<path d="M22.1124 12.9681H23.7204V20.9481H22.1124V12.9681ZM16.3164 22.6041H23.9964V23.8761H16.3164V22.6041ZM16.3164 20.1441H17.9124V23.1201H16.3164V20.1441ZM17.6724 13.6641C19.3764 13.6641 20.6844 14.8401 20.6844 16.4841C20.6844 18.1161 19.3764 19.3041 17.6724 19.3041C15.9684 19.3041 14.6484 18.1161 14.6484 16.4841C14.6484 14.8401 15.9684 13.6641 17.6724 13.6641ZM17.6724 15.0441C16.8444 15.0441 16.2084 15.5721 16.2084 16.4841C16.2084 17.3841 16.8444 17.9121 17.6724 17.9121C18.4884 17.9121 19.1244 17.3841 19.1244 16.4841C19.1244 15.5721 18.4884 15.0441 17.6724 15.0441ZM25.5195 18.0801H35.5635V19.3401H25.5195V18.0801ZM30.5235 19.9521C32.9235 19.9521 34.3755 20.7081 34.3755 22.0161C34.3755 23.3241 32.9235 24.0681 30.5235 24.0681C28.1235 24.0681 26.6595 23.3241 26.6595 22.0161C26.6595 20.7081 28.1235 19.9521 30.5235 19.9521ZM30.5235 21.1881C29.0355 21.1881 28.2795 21.4401 28.2795 22.0161C28.2795 22.5801 29.0355 22.8441 30.5235 22.8441C32.0115 22.8441 32.7675 22.5801 32.7675 22.0161C32.7675 21.4401 32.0115 21.1881 30.5235 21.1881ZM29.4435 14.0961H30.8595V14.3721C30.8595 16.0281 29.3595 17.4081 26.4915 17.6601L25.9395 16.4241C28.3755 16.2081 29.4435 15.2361 29.4435 14.3721V14.0961ZM30.2235 14.0961H31.6395V14.3721C31.6395 15.2361 32.6955 16.2081 35.1435 16.4241L34.5915 17.6601C31.7355 17.4081 30.2235 16.0401 30.2235 14.3721V14.0961ZM26.4315 13.4721H34.6635V14.7321H26.4315V13.4721ZM41.8145 15.9081H44.6705V17.1801H41.8145V15.9081ZM44.2625 12.9681H45.8585V21.1641H44.2625V12.9681ZM38.5025 22.6041H46.0985V23.8761H38.5025V22.6041ZM38.5025 20.3601H40.1105V23.3361H38.5025V20.3601ZM37.0265 13.6881H38.6105V15.3801H40.7225V13.6881H42.2825V19.4241H37.0265V13.6881ZM38.6105 16.5921V18.1641H40.7225V16.5921H38.6105ZM48.0296 14.3361H57.1976V15.6081H48.0296V14.3361ZM47.6096 21.6681H57.6656V22.9521H47.6096V21.6681ZM51.8216 20.2041H53.4056V22.1721H51.8216V20.2041ZM52.6016 16.0881C54.9176 16.0881 56.3696 16.8921 56.3696 18.2601C56.3696 19.6281 54.9176 20.4321 52.6016 20.4321C50.2856 20.4321 48.8336 19.6281 48.8336 18.2601C48.8336 16.8921 50.2856 16.0881 52.6016 16.0881ZM52.6016 17.3241C51.2096 17.3241 50.4656 17.6241 50.4656 18.2601C50.4656 18.8961 51.2096 19.1841 52.6016 19.1841C53.9936 19.1841 54.7376 18.8961 54.7376 18.2601C54.7376 17.6241 53.9936 17.3241 52.6016 17.3241ZM51.8216 13.0761H53.4056V15.1281H51.8216V13.0761ZM64.1449 18.0321H65.7409V19.6281H64.1449V18.0321ZM68.8489 12.9681H70.4449V20.5281H68.8489V12.9681ZM69.8809 16.1361H71.8369V17.4441H69.8809V16.1361ZM61.6729 20.3121L61.4929 19.0761C63.4849 19.0761 66.1129 19.0641 68.3569 18.7881L68.4769 19.8801C66.1609 20.2761 63.6169 20.3001 61.6729 20.3121ZM62.9089 20.9721H70.4449V24.0681H68.8489V22.1961H62.9089V20.9721ZM61.7809 13.7721H68.0809V14.9121H61.7809V13.7721ZM64.9369 15.1761C66.5689 15.1761 67.6369 15.8121 67.6369 16.8321C67.6369 17.8521 66.5689 18.4881 64.9369 18.4881C63.2929 18.4881 62.2249 17.8521 62.2249 16.8321C62.2249 15.8121 63.2929 15.1761 64.9369 15.1761ZM64.9369 16.2201C64.1809 16.2201 63.7369 16.4121 63.7369 16.8321C63.7369 17.2281 64.1809 17.4441 64.9369 17.4441C65.6809 17.4441 66.1249 17.2281 66.1249 16.8321C66.1249 16.4121 65.6809 16.2201 64.9369 16.2201ZM64.1449 12.8721H65.7409V14.2881H64.1449V12.8721ZM80.296 12.9681H81.904V20.9481H80.296V12.9681ZM74.5 22.6041H82.18V23.8761H74.5V22.6041ZM74.5 20.1441H76.096V23.1201H74.5V20.1441ZM75.856 13.6641C77.56 13.6641 78.868 14.8401 78.868 16.4841C78.868 18.1161 77.56 19.3041 75.856 19.3041C74.152 19.3041 72.832 18.1161 72.832 16.4841C72.832 14.8401 74.152 13.6641 75.856 13.6641ZM75.856 15.0441C75.028 15.0441 74.392 15.5721 74.392 16.4841C74.392 17.3841 75.028 17.9121 75.856 17.9121C76.672 17.9121 77.308 17.3841 77.308 16.4841C77.308 15.5721 76.672 15.0441 75.856 15.0441Z" fill="white"/>
</g>
<defs>
<clipPath id="clip0_688_658">
<rect width="97" height="38" fill="white"/>
</clipPath>
</defs>
</svg>
