<svg width="153" height="174" viewBox="0 0 153 174" fill="none" xmlns="http://www.w3.org/2000/svg">
<rect x="0.22168" y="0.824219" width="98.8126" height="29.2537" fill="#CAE4C1"/>
<rect x="0.22168" y="39.8301" width="97.5124" height="29.2537" fill="#CAE4C1"/>
<rect x="0.22168" y="173.096" width="133.267" height="29.2537" transform="rotate(-90 0.22168 173.096)" fill="#CAE4C1"/>
<rect x="39.2266" y="78.8345" width="59.8076" height="29.2537" fill="#CAE4C1"/>
<circle cx="97.7343" cy="54.4569" r="14.6269" fill="#CAE4C1"/>
<path fill-rule="evenodd" clip-rule="evenodd" d="M152.662 54.456C152.662 84.0761 128.65 108.088 99.0303 108.088V78.8337C99.0307 78.8337 99.031 78.8337 99.0314 78.8337C112.495 78.8337 123.41 67.9193 123.41 54.4556C123.41 40.992 112.495 30.0775 99.0314 30.0775C99.031 30.0775 99.0307 30.0775 99.0303 30.0775V0.824219C128.65 0.824219 152.662 24.836 152.662 54.456Z" fill="#CAE4C1"/>
<path fill-rule="evenodd" clip-rule="evenodd" d="M90.4676 173.096H49.097L0.222656 124.222L20.9082 103.536L90.4678 173.096L90.4676 173.096Z" fill="#CAE4C1"/>
<path fill-rule="evenodd" clip-rule="evenodd" d="M145.723 173.096H104.353L39.2275 107.971L59.913 87.2856L145.723 173.096L145.723 173.096Z" fill="#CAE4C1"/>
</svg>
