<svg width="87" height="28" viewBox="0 0 97 28" fill="none" xmlns="http://www.w3.org/2000/svg">
<path d="M34.272 14.144H36.4V16.288H34.272V14.144ZM28.672 12.896H42.016V14.448H28.672V12.896ZM34.272 6.592H36.384V8.384H34.272V6.592ZM34.144 8.48H36.016V8.768C36.016 10.896 33.856 12.304 29.76 12.528L29.168 10.944C32.784 10.8 34.144 9.792 34.144 8.768V8.48ZM34.64 8.48H36.512V8.768C36.512 9.792 37.872 10.8 41.472 10.944L40.88 12.528C36.8 12.304 34.64 10.896 34.64 8.768V8.48ZM29.92 7.76H40.752V9.312H29.92V7.76ZM30.176 15.344H40.416V19.008H32.288V20.416H30.192V17.584H38.32V16.88H30.176V15.344ZM30.192 19.776H40.8V21.328H30.192V19.776ZM50.9268 9.36H53.9348V11.088H50.9268V9.36ZM46.7508 7.376H48.4948V8.768C48.4948 11.696 47.1988 14.24 44.3828 15.216L43.2628 13.536C45.7428 12.72 46.7508 10.768 46.7508 8.768V7.376ZM47.1828 7.376H48.8948V8.896C48.8948 10.736 49.8868 12.544 52.2068 13.296L51.1028 14.96C48.4148 14.032 47.1828 11.632 47.1828 8.896V7.376ZM45.6628 16.096H55.7588V21.424H53.6308V17.776H45.6628V16.096ZM53.6308 6.608H55.7588V15.424H53.6308V6.608ZM67.5815 6.608H69.6935V21.424H67.5815V6.608ZM69.2135 12.384H71.8375V14.16H69.2135V12.384ZM58.0135 8.8H66.6375V10.496H58.0135V8.8ZM62.3495 11.328C64.5095 11.328 66.1095 12.8 66.1095 14.864C66.1095 16.928 64.5095 18.4 62.3495 18.4C60.1895 18.4 58.5895 16.928 58.5895 14.864C58.5895 12.8 60.1895 11.328 62.3495 11.328ZM62.3495 13.056C61.3415 13.056 60.6215 13.728 60.6215 14.864C60.6215 16 61.3415 16.672 62.3495 16.672C63.3575 16.672 64.0775 16 64.0775 14.864C64.0775 13.728 63.3575 13.056 62.3495 13.056ZM61.2775 6.848H63.4055V9.44H61.2775V6.848ZM83.0043 6.608H85.1483V21.424H83.0043V6.608ZM78.6363 8.144H80.7483C80.7483 12.672 79.2123 16.384 73.9483 18.928L72.8443 17.232C77.1003 15.184 78.6363 12.496 78.6363 8.528V8.144ZM73.6283 8.144H79.6443V9.824H73.6283V8.144Z" fill="black"/>
<path fill-rule="evenodd" clip-rule="evenodd" d="M16.3684 8.71466C16.7101 9.05636 16.7101 9.61038 16.3684 9.95209L12.3204 14L16.3684 18.048C16.7101 18.3897 16.7101 18.9437 16.3684 19.2854C16.0267 19.6271 15.4727 19.6271 15.131 19.2854L10.4643 14.6188C10.1226 14.2771 10.1226 13.723 10.4643 13.3813L15.131 8.71466C15.4727 8.37295 16.0267 8.37295 16.3684 8.71466Z" fill="black"/>
</svg>
