<svg width="130" height="60" viewBox="0 0 130 60" fill="none" xmlns="http://www.w3.org/2000/svg">
<rect x="0.75" y="0.75" width="128.5" height="58.5" rx="6.25" fill="white" stroke="#CAE4C1" stroke-width="1.5"/>
<path d="M52.328 42.992H52.992V44.088H52.328V42.992ZM49.4 42.6H55.928V43.112H49.4V42.6ZM52.336 39.344H52.992V40.224H52.336V39.344ZM52.304 40.288H52.888V40.4C52.888 41.536 51.536 42.144 49.936 42.28L49.744 41.768C51.168 41.68 52.304 41.176 52.304 40.4V40.288ZM52.44 40.288H53.024V40.4C53.024 41.176 54.16 41.68 55.576 41.768L55.384 42.28C53.784 42.144 52.44 41.536 52.44 40.4V40.288ZM50.064 40.024H55.264V40.528H50.064V40.024ZM50.184 43.768H55.096V45.36H50.856V46.232H50.2V44.888H54.44V44.272H50.184V43.768ZM50.2 46.04H55.312V46.544H50.2V46.04ZM60.4714 40.904H62.1834V41.456H60.4714V40.904ZM58.5594 39.76H59.1034V40.512C59.1034 41.904 58.3274 43.048 57.1114 43.512L56.7674 42.984C57.8554 42.584 58.5594 41.616 58.5594 40.512V39.76ZM58.6794 39.76H59.2154V40.544C59.2154 41.536 59.9354 42.464 60.9754 42.832L60.6234 43.352C59.4634 42.912 58.6794 41.816 58.6794 40.544V39.76ZM57.8794 44.064H62.7034V46.624H62.0394V44.6H57.8794V44.064ZM62.0394 39.392H62.7034V43.664H62.0394V39.392ZM71.8568 39.392H72.4968V46.624H71.8568V39.392ZM70.6408 42.336H72.0328V42.88H70.6408V42.336ZM70.2168 39.552H70.8408V46.256H70.2168V39.552ZM66.7128 40.264H67.3768V44.44H66.7128V40.264ZM66.7128 44.176H67.1768C67.9208 44.176 68.7528 44.128 69.6968 43.944L69.7688 44.52C68.7848 44.712 67.9528 44.752 67.1768 44.752H66.7128V44.176ZM77.0161 40.456H79.2241V41H77.0161V40.456ZM77.0161 42.072H79.2241V42.624H77.0161V42.072ZM74.8481 44.056H79.6721V46.624H79.0081V44.592H74.8481V44.056ZM79.0081 39.392H79.6721V43.656H79.0081V39.392ZM75.6961 39.792C76.7601 39.792 77.5601 40.512 77.5601 41.536C77.5601 42.56 76.7601 43.272 75.6961 43.272C74.6241 43.272 73.8321 42.56 73.8321 41.536C73.8321 40.512 74.6241 39.792 75.6961 39.792ZM75.6961 40.36C74.9921 40.36 74.4721 40.848 74.4721 41.536C74.4721 42.224 74.9921 42.704 75.6961 42.704C76.4001 42.704 76.9281 42.224 76.9281 41.536C76.9281 40.848 76.4001 40.36 75.6961 40.36Z" fill="#9A9A9A"/>
<ellipse cx="65" cy="24.5" rx="11" ry="11.5" fill="#F0FFEB"/>
<path d="M66.9545 20.2692H69V30H60V20.2692H62.0455V21.1154H66.9545V20.2692ZM61.6364 24.5H67.3636V23.6538H61.6364V24.5ZM61.6364 27.8846H67.3636V27.0385H61.6364V27.8846ZM62.8636 20.2692V19H66.1364V20.2692H62.8636Z" fill="#CAE4C1"/>
</svg>
