<svg width="233" height="38" viewBox="0 0 233 38" fill="none" xmlns="http://www.w3.org/2000/svg">
<rect width="233" height="38" rx="10" fill="#CAE4C1"/>
<path d="M98.096 19.242H99.825V20.984H98.096V19.242ZM93.546 18.228H104.388V19.489H93.546V18.228ZM98.096 13.106H99.812V14.562H98.096V13.106ZM97.992 14.64H99.513V14.874C99.513 16.603 97.758 17.747 94.43 17.929L93.949 16.642C96.887 16.525 97.992 15.706 97.992 14.874V14.64ZM98.395 14.64H99.916V14.874C99.916 15.706 101.021 16.525 103.946 16.642L103.465 17.929C100.15 17.747 98.395 16.603 98.395 14.874V14.64ZM94.56 14.055H103.361V15.316H94.56V14.055ZM94.768 20.217H103.088V23.194H96.484V24.338H94.781V22.037H101.385V21.465H94.768V20.217ZM94.781 23.818H103.4V25.079H94.781V23.818ZM111.628 15.355H114.072V16.759H111.628V15.355ZM108.235 13.743H109.652V14.874C109.652 17.253 108.599 19.32 106.311 20.113L105.401 18.748C107.416 18.085 108.235 16.499 108.235 14.874V13.743ZM108.586 13.743H109.977V14.978C109.977 16.473 110.783 17.942 112.668 18.553L111.771 19.905C109.587 19.151 108.586 17.201 108.586 14.978V13.743ZM107.351 20.828H115.554V25.157H113.825V22.193H107.351V20.828ZM113.825 13.119H115.554V20.282H113.825V13.119ZM125.16 13.119H126.876V25.157H125.16V13.119ZM126.486 17.812H128.618V19.255H126.486V17.812ZM117.386 14.9H124.393V16.278H117.386V14.9ZM120.909 16.954C122.664 16.954 123.964 18.15 123.964 19.827C123.964 21.504 122.664 22.7 120.909 22.7C119.154 22.7 117.854 21.504 117.854 19.827C117.854 18.15 119.154 16.954 120.909 16.954ZM120.909 18.358C120.09 18.358 119.505 18.904 119.505 19.827C119.505 20.75 120.09 21.296 120.909 21.296C121.728 21.296 122.313 20.75 122.313 19.827C122.313 18.904 121.728 18.358 120.909 18.358ZM120.038 13.314H121.767V15.42H120.038V13.314ZM137.691 13.119H139.433V25.157H137.691V13.119ZM134.142 14.367H135.858C135.858 18.046 134.61 21.062 130.333 23.129L129.436 21.751C132.894 20.087 134.142 17.903 134.142 14.679V14.367ZM130.073 14.367H134.961V15.732H130.073V14.367Z" fill="white"/>
</svg>
