<svg width="91" height="28" viewBox="0 0 91 28" fill="none" xmlns="http://www.w3.org/2000/svg">
<path d="M34.272 14.144H36.4V16.288H34.272V14.144ZM28.672 12.896H42.016V14.448H28.672V12.896ZM34.272 6.592H36.384V8.384H34.272V6.592ZM34.144 8.48H36.016V8.768C36.016 10.896 33.856 12.304 29.76 12.528L29.168 10.944C32.784 10.8 34.144 9.792 34.144 8.768V8.48ZM34.64 8.48H36.512V8.768C36.512 9.792 37.872 10.8 41.472 10.944L40.88 12.528C36.8 12.304 34.64 10.896 34.64 8.768V8.48ZM29.92 7.76H40.752V9.312H29.92V7.76ZM30.176 15.344H40.416V19.008H32.288V20.416H30.192V17.584H38.32V16.88H30.176V15.344ZM30.192 19.776H40.8V21.328H30.192V19.776ZM50.9268 9.36H53.9348V11.088H50.9268V9.36ZM46.7508 7.376H48.4948V8.768C48.4948 11.696 47.1988 14.24 44.3828 15.216L43.2628 13.536C45.7428 12.72 46.7508 10.768 46.7508 8.768V7.376ZM47.1828 7.376H48.8948V8.896C48.8948 10.736 49.8868 12.544 52.2068 13.296L51.1028 14.96C48.4148 14.032 47.1828 11.632 47.1828 8.896V7.376ZM45.6628 16.096H55.7588V21.424H53.6308V17.776H45.6628V16.096ZM53.6308 6.608H55.7588V15.424H53.6308V6.608ZM65.1406 13.376H67.2686V15.504H65.1406V13.376ZM71.4126 6.624H73.5406V16.704H71.4126V6.624ZM72.7886 10.848H75.3966V12.592H72.7886V10.848ZM61.8446 16.416L61.6046 14.768C64.2606 14.768 67.7646 14.752 70.7566 14.384L70.9166 15.84C67.8286 16.368 64.4366 16.4 61.8446 16.416ZM63.4926 17.296H73.5406V21.424H71.4126V18.928H63.4926V17.296ZM61.9886 7.696H70.3886V9.216H61.9886V7.696ZM66.1966 9.568C68.3726 9.568 69.7966 10.416 69.7966 11.776C69.7966 13.136 68.3726 13.984 66.1966 13.984C64.0046 13.984 62.5806 13.136 62.5806 11.776C62.5806 10.416 64.0046 9.568 66.1966 9.568ZM66.1966 10.96C65.1886 10.96 64.5966 11.216 64.5966 11.776C64.5966 12.304 65.1886 12.592 66.1966 12.592C67.1886 12.592 67.7806 12.304 67.7806 11.776C67.7806 11.216 67.1886 10.96 66.1966 10.96ZM65.1406 6.496H67.2686V8.384H65.1406V6.496ZM86.6754 6.624H88.8194V17.264H86.6754V6.624ZM78.9474 19.472H89.1874V21.168H78.9474V19.472ZM78.9474 16.192H81.0754V20.16H78.9474V16.192ZM80.7554 7.552C83.0274 7.552 84.7714 9.12 84.7714 11.312C84.7714 13.488 83.0274 15.072 80.7554 15.072C78.4834 15.072 76.7234 13.488 76.7234 11.312C76.7234 9.12 78.4834 7.552 80.7554 7.552ZM80.7554 9.392C79.6514 9.392 78.8034 10.096 78.8034 11.312C78.8034 12.512 79.6514 13.216 80.7554 13.216C81.8434 13.216 82.6914 12.512 82.6914 11.312C82.6914 10.096 81.8434 9.392 80.7554 9.392Z" fill="black"/>
<path fill-rule="evenodd" clip-rule="evenodd" d="M16.3686 8.71478C16.7103 9.05649 16.7103 9.61051 16.3686 9.95221L12.3207 14.0002L16.3686 18.0481C16.7103 18.3898 16.7103 18.9438 16.3686 19.2856C16.0269 19.6273 15.4729 19.6273 15.1312 19.2856L10.4645 14.6189C10.1228 14.2772 10.1228 13.7232 10.4645 13.3814L15.1312 8.71478C15.4729 8.37307 16.0269 8.37307 16.3686 8.71478Z" fill="black"/>
</svg>
