<svg width="311" height="38" viewBox="0 0 311 38" fill="none" xmlns="http://www.w3.org/2000/svg">
<g clip-path="url(#clip0_689_656)">
<path d="M301 0H10C4.47715 0 0 4.47715 0 10V28C0 33.5228 4.47715 38 10 38H301C306.523 38 311 33.5228 311 28V10C311 4.47715 306.523 0 301 0Z" fill="#CAE4C1"/>
<path d="M140.533 24.4271H151.427V25.8311H140.533V24.4271ZM145.096 22.1521H146.825V24.9991H145.096V22.1521ZM141.755 15.8991H150.205V19.9031H143.497V21.9311H141.781V18.5511H148.489V17.2641H141.755V15.8991ZM141.781 21.2421H150.478V22.6331H141.781V21.2421ZM153.597 16.2241H161.228V17.5891H153.597V16.2241ZM152.492 24.1801H163.373V25.5841H152.492V24.1801ZM160.318 16.2241H162.034V17.6541C162.034 19.3441 162.034 20.9821 161.605 23.4521L159.876 23.3091C160.318 20.9951 160.318 19.2791 160.318 17.6541V16.2241ZM172.706 15.1321H174.448V23.7771H172.706V15.1321ZM166.427 25.5711H174.747V26.9491H166.427V25.5711ZM166.427 22.9061H168.156V26.1301H166.427V22.9061ZM167.896 15.8861C169.742 15.8861 171.159 17.1601 171.159 18.9411C171.159 20.7091 169.742 21.9961 167.896 21.9961C166.05 21.9961 164.62 20.7091 164.62 18.9411C164.62 17.1601 166.05 15.8861 167.896 15.8861ZM167.896 17.3811C166.999 17.3811 166.31 17.9531 166.31 18.9411C166.31 19.9161 166.999 20.4881 167.896 20.4881C168.78 20.4881 169.469 19.9161 169.469 18.9411C169.469 17.9531 168.78 17.3811 167.896 17.3811Z" fill="white"/>
</g>
<defs>
<clipPath id="clip0_689_656">
<rect width="311" height="38" fill="white"/>
</clipPath>
</defs>
</svg>
