<svg width="15" height="15" viewBox="0 0 15 15" fill="none" xmlns="http://www.w3.org/2000/svg">
<path fill-rule="evenodd" clip-rule="evenodd" d="M11.4388 6.5362C11.4388 7.18002 11.312 7.81754 11.0656 8.41235C10.8193 9.00717 10.4581 9.54763 10.0029 10.0029C9.54763 10.4581 9.00717 10.8193 8.41235 11.0656C7.81754 11.312 7.18002 11.4388 6.5362 11.4388C5.89237 11.4388 5.25486 11.312 4.66004 11.0656C4.06523 10.8193 3.52477 10.4581 3.06951 10.0029C2.61426 9.54763 2.25314 9.00717 2.00676 8.41235C1.76038 7.81754 1.63357 7.18002 1.63357 6.5362C1.63357 5.23594 2.15009 3.98894 3.06951 3.06951C3.98894 2.15009 5.23594 1.63357 6.5362 1.63357C7.83646 1.63357 9.08346 2.15009 10.0029 3.06951C10.9223 3.98894 11.4388 5.23594 11.4388 6.5362ZM10.5455 11.7003C9.23197 12.72 7.57922 13.2008 5.9237 13.0449C4.26817 12.8889 2.73431 12.1079 1.63438 10.8608C0.534456 9.61365 -0.0488522 7.99424 0.00320738 6.33219C0.0552669 4.67015 0.73878 3.09042 1.9146 1.9146C3.09042 0.73878 4.67015 0.0552669 6.33219 0.00320738C7.99424 -0.0488522 9.61365 0.534456 10.8608 1.63438C12.1079 2.73431 12.8889 4.26817 13.0449 5.9237C13.2008 7.57922 12.72 9.23197 11.7003 10.5455L14.7399 13.5851C14.8202 13.6599 14.8846 13.7501 14.9293 13.8503C14.9739 13.9506 14.9979 14.0588 14.9999 14.1685C15.0018 14.2782 14.9816 14.3872 14.9405 14.4889C14.8994 14.5907 14.8383 14.6831 14.7607 14.7607C14.6831 14.8383 14.5907 14.8994 14.4889 14.9405C14.3872 14.9816 14.2782 15.0018 14.1685 14.9999C14.0588 14.9979 13.9506 14.9739 13.8503 14.9293C13.7501 14.8846 13.6599 14.8202 13.5851 14.7399L10.5455 11.7003Z" fill="#CAE4C1"/>
</svg>
