<svg width="27" height="27" viewBox="0 0 27 27" fill="none" xmlns="http://www.w3.org/2000/svg">
<path d="M19.5 0C19.8978 0 20.2794 0.158035 20.5607 0.43934C20.842 0.720644 21 1.10218 21 1.5V3H24C24.7569 2.99976 25.4858 3.28561 26.0408 3.80025C26.5958 4.31488 26.9357 5.02027 26.9925 5.775L27 6V24C27.0002 24.7569 26.7144 25.4858 26.1998 26.0408C25.6851 26.5958 24.9797 26.9357 24.225 26.9925L24 27H3C2.24314 27.0002 1.51415 26.7144 0.959178 26.1998C0.404206 25.6851 0.0642651 24.9797 0.00750032 24.225L1.50402e-07 24V6C-0.000239369 5.24314 0.28561 4.51415 0.800245 3.95918C1.31488 3.40421 2.02027 3.06426 2.775 3.0075L3 3H6V1.5C6 1.10218 6.15804 0.720644 6.43934 0.43934C6.72064 0.158035 7.10218 0 7.5 0C7.89782 0 8.27936 0.158035 8.56066 0.43934C8.84196 0.720644 9 1.10218 9 1.5V3H18V1.5C18 1.10218 18.158 0.720644 18.4393 0.43934C18.7206 0.158035 19.1022 0 19.5 0ZM17.736 9.5685L11.373 15.9315L9.2505 13.8105C8.9676 13.5373 8.58869 13.3861 8.1954 13.3895C7.8021 13.3929 7.42588 13.5507 7.14777 13.8288C6.86966 14.1069 6.71191 14.4831 6.70849 14.8764C6.70507 15.2697 6.85626 15.6486 7.1295 15.9315L10.3005 19.104C10.4412 19.2448 10.6083 19.3565 10.7922 19.4328C10.9761 19.509 11.1732 19.5482 11.3723 19.5482C11.5713 19.5482 11.7684 19.509 11.9523 19.4328C12.1362 19.3565 12.3033 19.2448 12.444 19.104L19.857 11.6895C20.0003 11.5511 20.1145 11.3856 20.1932 11.2026C20.2718 11.0196 20.3131 10.8228 20.3149 10.6236C20.3166 10.4244 20.2787 10.2269 20.2032 10.0426C20.1278 9.85823 20.0164 9.69075 19.8756 9.54991C19.7348 9.40907 19.5673 9.29769 19.3829 9.22227C19.1986 9.14685 19.0011 9.10889 18.8019 9.11062C18.6027 9.11236 18.4059 9.15373 18.2229 9.23235C18.0399 9.31096 17.8744 9.42523 17.736 9.5685Z" fill="#CAE4C1"/>
</svg>
