<svg width="29" height="26" viewBox="0 0 29 26" fill="none" xmlns="http://www.w3.org/2000/svg">
<path d="M14.5016 18.9089C15.0144 18.9089 15.5062 18.6598 15.8688 18.2166C16.2314 17.7733 16.4351 17.1721 16.4351 16.5452C16.4351 15.9183 16.2314 15.3171 15.8688 14.8738C15.5062 14.4305 15.0144 14.1815 14.5016 14.1815C13.9888 14.1815 13.4969 14.4305 13.1343 14.8738C12.7717 15.3171 12.568 15.9183 12.568 16.5452C12.568 17.1721 12.7717 17.7733 13.1343 18.2166C13.4969 18.6598 13.9888 18.9089 14.5016 18.9089ZM19.1401 8.78749L15.9691 3.90407C16.2102 3.56101 16.3657 3.14059 16.4172 2.69271C16.4687 2.24482 16.414 1.78828 16.2596 1.37726C16.1052 0.966246 15.8576 0.61801 15.5462 0.373886C15.2347 0.129762 14.8725 0 14.5025 0C14.1325 0 13.7703 0.129762 13.4589 0.373886C13.1474 0.61801 12.8998 0.966246 12.7454 1.37726C12.591 1.78828 12.5363 2.24482 12.5878 2.69271C12.6393 3.14059 12.7948 3.56101 13.0359 3.90407L9.86106 8.78512C9.72565 8.99421 9.53637 9.14116 9.324 9.20209C9.11162 9.26303 8.88863 9.23437 8.69127 9.12077L3.83808 6.32451C3.85742 6.18899 3.86708 6.05032 3.86708 5.90849C3.86706 5.43193 3.7492 4.9665 3.52896 4.57327C3.30873 4.18004 2.9964 3.87738 2.63297 3.70499C2.26953 3.5326 1.87195 3.49854 1.4924 3.60727C1.11284 3.716 0.769036 3.96245 0.506085 4.31428C0.243134 4.66611 0.0733194 5.10689 0.0189198 5.57879C-0.0354798 6.05069 0.0280764 6.53168 0.20125 6.95864C0.374424 7.3856 0.649127 7.7386 0.98932 7.97133C1.32951 8.20406 1.71931 8.30564 2.10756 8.26275L4.62116 23.6268C4.73096 24.2956 5.02663 24.8972 5.45801 25.3298C5.88938 25.7624 6.42989 25.9992 6.98782 26H22.0114C22.5703 26.0001 23.1119 25.7635 23.5441 25.3304C23.9763 24.8973 24.2724 24.2944 24.3819 23.6245L26.8956 8.26275C26.9523 8.26905 27.0096 8.2722 27.0676 8.2722C27.4646 8.2719 27.8518 8.12226 28.1768 7.8436C28.5018 7.56494 28.7487 7.17076 28.8841 6.71459C29.0195 6.25842 29.0367 5.76237 28.9335 5.29381C28.8302 4.82525 28.6116 4.40687 28.3071 4.09551C28.0026 3.78415 27.6272 3.59489 27.2317 3.55343C26.8362 3.51197 26.4398 3.62032 26.0964 3.86377C25.7531 4.10721 25.4793 4.47396 25.3123 4.91419C25.1453 5.35443 25.0932 5.84682 25.1631 6.32451L20.3099 9.12314C20.1125 9.23673 19.8896 9.26539 19.6772 9.20446C19.4648 9.14352 19.2755 8.99657 19.1401 8.78749ZM14.4996 5.44521L17.6262 10.2577C18.0328 10.8836 18.6005 11.3232 19.2372 11.5051C19.8739 11.687 20.5421 11.6006 21.1336 11.2599L24.7783 9.16095L22.4871 23.1612C22.4652 23.2951 22.406 23.4156 22.3197 23.5022C22.2333 23.5888 22.1251 23.6362 22.0134 23.6363H6.98975C6.87804 23.6362 6.76981 23.5888 6.68345 23.5022C6.59709 23.4156 6.53793 23.2951 6.51603 23.1612L4.22479 9.16095L7.86951 11.2599C8.46097 11.6006 9.12925 11.687 9.76593 11.5051C10.4026 11.3232 10.9703 10.8836 11.377 10.2577L14.4996 5.44521Z" fill="#CAE4C1"/>
</svg>
