<svg width="27" height="27" viewBox="0 0 27 27" fill="none" xmlns="http://www.w3.org/2000/svg">
<path d="M11.325 0.752436C11.9336 0.266507 12.704 0 13.5 0C14.296 0 15.0664 0.266507 15.675 0.752436L25.8 8.84041C26.5605 9.44858 27 10.3423 27 11.2844V24.5134C27 25.1729 26.7234 25.8053 26.2312 26.2717C25.7389 26.738 25.0712 27 24.375 27H19.125C18.4288 27 17.7611 26.738 17.2688 26.2717C16.7766 25.8053 16.5 25.1729 16.5 24.5134V17.3987C16.5 17.3045 16.4605 17.2142 16.3902 17.1475C16.3198 17.0809 16.2245 17.0435 16.125 17.0435H10.875C10.7755 17.0435 10.6802 17.0809 10.6098 17.1475C10.5395 17.2142 10.5 17.3045 10.5 17.3987V24.5134C10.5 25.1729 10.2234 25.8053 9.73116 26.2717C9.23887 26.738 8.57119 27 7.875 27H2.625C2.28028 27 1.93894 26.9357 1.62046 26.8107C1.30198 26.6857 1.0126 26.5026 0.768845 26.2717C0.525091 26.0408 0.331735 25.7666 0.199816 25.465C0.0678978 25.1633 0 24.8399 0 24.5134V11.2844C0 10.3423 0.4395 9.44858 1.2 8.84041L11.325 0.752436ZM14.2245 2.38225C14.0217 2.22052 13.7651 2.13184 13.5 2.13184C13.2349 2.13184 12.9783 2.22052 12.7755 2.38225L2.6505 10.4688C2.5252 10.5687 2.42445 10.6934 2.35527 10.834C2.28609 10.9746 2.25017 11.1279 2.25 11.283V24.5119C2.25 24.708 2.418 24.8672 2.625 24.8672H7.875C7.97446 24.8672 8.06984 24.8297 8.14017 24.7631C8.21049 24.6965 8.25 24.6062 8.25 24.5119V17.3973C8.25 16.0233 9.426 14.9107 10.875 14.9107H16.125C17.574 14.9107 18.75 16.0233 18.75 17.3973V24.5119C18.75 24.708 18.918 24.8672 19.125 24.8672H24.375C24.4745 24.8672 24.5698 24.8297 24.6402 24.7631C24.7105 24.6965 24.75 24.6062 24.75 24.5119V11.283C24.7498 11.1279 24.7139 10.9746 24.6447 10.834C24.5756 10.6934 24.4748 10.5687 24.3495 10.4688L14.2245 2.38225Z" fill="#CAE4C1"/>
</svg>
