<svg width="27" height="27" viewBox="0 0 27 27" fill="none" xmlns="http://www.w3.org/2000/svg">
<path d="M13.5 13.5C15.2902 13.5 17.0071 12.7888 18.273 11.523C19.5388 10.2571 20.25 8.54021 20.25 6.75C20.25 4.95979 19.5388 3.2429 18.273 1.97703C17.0071 0.711159 15.2902 0 13.5 0C11.7098 0 9.9929 0.711159 8.72703 1.97703C7.46116 3.2429 6.75 4.95979 6.75 6.75C6.75 8.54021 7.46116 10.2571 8.72703 11.523C9.9929 12.7888 11.7098 13.5 13.5 13.5ZM18 6.75C18 7.94347 17.5259 9.08807 16.682 9.93198C15.8381 10.7759 14.6935 11.25 13.5 11.25C12.3065 11.25 11.1619 10.7759 10.318 9.93198C9.47411 9.08807 9 7.94347 9 6.75C9 5.55653 9.47411 4.41193 10.318 3.56802C11.1619 2.72411 12.3065 2.25 13.5 2.25C14.6935 2.25 15.8381 2.72411 16.682 3.56802C17.5259 4.41193 18 5.55653 18 6.75ZM27 24.75C27 27 24.75 27 24.75 27H2.25C2.25 27 0 27 0 24.75C0 22.5 2.25 15.75 13.5 15.75C24.75 15.75 27 22.5 27 24.75ZM24.75 24.741C24.7477 24.1875 24.4035 22.5225 22.878 20.997C21.411 19.53 18.6503 18 13.5 18C8.3475 18 5.589 19.53 4.122 20.997C2.5965 22.5225 2.2545 24.1875 2.25 24.741H24.75Z" fill="#CAE4C1"/>
</svg>
