<svg width="27" height="27" viewBox="0 0 27 27" fill="none" xmlns="http://www.w3.org/2000/svg">
<path d="M19.5 0C19.8978 0 20.2794 0.158035 20.5607 0.43934C20.842 0.720644 21 1.10218 21 1.5V3H24C24.7956 3 25.5587 3.31607 26.1213 3.87868C26.6839 4.44129 27 5.20435 27 6V24C27 24.7956 26.6839 25.5587 26.1213 26.1213C25.5587 26.6839 24.7956 27 24 27H3C2.20435 27 1.44129 26.6839 0.87868 26.1213C0.31607 25.5587 0 24.7956 0 24V6C0 5.20435 0.31607 4.44129 0.87868 3.87868C1.44129 3.31607 2.20435 3 3 3H6V1.5C6 1.10218 6.15804 0.720644 6.43934 0.43934C6.72064 0.158035 7.10218 0 7.5 0C7.89782 0 8.27935 0.158035 8.56066 0.43934C8.84196 0.720644 9 1.10218 9 1.5V3H18V1.5C18 1.10218 18.158 0.720644 18.4393 0.43934C18.7206 0.158035 19.1022 0 19.5 0ZM24.5 5.56066H2.5V24.5607H24.5V5.56066ZM17.736 9.5685C18.0189 9.29526 18.3978 9.14407 18.7911 9.14749C19.1844 9.15091 19.5606 9.30866 19.8387 9.58677C20.1168 9.86488 20.2746 10.2411 20.278 10.6344C20.2814 11.0277 20.1302 11.4066 19.857 11.6895L12.444 19.104C12.3033 19.2448 12.1362 19.3565 11.9523 19.4328C11.7684 19.509 11.5713 19.5482 11.3722 19.5482C11.1732 19.5482 10.9761 19.509 10.7922 19.4328C10.6083 19.3565 10.4412 19.2448 10.3005 19.104L7.1295 15.93C6.85626 15.6471 6.70507 15.2682 6.70849 14.8749C6.71191 14.4816 6.86966 14.1054 7.14777 13.8273C7.42588 13.5492 7.8021 13.3914 8.1954 13.388C8.58869 13.3846 8.9676 13.5358 9.2505 13.809L11.373 15.93L17.736 9.5685Z" fill="#CAE4C1"/>
</svg>
