<svg width="20" height="20" viewBox="0 0 20 20" fill="none" xmlns="http://www.w3.org/2000/svg">
<circle cx="10" cy="10" r="10" fill="#E0E0E0"/>
<path d="M15.1429 10.8571H10.8571V15.1429C10.8571 15.3702 10.7668 15.5882 10.6061 15.7489C10.4453 15.9097 10.2273 16 10 16C9.77267 16 9.55465 15.9097 9.39391 15.7489C9.23316 15.5882 9.14286 15.3702 9.14286 15.1429V10.8571H4.85714C4.62981 10.8571 4.4118 10.7668 4.25105 10.6061C4.09031 10.4453 4 10.2273 4 10C4 9.77267 4.09031 9.55465 4.25105 9.39391C4.4118 9.23316 4.62981 9.14286 4.85714 9.14286H9.14286V4.85714C9.14286 4.62981 9.23316 4.4118 9.39391 4.25105C9.55465 4.09031 9.77267 4 10 4C10.2273 4 10.4453 4.09031 10.6061 4.25105C10.7668 4.4118 10.8571 4.62981 10.8571 4.85714V9.14286H15.1429C15.3702 9.14286 15.5882 9.23316 15.7489 9.39391C15.9097 9.55465 16 9.77267 16 10C16 10.2273 15.9097 10.4453 15.7489 10.6061C15.5882 10.7668 15.3702 10.8571 15.1429 10.8571Z" fill="white"/>
</svg>
