<svg width="233" height="38" viewBox="0 0 233 38" fill="none" xmlns="http://www.w3.org/2000/svg">
<rect width="233" height="38" rx="10" fill="#CAE4C1"/>
<path d="M98.814 13.119H100.556V25.157H98.814V13.119ZM95.265 14.367H96.981C96.981 18.046 95.733 21.062 91.456 23.129L90.559 21.751C94.017 20.087 95.265 17.903 95.265 14.679V14.367ZM91.196 14.367H96.084V15.732H91.196V14.367ZM102.479 19.567H113.386V20.945H102.479V19.567ZM103.818 13.353H112.06V16.616H105.547V17.916H103.831V15.394H110.357V14.666H103.818V13.353ZM103.831 17.396H112.294V18.709H103.831V17.396ZM107.068 18.033H108.797V20.321H107.068V18.033ZM103.688 21.621H112.138V25.118H110.409V22.986H103.688V21.621ZM122.16 13.119H123.876V25.157H122.16V13.119ZM123.486 17.812H125.618V19.255H123.486V17.812ZM114.386 14.9H121.393V16.278H114.386V14.9ZM117.909 16.954C119.664 16.954 120.964 18.15 120.964 19.827C120.964 21.504 119.664 22.7 117.909 22.7C116.154 22.7 114.854 21.504 114.854 19.827C114.854 18.15 116.154 16.954 117.909 16.954ZM117.909 18.358C117.09 18.358 116.505 18.904 116.505 19.827C116.505 20.75 117.09 21.296 117.909 21.296C118.728 21.296 119.313 20.75 119.313 19.827C119.313 18.904 118.728 18.358 117.909 18.358ZM117.038 13.314H118.767V15.42H117.038V13.314ZM134.691 13.119H136.433V25.157H134.691V13.119ZM131.142 14.367H132.858C132.858 18.046 131.61 21.062 127.333 23.129L126.436 21.751C129.894 20.087 131.142 17.903 131.142 14.679V14.367ZM127.073 14.367H131.961V15.732H127.073V14.367Z" fill="white"/>
</svg>
